<?xml version="1.0" encoding="utf-8"?>
<!-- Generator: Adobe Illustrator 25.4.1, SVG Export Plug-In . SVG Version: 6.00 Build 0)  -->
<svg version="1.1" id="Layer_1" xmlns="http://www.w3.org/2000/svg" xmlns:xlink="http://www.w3.org/1999/xlink" x="0px" y="0px"
	 viewBox="0 0 250 165" style="enable-background:new 0 0 250 165;" xml:space="preserve">
<style type="text/css">
	.st0{clip-path:url(#SVGID_00000103267209977000913630000012527289526870745011_);}
	.st1{fill:#3B3E51;}
	.st2{fill:#7887A7;}
	.st3{fill:#669CB6;}
	.st4{fill:#F8F4E3;}
	.st5{fill:#FFE84D;}
</style>
<g>
	<defs>
		<rect id="SVGID_1_" x="57.76" y="-0.33" width="135.35" height="165"/>
	</defs>
	<clipPath id="SVGID_00000110431103127797443370000011346883855730764420_">
		<use xlink:href="#SVGID_1_"  style="overflow:visible;"/>
	</clipPath>
	<g style="clip-path:url(#SVGID_00000110431103127797443370000011346883855730764420_);">
		<path class="st1" d="M192.94,6.81v150.72c0,3.94-3.17,7.14-7.07,7.14H64.88c-3.9,0-7.07-3.2-7.07-7.14V6.81
			c0-3.94,3.17-7.14,7.07-7.14h120.99C189.77-0.33,192.94,2.88,192.94,6.81z"/>
	</g>
</g>
<path class="st2" d="M189.67,6.81v150.72c0,2.11-1.7,3.83-3.8,3.83H68.2c-0.96-0.99-1.55-2.34-1.55-3.83v-0.1
	c0.9,0,1.64-0.74,1.64-1.65v-2.99c0-0.92-0.73-1.65-1.64-1.65v-3.76c0.9,0,1.64-0.74,1.64-1.65V86.64c0-0.91-0.73-1.65-1.64-1.65
	v-7.3c0.9,0,1.64-0.74,1.64-1.65v-5.98c0-0.92-0.73-1.66-1.64-1.66v-7.71c0.9,0,1.64-0.74,1.64-1.65V7.26
	c-0.03-0.69,0.05-1.68,0.62-2.53c0.47-0.73,1.19-1.3,1.98-1.55c0.13-0.04,0.24-0.13,0.35-0.2h12.56v12.47
	c0,0.92,0.73,1.65,1.64,1.65h68.99c0.9,0,1.64-0.74,1.64-1.65V2.99h29.83C187.97,2.99,189.67,4.7,189.67,6.81z M77.33,152.55
	c0-1.88-1.51-3.41-3.37-3.41c-1.85,0-3.37,1.53-3.37,3.41c0,1.87,1.51,3.4,3.37,3.4C75.82,155.95,77.33,154.42,77.33,152.55z
	 M77.33,80.43c0-1.87-1.51-3.4-3.37-3.4c-1.85,0-3.37,1.53-3.37,3.4c0,1.88,1.51,3.41,3.37,3.41C75.82,83.83,77.33,82.3,77.33,80.43
	z M77.33,8.31c0-1.88-1.51-3.41-3.37-3.41c-1.85,0-3.37,1.53-3.37,3.41c0,1.87,1.51,3.4,3.37,3.4
	C75.82,11.71,77.33,10.18,77.33,8.31z M178.21,135.05c-0.01-0.4-0.01-0.8,0-1.21c0.03-0.92-0.69-1.67-1.6-1.69
	c-0.02-0.01-0.03,0.01-0.04,0.01v-9.37c0.91,0,1.64-0.74,1.64-1.65V50.63c0-0.92-0.73-1.66-1.64-1.66v-5.13
	c0.91,0,1.64-0.74,1.64-1.66V38.6c0-0.92-0.73-1.65-1.64-1.65v-4.13c0-0.24-0.04-0.47-0.06-0.7c0.08-0.02,0.16-0.04,0.24-0.08
	c0.82-0.38,1.17-1.37,0.79-2.2c-0.9-1.98-2.8-3.44-4.94-3.85c-0.73-0.13-1.44-0.13-2.05-0.12c-0.22,0-0.44,0.01-0.7,0H98.57
	c-0.9,0-1.64,0.74-1.64,1.65h-10.3c-0.38,0-0.75,0.04-1.11,0.12c-0.03-0.08-0.04-0.16-0.08-0.24c-0.45-0.8-1.46-1.07-2.24-0.62
	c-1.53,0.88-2.68,2.35-3.17,4.01c-0.3,0.94-0.31,1.85-0.3,2.49v2.01c0,0.92,0.73,1.65,1.64,1.65v10.96c-0.91,0-1.64,0.74-1.64,1.66
	v79.42c0,0.92,0.73,1.65,1.64,1.65v5.93c0,0.1,0.02,0.19,0.03,0.3c-0.08,0.02-0.17,0.01-0.26,0.04c-0.85,0.32-1.28,1.28-0.96,2.14
	c0.62,1.65,1.88,3.03,3.46,3.8c0.23,0.11,0.47,0.16,0.71,0.16c0.62,0,1.2-0.35,1.48-0.95c0.04-0.08,0.04-0.17,0.06-0.26
	c0.24,0.03,0.47,0.07,0.72,0.07h4.12c0,0.92,0.74,1.65,1.64,1.65h69.81c0.91,0,1.64-0.74,1.64-1.65h7.47c0.8,0,1.55-0.19,2.23-0.52
	c0.04,0.08,0.07,0.16,0.13,0.22c0.32,0.35,0.76,0.53,1.2,0.53c0.4,0,0.8-0.15,1.12-0.44c1.16-1.08,1.92-2.54,2.14-4.14
	C178.22,136.7,178.22,135.86,178.21,135.05z M187.47,152.55c0-1.88-1.51-3.41-3.37-3.41c-1.85,0-3.37,1.53-3.37,3.41
	c0,1.87,1.51,3.4,3.37,3.4C185.97,155.95,187.47,154.42,187.47,152.55z M187.47,80.43c0-1.87-1.51-3.4-3.37-3.4
	c-1.85,0-3.37,1.53-3.37,3.4c0,1.88,1.51,3.41,3.37,3.41C185.97,83.83,187.47,82.3,187.47,80.43z M187.47,8.31
	c0-1.88-1.51-3.41-3.37-3.41c-1.85,0-3.37,1.53-3.37,3.41c0,1.87,1.51,3.4,3.37,3.4C185.97,11.71,187.47,10.18,187.47,8.31z"/>
<path class="st3" d="M68.2,161.36h-3.32c-2.09,0-3.79-1.72-3.79-3.83V6.81c0-2.11,1.7-3.83,3.79-3.83h1.24
	c-0.8,1.24-1.19,2.76-1.12,4.35v51.68c0,0.92,0.73,1.65,1.64,1.65v7.71c-0.91,0-1.64,0.74-1.64,1.66v5.98
	c0,0.92,0.73,1.65,1.64,1.65v7.3c-0.91,0-1.64,0.74-1.64,1.65v59.07c0,0.91,0.73,1.65,1.64,1.65v3.76c-0.91,0-1.64,0.74-1.64,1.65
	v2.99c0,0.91,0.73,1.65,1.64,1.65v0.1C66.65,159.02,67.24,160.37,68.2,161.36z"/>
<path class="st4" d="M153.38,76.23c1.17,1.14,1.76,2.77,1.76,4.89s-0.58,3.73-1.76,4.84c-1.17,1.11-2.85,1.67-5.02,1.67h-3.03V74.51
	h2.66C150.41,74.51,152.21,75.09,153.38,76.23z M174.93,38.6v3.57c0,0.92,0.73,1.66,1.64,1.66v5.13c-0.9,0-1.64,0.74-1.64,1.66
	v70.51c0,0.91,0.73,1.65,1.64,1.65v9.37c-0.87,0-1.62,0.71-1.64,1.6c-0.01,0.44-0.01,0.89,0,1.33c0.01,0.74,0.02,1.44-0.05,2.07
	c-0.1,0.78-0.51,1.55-1.1,2.1c-0.6,0.56-0.66,1.46-0.22,2.12c-0.68,0.33-1.43,0.52-2.23,0.52h-7.47c0-0.92-0.73-1.65-1.64-1.65H92.4
	c-0.9,0-1.64,0.74-1.64,1.65h-4.12c-0.24,0-0.48-0.04-0.72-0.07c0.22-0.76-0.11-1.6-0.84-1.95c-0.81-0.39-1.49-1.13-1.81-1.98
	c-0.29-0.77-1.08-1.17-1.85-1.01c-0.01-0.1-0.03-0.19-0.03-0.3v-5.93c0.9,0,1.64-0.74,1.64-1.65V49.59c0-0.92-0.73-1.65-1.64-1.66
	V36.97c0.9,0,1.64-0.74,1.64-1.65v-2.05c-0.01-0.64,0.03-1.09,0.15-1.49c0.26-0.88,0.86-1.65,1.66-2.11
	c0.71-0.41,0.97-1.27,0.69-2.02c0.36-0.08,0.72-0.12,1.11-0.12h10.3c0.01,0.92,0.74,1.65,1.64,1.65h71.24
	c0.26,0.01,0.51,0.01,0.76,0c0.51-0.01,1.01-0.01,1.42,0.07c1.1,0.21,2.1,0.99,2.57,1.99c0.28,0.6,0.87,0.96,1.49,0.96
	c0.15,0,0.3-0.03,0.45-0.07c0.03,0.23,0.06,0.46,0.06,0.7v4.13C175.66,36.95,174.93,37.69,174.93,38.6z M117.02,85.62
	c0-1.93-0.56-3.41-1.68-4.41c-1.12-1.01-2.69-1.76-4.72-2.26c-2.03-0.51-3.32-0.94-3.88-1.31c-0.56-0.37-0.84-0.87-0.84-1.49
	c0-0.63,0.23-1.13,0.69-1.51c0.46-0.38,1.08-0.57,1.88-0.57c1.98,0,3.89,0.71,5.74,2.13l2.41-3.51c-1.06-0.9-2.3-1.6-3.73-2.1
	c-1.42-0.49-2.85-0.74-4.28-0.74c-2.18,0-4,0.56-5.45,1.67c-1.46,1.11-2.18,2.69-2.18,4.74c0,2.05,0.57,3.55,1.73,4.5
	c1.15,0.96,2.96,1.73,5.45,2.33c1.56,0.39,2.62,0.78,3.15,1.15c0.53,0.38,0.79,0.9,0.79,1.55s-0.25,1.16-0.74,1.54
	c-0.5,0.38-1.19,0.57-2.07,0.57c-1.96,0-4.08-1.01-6.38-3.05l-2.84,3.51c2.71,2.53,5.75,3.8,9.13,3.8c2.34,0,4.23-0.6,5.66-1.8
	C116.3,89.12,117.02,87.56,117.02,85.62z M136.51,85.62c0-1.93-0.56-3.41-1.68-4.41c-1.12-1.01-2.69-1.76-4.72-2.26
	c-2.03-0.51-3.32-0.94-3.88-1.31c-0.56-0.37-0.84-0.87-0.84-1.49c0-0.63,0.23-1.13,0.69-1.51c0.46-0.38,1.08-0.57,1.88-0.57
	c1.98,0,3.89,0.71,5.75,2.13l2.41-3.51c-1.06-0.9-2.3-1.6-3.73-2.1c-1.42-0.49-2.85-0.74-4.28-0.74c-2.18,0-4,0.56-5.45,1.67
	c-1.46,1.11-2.19,2.69-2.19,4.74c0,2.05,0.58,3.55,1.73,4.5c1.15,0.96,2.97,1.73,5.46,2.33c1.56,0.39,2.61,0.78,3.14,1.15
	c0.53,0.38,0.8,0.9,0.8,1.55s-0.25,1.16-0.75,1.54c-0.5,0.38-1.19,0.57-2.06,0.57c-1.96,0-4.09-1.01-6.39-3.05l-2.84,3.51
	c2.71,2.53,5.75,3.8,9.13,3.8c2.35,0,4.23-0.6,5.67-1.8C135.79,89.12,136.51,87.56,136.51,85.62z M159.93,81
	c0-3.35-1.02-5.97-3.05-7.86c-2.04-1.88-4.96-2.82-8.77-2.82h-7.55v21.57h7.3c4.07,0,7.1-0.98,9.08-2.93
	C158.94,87,159.93,84.34,159.93,81z"/>
<path class="st5" d="M90.35,2.99h3.28V13.8h-3.28V2.99z M97.33,13.8h3.28V2.99h-3.28V13.8z M104.31,13.8h3.28V2.99h-3.28V13.8z
	 M111.3,13.8h3.28V2.99h-3.28V13.8z M118.27,13.8h3.28V2.99h-3.28V13.8z M128.53,13.8h3.28V2.99h-3.28V13.8z M134.79,13.8h3.28V2.99
	h-3.28V13.8z M141.04,13.8h3.28V2.99h-3.28V13.8z M147.29,2.99V13.8h3.28V2.99H147.29z"/>
</svg>
