<?xml version="1.0" encoding="utf-8"?>
<!-- Generator: Adobe Illustrator 25.4.1, SVG Export Plug-In . SVG Version: 6.00 Build 0)  -->
<svg version="1.1" id="Layer_1" xmlns="http://www.w3.org/2000/svg" xmlns:xlink="http://www.w3.org/1999/xlink" x="0px" y="0px"
	 viewBox="0 0 250 165" style="enable-background:new 0 0 250 165;" xml:space="preserve">
<style type="text/css">
	.st0{clip-path:url(#SVGID_00000080193326493268000680000007505364254492744613_);}
	.st1{fill:#3B3E51;}
	.st2{fill:#FFE84D;}
	.st3{fill:#7887A7;}
	.st4{fill:#F8F4E3;}
	.st5{fill:#5A6694;}
</style>
<g>
	<defs>
		<rect id="SVGID_1_" x="27.57" y="1.17" width="195.75" height="162"/>
	</defs>
	<clipPath id="SVGID_00000051353279320935258210000012542897608892529063_">
		<use xlink:href="#SVGID_1_"  style="overflow:visible;"/>
	</clipPath>
	<g style="clip-path:url(#SVGID_00000051353279320935258210000012542897608892529063_);">
		<path class="st1" d="M218,73.88l-9.36,4.41l0.74,0.87l3.66,4.29c0.22,0.25,0.3,0.59,0.22,0.91c-0.07,0.32-0.29,0.59-0.6,0.72
			l-2.54,1.1l1.48,1.55l3.47-1.45c0.38-0.16,0.81-0.08,1.11,0.21l3.6,3.42c0.25,0.23,0.36,0.58,0.31,0.91
			c-0.05,0.34-0.26,0.63-0.57,0.78l-9.81,4.83c-0.4,0.19-0.88,0.11-1.2-0.21l-3.08-3.15l-0.43,0.18l4.04,4.58
			c0.22,0.25,0.3,0.57,0.25,0.9c-0.06,0.32-0.28,0.59-0.56,0.73l-54.2,26.51c-0.09,0.05-0.19,0.07-0.28,0.09
			c-0.03,0-0.05,0.01-0.08,0.01c-0.03,0.01-0.06,0.01-0.09,0.01c-0.02,0-0.05-0.01-0.07-0.02c-0.09-0.01-0.18-0.02-0.26-0.05
			c-0.04-0.01-0.08-0.02-0.11-0.04c-0.12-0.05-0.22-0.12-0.32-0.22l-2.88-3.14l-1.08-1.18l-1.12-1.22l-0.67,0.26l1,1.28l3.09,3.93
			c0.15,0.18,0.22,0.4,0.22,0.63c0.01,0.08-0.01,0.16-0.02,0.23c-0.06,0.3-0.26,0.56-0.53,0.71l-8.94,4.62
			c-0.1,0.05-0.2,0.08-0.3,0.09c-0.03,0.01-0.06,0.01-0.09,0.01c-0.03,0.01-0.06,0.01-0.09,0.01c-0.02,0-0.05-0.01-0.07-0.01
			c-0.1-0.01-0.19-0.03-0.28-0.06c-0.04-0.01-0.08-0.02-0.11-0.04c-0.12-0.06-0.23-0.13-0.32-0.24l-7.32-8.55l-0.97,0.43l3.83,5.17
			c0.18,0.25,0.25,0.57,0.18,0.87c-0.08,0.3-0.28,0.56-0.56,0.69l-6.82,3.29c-0.15,0.07-0.3,0.1-0.45,0.1c-0.3,0-0.6-0.13-0.81-0.39
			l-4.73-5.91l-11.29,5.1l5.33,6.5c0.23,0.28,0.3,0.65,0.18,0.98l-3.21,9.71c-0.12,0.36-0.43,0.63-0.8,0.7s-0.76-0.08-1-0.39
			l-4.2-5.41l-1.76,0.23l1.37,5.1l4.07,5.41c0.21,0.28,0.26,0.63,0.15,0.96l-2.03,6.15c-0.12,0.36-0.43,0.63-0.81,0.7
			c-0.06,0.01-0.12,0.01-0.18,0.01c-0.32,0-0.62-0.14-0.81-0.4l-18.12-23.36l-4.15,1.72c-0.02,0.01-0.04,0.01-0.06,0.01
			c-0.04,0.02-0.09,0.04-0.13,0.05c-0.06,0.02-0.13,0.02-0.19,0.02c-0.09,0-0.18-0.01-0.26-0.04c-0.02-0.01-0.04-0.02-0.06-0.02
			s-0.05-0.02-0.07-0.03c-0.04-0.01-0.07-0.02-0.11-0.04c-0.03-0.02-0.05-0.04-0.08-0.06c-0.03-0.02-0.06-0.04-0.09-0.06h-0.01
			c0-0.01-0.01-0.01-0.01-0.01c-0.01-0.01-0.01-0.01-0.02-0.02c-0.03-0.02-0.05-0.05-0.08-0.08c-0.02-0.03-0.05-0.05-0.06-0.07
			l-12.87-18.03c-0.15-0.22-0.22-0.49-0.18-0.75l0.56-4.08c0.01-0.05,0.03-0.09,0.04-0.14c0.01-0.02,0-0.04,0.01-0.06
			c0.01-0.01,0.02-0.02,0.02-0.04c0.05-0.12,0.11-0.23,0.2-0.33c0.01-0.01,0.02-0.02,0.04-0.03c0.08-0.08,0.18-0.15,0.28-0.19
			l-4.36-5.61c0-0.01,0-0.01,0-0.01l-4.74-6.11L52.46,90.47l-0.42-0.54L40.06,74.5l-0.01,0.1c0,0.01,0,0.01,0,0.01l-0.04,0.4
			c-0.03,0.4-0.3,0.76-0.69,0.9l-10.39,3.71c-0.33,0.12-0.69,0.06-0.97-0.15c-0.28-0.21-0.43-0.54-0.41-0.9l1.71-28
			c0.02-0.44,0.32-0.81,0.74-0.94l10.96-3.19c0.4-0.12,0.83,0.01,1.08,0.33l3.36,4.1l1.98-0.64l-2.75-3.4l-2.43-0.84
			c-0.23-0.08-0.43-0.24-0.55-0.45l-0.93-1.56c-0.16-0.27-0.19-0.59-0.08-0.88c0.1-0.29,0.33-0.52,0.62-0.63l12.69-4.62
			c0.08-0.03,0.16-0.05,0.25-0.05l7.35-0.74c0.12-0.01,0.23-0.01,0.35,0.02l4.41,1.08l18.06-5.75l3.67-8.23
			c0.12-0.26,0.34-0.46,0.61-0.56l34-11.69c0.42-0.15,0.89,0,1.16,0.36l0.55,0.72L157.5,1.27c0.18-0.06,0.38-0.08,0.56-0.04
			l17.66,3.79c0.19,0.04,0.36,0.13,0.5,0.27l43.89,42.93c0.13,0.13,0.23,0.31,0.28,0.5l2.85,11.89c0.05,0.21,0.04,0.43-0.04,0.62
			l-4.68,12.08C218.43,73.57,218.24,73.77,218,73.88z"/>
	</g>
</g>
<path class="st2" d="M141.39,126.52l2,2.49l-1.21,0.63l-2.13-2.49L141.39,126.52z M143.32,125.62l1.95,2.42l1.17-0.6l-1.89-2.39
	L143.32,125.62z M147.48,123.68l-1,0.46l1.83,2.33l0.96-0.5L147.48,123.68z M187.42,104.03l2.17,2.5l1.28-0.63l-2.16-2.49
	L187.42,104.03z M204.53,95.84l-0.93,0.45l2.06,2.38l0.96-0.47L204.53,95.84z M151.86,121.06l2.48,2.71l1.21-0.59l-2.4-2.73
	L151.86,121.06z M190.66,102.48l2.14,2.47l1.28-0.63l-2.13-2.47L190.66,102.48z M200.36,97.83l2.07,2.4l1.29-0.63l-2.07-2.4
	L200.36,97.83z M197.13,99.38l2.1,2.43l1.28-0.63l-2.09-2.42L197.13,99.38z M193.89,100.93l2.12,2.45l1.28-0.63l-2.11-2.44
	L193.89,100.93z M184.19,105.57l2.19,2.52l1.28-0.63l-2.18-2.51L184.19,105.57z M164.79,114.87l2.32,2.65l1.28-0.63l-2.31-2.65
	L164.79,114.87z M161.55,116.41l2.34,2.68l1.28-0.63l-2.33-2.67L161.55,116.41z M168.02,113.32l2.3,2.63l1.28-0.63l-2.29-2.62
	L168.02,113.32z M158.32,117.96l2.36,2.7l1.28-0.63l-2.36-2.69L158.32,117.96z M155.08,119.51l2.38,2.72l1.28-0.63l-2.38-2.71
	L155.08,119.51z M177.72,108.67l2.23,2.56l1.28-0.63l-2.22-2.55L177.72,108.67z M180.95,107.12l2.21,2.54l1.28-0.63l-2.2-2.53
	L180.95,107.12z M171.26,111.77l2.27,2.61l1.28-0.63l-2.27-2.6L171.26,111.77z M174.49,110.22l2.25,2.58l1.28-0.63l-2.24-2.57
	L174.49,110.22z"/>
<path class="st3" d="M78.78,116.93l11.99,16.55l-1.75,0.73l-0.99,0.41l-0.9,0.38l-12-16.55l0.26-0.11l0.99-0.42L78.78,116.93z
	 M138.23,73.76l1.93-0.69c-0.07-0.53-0.14-1.06-0.21-1.61l-2.23,0.8l0.26,0.98C138.05,73.37,138.14,73.55,138.23,73.76z
	 M137.55,64.56l-1.12,0.4c-0.01,0.54-0.01,1.09,0.04,1.67l2.91-1.04c-0.01-0.12-0.02-0.23-0.03-0.35
	C138.73,65.03,138.13,64.81,137.55,64.56z M103.69,112.97l42.4-19.04l-1.31,13.56l-2.98-0.11c-0.17-0.01-0.3,0.02-0.45,0.08
	l-36.52,15.8l-0.11,0.05l-0.14-0.18l-0.66-0.81l-0.66-0.8l-2.65-3.23l0.01-0.21l0.27-4.25c0.12,0.06,0.26,0.09,0.4,0.09
	s0.28-0.03,0.42-0.09l0.04-0.02L103.69,112.97z M125.01,106.71c0.17,0.39,0.55,0.62,0.95,0.62c0.14,0,0.28-0.02,0.42-0.09
	l14.23-6.29c0.52-0.23,0.76-0.84,0.53-1.37s-0.84-0.77-1.37-0.53l-14.22,6.29C125.01,105.57,124.78,106.19,125.01,106.71z
	 M113.17,110.68c0.01,0.42,0.25,0.79,0.63,0.95l3.8,1.62c0.13,0.06,0.26,0.09,0.4,0.09s0.29-0.03,0.42-0.09l5.04-2.24
	c0.39-0.17,0.63-0.56,0.62-0.99c-0.01-0.42-0.28-0.8-0.68-0.94l-4.12-1.48c-0.25-0.09-0.53-0.08-0.77,0.02l-4.71,2.1
	C113.41,109.88,113.17,110.26,113.17,110.68z M103.8,114.84c0.01,0.42,0.27,0.8,0.66,0.95l3.96,1.54c0.12,0.04,0.25,0.06,0.38,0.06
	c0.14,0,0.29-0.03,0.42-0.09l5.06-2.24c0.38-0.16,0.62-0.54,0.62-0.96c0-0.42-0.25-0.79-0.63-0.96l-3.8-1.62
	c-0.26-0.11-0.56-0.11-0.83,0.01l-5.23,2.33c-0.16,0.07-0.29,0.18-0.39,0.32C103.89,114.37,103.8,114.6,103.8,114.84z M138.72,29.17
	c0.31,0.46,0.6,0.91,0.88,1.36l6.28-2.25c-0.21-0.49-0.43-0.97-0.66-1.44L138.72,29.17z M136.48,26.08c0.35,0.43,0.68,0.87,1,1.31
	l6.74-2.41c-0.28-0.49-0.56-0.95-0.83-1.38L136.48,26.08z M140.7,32.34c0.29,0.5,0.56,0.97,0.79,1.39l5.59-2
	c-0.13-0.52-0.29-1.02-0.46-1.52L140.7,32.34z M139.71,69.34c-0.05-0.54-0.11-1.08-0.16-1.62l-2.79,1l0.42,1.53L139.71,69.34z
	 M218.1,60.6l0.25-1.35c0.11-0.56-0.27-1.11-0.83-1.21c-0.57-0.11-1.1,0.27-1.21,0.84l-0.25,1.36l-16.49,7.41l-0.07,0.03
	c0.01-0.02,0.02-0.05,0.04-0.08c0.33-0.78,0.64-1.58,0.91-2.4c0.18-0.54-0.11-1.14-0.66-1.32c-0.54-0.18-1.12,0.11-1.31,0.66
	c-0.15,0.43-0.31,0.86-0.47,1.28c-0.14,0.37-0.29,0.73-0.44,1.08s-0.3,0.72-0.46,1.06c-0.01,0.02-0.02,0.05-0.03,0.08
	c-0.12,0.25-0.12,0.5-0.05,0.74l-26.3,11.81c-0.52,0.23-0.76,0.85-0.52,1.37c0.17,0.39,0.55,0.62,0.94,0.62
	c0.14,0,0.29-0.03,0.42-0.09L199,70.18l0.98-0.44l0.98-0.45l15.8-7.1l2.81,2.66l-2.84,7.32l-9.5,4.48L206.53,77l-0.26,0.12
	l-0.97,0.46l-6.73,3.17c-0.21,0.1-0.38,0.27-0.49,0.47l-1.03,2.05l-50.13,23.58l1.34-13.9l1.05-0.47c0.52-0.23,0.76-0.85,0.52-1.37
	c-0.23-0.53-0.84-0.76-1.37-0.53l-0.79,0.35c-0.11-0.06-0.23-0.11-0.36-0.12c-8-0.94-15.94-3.15-23.61-6.56
	c-0.52-0.23-1.13,0-1.37,0.53c-0.23,0.53,0.01,1.14,0.53,1.37c6.94,3.09,14.11,5.22,21.35,6.34l-41.09,18.45l-1.91,0.86l-0.33,0.15
	c-0.25,0.11-0.42,0.3-0.52,0.53L52.06,52.7l-0.7-0.87l-0.46-0.56l-0.24-0.3l-0.46-0.56l-0.7-0.87l-2.48-3.06l19.65-6.26l18.78-5.98
	c0.28-0.09,0.51-0.3,0.63-0.57l3.67-8.24l32.87-11.3l0.55,0.73c0.09,0.12,0.21,0.2,0.33,0.27c-6.02,1.61-11.34,4.27-15.45,7.89
	c-3.21,2.83-5.56,6.1-7.01,9.69c-0.16,0.41-0.32,0.83-0.46,1.25c-0.13,0.4-0.26,0.8-0.38,1.21c-0.57,2.06-0.86,4.2-0.86,6.4
	c0,18.49,20.72,36.25,46.19,39.59c2.77,0.36,5.52,0.54,8.21,0.54c0.82,0,1.63-0.02,2.44-0.05c0.01,0.05-0.01,0.11,0.01,0.16
	l1.2,4.22c-0.89-0.04-1.8-0.08-2.78-0.16c-0.58-0.05-1.07,0.38-1.11,0.96c-0.04,0.57,0.38,1.07,0.96,1.12
	c0.84,0.06,1.64,0.11,2.43,0.14c0.19,0.32,0.52,0.51,0.88,0.51c0.14,0,0.28-0.03,0.42-0.09l4.82-2.17c0.52-0.23,0.76-0.85,0.52-1.37
	c-0.23-0.53-0.84-0.76-1.37-0.53l-2.71,1.22l-1.17-4.13c9.96-0.76,18.84-4.06,25.01-9.5c3.69-3.25,6.24-7.1,7.59-11.34
	c0.12-0.39,0.24-0.79,0.35-1.2c0.11-0.42,0.21-0.83,0.29-1.26c0.31-1.54,0.47-3.13,0.47-4.76c0-16.1-15.71-31.64-36.59-37.6
	c-0.52-0.15-1.03-0.28-1.55-0.42c-2.61-0.68-5.3-1.21-8.04-1.58c-6.67-0.88-13.19-0.67-19.13,0.5l31.23-11.04L175,6.99l43.37,42.42
	c-0.23,0.15-0.41,0.39-0.46,0.69l-0.47,2.61c-0.11,0.57,0.27,1.11,0.83,1.21c0.06,0.01,0.12,0.02,0.19,0.02
	c0.4,0,0.76-0.25,0.93-0.61l1.79,7.46l-0.77,1.98L218.1,60.6z M93.19,61.74c0.46-0.35,0.54-1.01,0.19-1.46
	c-0.07-0.09-0.13-0.19-0.2-0.28l5-0.9c0.03,0.16,0.08,0.32,0.19,0.46c0.19,0.25,0.38,0.5,0.56,0.75c0.43,0.58,0.88,1.18,1.38,1.75
	c0.21,0.23,0.49,0.35,0.77,0.35c0.25,0,0.49-0.09,0.69-0.26c0.43-0.39,0.46-1.04,0.08-1.47c-0.44-0.5-0.84-1.04-1.27-1.61
	c-0.19-0.26-0.39-0.52-0.59-0.78c-0.13-0.18-0.31-0.28-0.5-0.33c0-0.05,0.01-0.09,0-0.15c-0.1-0.56-0.64-0.94-1.2-0.84l-7.08,1.27
	c-0.56,0.1-0.94,0.64-0.84,1.21c0.05,0.28,0.21,0.5,0.43,0.66c0.03,0.13,0.08,0.26,0.16,0.37c0.25,0.36,0.5,0.72,0.77,1.07
	c0.2,0.27,0.51,0.4,0.82,0.4C92.78,61.95,93,61.88,93.19,61.74z M113.61,78.81c-7.2-4.66-13.4-10.11-18.41-16.2
	c-0.37-0.44-1.02-0.5-1.46-0.13c-0.44,0.36-0.5,1.02-0.14,1.46c5.15,6.25,11.51,11.84,18.89,16.62c0.17,0.11,0.36,0.16,0.56,0.16
	c0.34,0,0.67-0.17,0.87-0.47C114.23,79.77,114.09,79.12,113.61,78.81z M119.6,82.23c-0.21-0.11-0.41-0.21-0.62-0.32
	c-0.54-0.27-1.05-0.52-1.53-0.83c-0.48-0.3-1.12-0.16-1.42,0.32s-0.16,1.13,0.32,1.44c0.56,0.36,1.15,0.65,1.71,0.93
	c0.2,0.1,0.4,0.2,0.6,0.3c0.15,0.08,0.31,0.12,0.47,0.12c0.38,0,0.74-0.21,0.93-0.56C120.31,83.12,120.11,82.49,119.6,82.23z
	 M150.17,86.45c0.08-0.57-0.32-1.1-0.88-1.18c-8.52-1.21-16.56-3.52-23.92-6.86c-7.86-3.54-14.69-8.3-20.31-14.13
	c-0.4-0.42-1.05-0.42-1.46-0.02c-0.41,0.4-0.42,1.05-0.02,1.47c5.8,6.02,12.85,10.93,20.95,14.58c7.53,3.42,15.76,5.79,24.47,7.02
	c0.05,0.01,0.1,0.01,0.15,0.01C149.65,87.34,150.09,86.97,150.17,86.45z M201.85,71.52l2.24,2.47c0.2,0.22,0.48,0.34,0.76,0.34
	c0.12,0,0.24-0.03,0.35-0.07c0.02-0.01,0.04,0,0.05-0.01l8.99-3.74c0.32-0.13,0.55-0.42,0.62-0.76c0.06-0.34-0.04-0.69-0.29-0.94
	l-2.34-2.34c-0.3-0.3-0.74-0.39-1.12-0.23l-8.88,3.61c-0.19,0.08-0.34,0.22-0.46,0.38c-0.07,0.11-0.13,0.22-0.16,0.35
	C201.53,70.92,201.62,71.27,201.85,71.52z M159.96,89.95c-0.52,0.23-0.76,0.84-0.53,1.37c0.17,0.39,0.55,0.62,0.95,0.62
	c0.14,0,0.28-0.03,0.42-0.09L194,77.27c0.52-0.23,0.76-0.84,0.53-1.37s-0.84-0.77-1.37-0.53L159.96,89.95z M158.72,9.54
	c-1.21-0.38-2.49-0.74-3.79-1.08c-0.55-0.14-1.11,0.19-1.26,0.75c-0.14,0.56,0.19,1.12,0.74,1.27c1.27,0.33,2.5,0.68,3.69,1.05
	c0.1,0.04,0.21,0.05,0.3,0.05c0.44,0,0.85-0.28,0.99-0.73C159.57,10.29,159.27,9.71,158.72,9.54z M200.5,42.91
	c-1.68-4.93-4.59-9.73-8.4-13.85c-3.35-3.7-7.55-7.12-12.48-10.18c-4.26-2.64-9.09-5.02-14.37-7.08c-0.53-0.21-1.14,0.06-1.34,0.59
	c-0.21,0.54,0.06,1.14,0.59,1.35c5.16,2.02,9.88,4.34,14.03,6.91c4.77,2.95,8.82,6.26,12.05,9.81c3.62,3.92,6.38,8.46,7.97,13.12
	c1.64,4.84,2.1,10.1,1.32,15.21c-0.09,0.57,0.3,1.1,0.87,1.18c0.05,0.01,0.11,0.01,0.16,0.01c0.5,0,0.94-0.36,1.03-0.88
	C202.74,53.66,202.25,48.07,200.5,42.91z M61.6,39.13l-7.05,0.71l-11.39,4.15l0.09,0.16l2.03,0.7l17.25-5.5L61.6,39.13z
	 M131.14,35.76c0.64,0.4,1.19,0.77,1.65,1.08l4.77-1.71c-0.38-0.42-0.79-0.83-1.22-1.24L131.14,35.76z M145.82,36
	c0.05,0.01,0.09,0.02,0.13,0.02l1.66-0.6c-0.02-0.54-0.06-1.08-0.14-1.62l-5.02,1.8c0.05,0.09,0.09,0.18,0.12,0.24
	C143.64,35.81,144.72,35.85,145.82,36z M140.76,76.74c-0.1-0.51-0.19-1.04-0.28-1.58l-1.82,0.65c-0.02,0.32-0.08,0.64-0.22,0.94
	c-0.11,0.25-0.29,0.52-0.57,0.77c0.13,0.04,0.26,0.07,0.4,0.1L140.76,76.74z M161.56,32.64l-5.58,2c-0.09,0.63-0.19,1.23-0.3,1.79
	l4.96-1.78C160.99,34,161.3,33.33,161.56,32.64z M154.93,39.4c0.38,0.26,0.74,0.52,1.09,0.79l0.76-0.27
	c0.56-0.6,1.27-1.43,1.99-2.39l-3.67,1.32C155.03,39.05,154.97,39.23,154.93,39.4z M162.21,29.08c-0.01-0.14-0.02-0.33-0.05-0.54
	l-5.89,2.11c0,0.57-0.02,1.14-0.05,1.69l5.95-2.13C162.21,29.83,162.23,29.45,162.21,29.08z M160.64,25.19l-4.75,1.71
	c0.11,0.52,0.2,1.05,0.26,1.58l5.58-2l0.27-0.1c0-0.2,0-0.39,0.01-0.57l-0.77-0.83L160.64,25.19z M122.3,31.16
	c0.73,0.3,1.42,0.61,2.1,0.93l6.77-2.43c-0.53-0.38-1.05-0.75-1.58-1.11L122.3,31.16z M126.98,33.37c0.66,0.35,1.27,0.69,1.85,1.01
	l5.75-2.06c-0.47-0.39-0.94-0.78-1.44-1.17L126.98,33.37z M175.29,40.78c0.13-0.09,0.26-0.19,0.38-0.28l-0.88-0.94l-0.42,0.15
	l-1.04,0.38l-0.47,0.16c-0.49,0.76-1.17,1.58-2.06,2.42l3.63-1.3l0.02-0.01C174.74,41.16,175.03,40.97,175.29,40.78z M189.48,55.36
	c0.01,0.01,0.01,0.02,0.02,0.04h0.01L189.48,55.36z M186.81,52.47l-0.6-0.64c-0.02,0.03-0.03,0.06-0.05,0.09
	c-0.17,0.31-0.39,0.6-0.63,0.86c-0.06,0.07-0.12,0.14-0.19,0.21l0.28-0.1l1.05-0.38L186.81,52.47z M132.75,39.47
	c-0.15-0.08-0.3-0.15-0.46-0.23l-7.48,2.68c1.05,0.16,2.09,0.35,3.09,0.57l3.4-1.22C131.69,40.63,132.18,40.04,132.75,39.47z
	 M155.57,19.24l-3.46,1.24c0.42,0.39,0.82,0.8,1.2,1.25l3.36-1.2l0.33-0.12l-1.17-1.25L155.57,19.24z M158.11,22.22l-3.54,1.27
	c0.11,0.19,0.22,0.36,0.32,0.55c0.15,0.28,0.28,0.57,0.4,0.87l3.92-1.4l0.5-0.18l-1.17-1.26L158.11,22.22z M127.04,45.01
	l-22.72,8.14c0.23,0.47,0.48,0.94,0.74,1.41l24.7-8.85c0.06-0.2,0.12-0.39,0.17-0.57C129.59,45.12,128.54,45.04,127.04,45.01z
	 M120.32,45.2c-4.35,0.36-9.3,1.28-12.87,3.42c-0.15,0.1-1.49,0.94-3.03,0.94c-0.24,0-0.48-0.03-0.72-0.08l-0.81,0.29
	c0.18,0.49,0.36,0.98,0.56,1.48L120.32,45.2z M120.03,60.85l9.27-3.32c-0.26-0.47-0.49-0.95-0.67-1.44l-6.91,2.47
	C121.12,59.27,120.56,60.03,120.03,60.85z M128.83,48.94c0.07-0.25,0.14-0.51,0.21-0.76l-22.89,8.2c0.2,0.31,0.4,0.62,0.61,0.93
	c1.49-0.79,4.01-1.88,8.24-3.51c5.48-2.12,11.27-4.12,13.69-4.83C128.74,48.94,128.79,48.94,128.83,48.94z M121.95,70.14l-0.86,0.31
	c0.19,0.12,0.39,0.23,0.58,0.34C121.75,70.57,121.85,70.36,121.95,70.14z M125.53,54.99l2.56-0.91c-0.04-0.25-0.05-0.49-0.06-0.74
	C127.24,53.8,126.4,54.34,125.53,54.99z M129.58,38c-0.7-0.3-1.42-0.6-2.19-0.89l-11.01,3.94c1.27,0.07,2.57,0.17,3.86,0.29
	L129.58,38z M101.65,38.56c-0.08,0.57-0.14,1.15-0.18,1.73l16.61-5.94c-1-0.22-2.02-0.41-3.06-0.58L101.65,38.56z M128.13,61.68
	c0.59-0.77,1.15-1.48,1.68-2.12l-11.21,4.02c-0.22,0.5-0.43,1.01-0.61,1.55c-0.06,0.18-0.17,0.33-0.31,0.45l10.29-3.69
	C128.01,61.83,128.07,61.76,128.13,61.68z M106.07,40.86c1.39-0.02,2.98-0.04,4.7-0.01l13.51-4.84c-0.81-0.27-1.66-0.52-2.54-0.77
	L106.07,40.86z M125.49,64.99l-8.17,2.93c0.52,0.38,1.04,0.74,1.58,1.11l4.79-1.71C124.23,66.57,124.83,65.8,125.49,64.99z"/>
<path class="st4" d="M189.91,52.77l-0.51-0.54c0,0,0-0.01-0.01-0.01l-2.71-2.91l-0.07-0.08c-0.29-3.09-1.86-10.62-5.06-11.96
	c-1-0.42-2.05-0.21-2.96,0.61c-0.04,0.04-0.08,0.08-0.11,0.12c-0.02,0.02-0.42,0.48-1.2,1.19l-1.43-1.54c-0.01,0-0.01,0-0.01,0
	l-1.69-1.82c-0.01-1.38-0.39-3.01-1.47-4.79c-2.32-3.79-6.03-7.2-8.44-7.76c-0.53-0.12-1.05-0.01-1.45,0.33l-4.25-4.56
	C176.41,25.29,189.49,38.77,189.91,52.77z M106.26,128.44l9.3,11.37l-2.41,7.32l-3.38-4.35c-0.22-0.29-0.58-0.43-0.95-0.39
	l-3.52,0.46c-0.3,0.04-0.56,0.21-0.73,0.45c-0.17,0.25-0.22,0.56-0.14,0.85l1.73,6.45c0.04,0.13,0.09,0.25,0.17,0.36l3.86,5.14
	l-1.25,3.78l-16.68-21.49c0.08-0.11,0.15-0.23,0.18-0.37l0.94-3.83c0.02-0.09,0.03-0.18,0.03-0.26c0-0.03-0.01-0.05-0.01-0.08
	c-0.01-0.06-0.02-0.12-0.04-0.18c-0.01-0.03-0.01-0.06-0.02-0.08c-0.02-0.06-0.05-0.12-0.08-0.17c-0.01-0.02-0.02-0.05-0.04-0.07
	c-0.01-0.01-0.01-0.01-0.02-0.02l-13.25-18.28c-0.28-0.39-0.79-0.53-1.24-0.35l-3.67,1.53l-4.38-5.64l1.06-3.63
	c0.09-0.31,0.03-0.65-0.16-0.91l-8.6-11.58c-0.23-0.32-0.62-0.47-1.01-0.4c-0.38,0.07-0.7,0.35-0.81,0.73l-0.76,2.54l-6.02-7.76
	l0.83-4.21c0.06-0.29-0.02-0.6-0.21-0.84l-8.5-10.86c-0.25-0.32-0.67-0.46-1.07-0.36c-0.4,0.11-0.7,0.43-0.76,0.84l-0.39,2.43
	l-3.96-5.11l1.1-13.29l0.12-1.37c0.01-0.05-0.02-0.1-0.02-0.15c-0.03-0.44-0.33-0.8-0.75-0.91c-0.06-0.02-0.12-0.05-0.18-0.05
	c-0.35-0.04-0.66,0.13-0.87,0.39c-0.13,0.16-0.22,0.34-0.24,0.56l-1.25,14.98c-0.01,0.03-0.02,0.05-0.02,0.08l-0.2,2.51l-8.29,2.96
	l1.57-25.7l9.6-2.8l3.6,4.39l1.41,1.72l52.61,64.24l0.96,1.18l0.97,1.18l1.32,1.62l0.66,0.8l0.34,0.42l0.32,0.39l0.36,0.45
	l0.19,0.23c0,0,0.01,0,0.01,0.01l0.49,0.6L106.26,128.44z M39.78,52.91c-0.05,0.57,0.38,1.08,0.94,1.12c0.04,0,0.06,0,0.09,0
	c0.53,0,0.99-0.41,1.03-0.95l0.05-0.54c0.05-0.57-0.38-1.08-0.94-1.12c-0.57-0.05-1.07,0.38-1.12,0.95L39.78,52.91z M47.65,65.76
	l0.29-2.92l0.22-2.26c0.06-0.57-0.36-1.08-0.93-1.14c-0.56-0.06-1.08,0.36-1.13,0.93l-0.02,0.2l-0.14,1.46l-0.15,1.46l-0.33,3.33
	c-0.05,0.57,0.36,1.08,0.93,1.14c0.04,0.01,0.07,0.01,0.1,0.01c0.53,0,0.98-0.4,1.03-0.94L47.65,65.76z M50.3,68.99l0.17-1.43
	l0.18-1.43l0.25-2.07c0.07-0.57-0.33-1.09-0.9-1.15c-0.57-0.08-1.08,0.33-1.15,0.91l-0.02,0.1l-0.34,2.86l-0.43,3.57
	c-0.06,0.57,0.34,1.09,0.91,1.16c0.04,0.01,0.08,0.01,0.12,0.01c0.52,0,0.96-0.39,1.03-0.91L50.3,68.99z M52.95,72.23l0.19-1.4
	l0.2-1.39l0.26-1.9c0.08-0.57-0.31-1.1-0.88-1.18c-0.56-0.08-1.09,0.32-1.17,0.88v0.01l-0.19,1.4l-0.2,1.39l-0.54,3.81
	c-0.08,0.57,0.32,1.1,0.88,1.18c0.05,0.01,0.09,0.01,0.15,0.01c0.5,0,0.95-0.38,1.02-0.89L52.95,72.23z M55.61,75.47l0.22-1.37
	l0.22-1.37L56.32,71c0.09-0.57-0.29-1.1-0.86-1.2c-0.54-0.09-1.04,0.27-1.17,0.8c0,0.02-0.02,0.04-0.02,0.06l-0.21,1.29l-0.22,1.37
	l-0.64,4.04c-0.09,0.57,0.29,1.1,0.86,1.2c0.05,0.01,0.11,0.01,0.16,0.01c0.5,0,0.94-0.36,1.02-0.87L55.61,75.47z M58.28,78.74
	l0.25-1.34l0.24-1.34l0.28-1.58c0.11-0.57-0.27-1.11-0.83-1.21c-0.52-0.09-1,0.22-1.15,0.71c-0.01,0.05-0.04,0.08-0.05,0.13
	l-0.22,1.18l-0.24,1.34l-0.77,4.27c-0.11,0.57,0.27,1.11,0.83,1.21c0.06,0.01,0.12,0.01,0.19,0.01c0.49,0,0.93-0.35,1.01-0.86
	L58.28,78.74z M85.98,112.59l0.26-1.32l0.26-1.32l0.35-1.72c0.11-0.56-0.25-1.11-0.81-1.22c-0.56-0.11-1.1,0.25-1.22,0.81
	l-0.01,0.06l-0.53,2.64l-0.84,4.21c-0.11,0.56,0.25,1.11,0.81,1.22c0.07,0.01,0.14,0.02,0.21,0.02c0.49,0,0.92-0.34,1.01-0.83
	L85.98,112.59z M88.69,115.88l0.55-2.6l0.33-1.59c0.12-0.56-0.23-1.12-0.8-1.24c-0.54-0.12-1.08,0.23-1.22,0.77
	c0,0.01-0.01,0.02-0.01,0.03l-0.26,1.27l-0.28,1.3l-0.93,4.38c-0.12,0.56,0.24,1.11,0.8,1.23c0.07,0.02,0.14,0.02,0.22,0.02
	c0.47,0,0.91-0.33,1.01-0.83L88.69,115.88z M90.72,122.14l0.66-2.95l0.57-2.57l0.33-1.46c0.13-0.56-0.22-1.12-0.78-1.24
	c-0.53-0.12-1.03,0.19-1.2,0.69c-0.01,0.04-0.04,0.06-0.05,0.1l-0.26,1.17l-0.29,1.28l-1.02,4.53c-0.12,0.56,0.22,1.12,0.79,1.24
	c0.08,0.02,0.15,0.03,0.23,0.03C90.19,122.95,90.61,122.62,90.72,122.14z M94.09,122.49l0.6-2.54l0.32-1.33
	c0.13-0.56-0.21-1.12-0.77-1.25c-0.5-0.12-0.97,0.15-1.17,0.6c-0.03,0.06-0.06,0.11-0.08,0.17l-0.25,1.07l-0.3,1.27l-1.11,4.69
	c-0.13,0.56,0.21,1.12,0.77,1.25c0.08,0.02,0.16,0.03,0.24,0.03c0.47,0,0.89-0.32,1.01-0.8L94.09,122.49z M96.8,125.8l0.32-1.26
	l0.31-1.25l0.3-1.2c0.14-0.56-0.2-1.12-0.75-1.27c-0.47-0.12-0.92,0.11-1.14,0.52c-0.05,0.08-0.09,0.15-0.12,0.24l-0.24,0.97
	l-0.31,1.25l-1.21,4.83c-0.13,0.56,0.2,1.12,0.76,1.27c0.08,0.02,0.17,0.03,0.25,0.03c0.46,0,0.88-0.32,1-0.79L96.8,125.8z
	 M116.81,110.65l1.2,0.51l2.26-1l-1.29-0.47L116.81,110.65z M111.26,114.13l-1.18-0.51l-2.53,1.13l1.24,0.48L111.26,114.13z
	 M211.25,68.43l-6.87,2.79l0.75,0.83l6.88-2.87L211.25,68.43z"/>
<path class="st5" d="M142.64,19.11c-0.32-0.34-0.49-0.59-0.59-0.75c0.56-0.09,1.37-0.03,2.3,0.21c0.53,0.13,1.09,0.31,1.68,0.54
	c0.46,0.18,0.93,0.39,1.41,0.63c0.08,0.04,0.15,0.09,0.23,0.13c0.39,0.21,0.77,0.44,1.16,0.69c0.35,0.23,0.7,0.47,1.03,0.74
	c0.47,0.36,0.91,0.77,1.34,1.2c0.51,0.53,0.98,1.1,1.38,1.72c0.17,0.26,0.33,0.53,0.48,0.81c0.1,0.19,0.18,0.39,0.27,0.59
	c0.26,0.62,0.46,1.29,0.6,2c0.1,0.52,0.16,1.05,0.2,1.6c0.02,0.21,0.04,0.42,0.04,0.63c-0.01,0.57-0.05,1.1-0.1,1.6
	c-0.07,0.67-0.18,1.27-0.32,1.79c-0.3,1.11-0.75,1.9-1.35,2.29c-0.64,0.42-1.55,0.43-2.68,0.05c-0.01-0.29-0.04-0.58-0.06-0.87
	c-0.04-0.54-0.1-1.08-0.19-1.61c-0.11-0.69-0.25-1.38-0.43-2.05c-0.13-0.52-0.29-1.02-0.46-1.52c-0.22-0.66-0.47-1.31-0.74-1.94
	c-0.21-0.5-0.43-0.98-0.66-1.45c-0.31-0.65-0.64-1.27-0.97-1.86c-0.28-0.49-0.54-0.95-0.82-1.39c-0.19-0.31-0.39-0.61-0.57-0.9
	c-0.21-0.32-0.41-0.61-0.61-0.88c-0.06-0.08-0.12-0.18-0.18-0.25c-0.24-0.33-0.46-0.62-0.67-0.88c-0.28-0.36-0.53-0.65-0.72-0.86
	C142.64,19.11,142.64,19.11,142.64,19.11z M160.29,42.54c0.86,0.63,1.83,1.06,3.01,1.06h0.01c0.07,0,0.14-0.01,0.22-0.01
	c1.93-0.08,4.01-1.19,4.97-1.78c0.25-0.15,0.42-0.26,0.5-0.32c1.27-1.13,2.07-2.18,2.45-2.92c0.01-0.01,0.01-0.02,0.02-0.03
	c0.06-0.13,0.13-0.27,0.19-0.43c0.13-0.33,0.26-0.74,0.34-1.2c0.01-0.08,0.02-0.16,0.04-0.25c0.01-0.02,0.01-0.04,0.01-0.06
	c0.04-0.38,0.05-0.77,0.01-1.21c-0.01-0.11-0.02-0.22-0.04-0.34c-0.02-0.18-0.06-0.37-0.11-0.56c-0.13-0.57-0.34-1.17-0.67-1.8
	c-0.09-0.19-0.21-0.38-0.32-0.57c-1.8-2.94-4.41-5.44-6.18-6.42c-0.23-0.12-0.44-0.23-0.63-0.3c-0.01,0.08-0.02,0.18-0.03,0.28
	s-0.01,0.22-0.01,0.35c0,0.15,0,0.32,0.01,0.48c0.02,0.43,0.05,0.88,0.08,1.22c0.01,0.04,0.01,0.06,0.01,0.09
	c0.01,0.12,0.02,0.23,0.04,0.32c0,0.01,0,0.02,0,0.03c0.04,0.32,0.06,0.6,0.07,0.81c0.01,0.16-0.01,0.32-0.01,0.47
	c0,0.01,0,0.01,0,0.01c-0.01,0.77-0.11,1.55-0.29,2.31c-0.15,0.64-0.36,1.27-0.6,1.89c-0.37,0.93-0.83,1.83-1.32,2.68
	c-0.46,0.79-0.96,1.52-1.45,2.2c-0.7,0.96-1.41,1.79-1.99,2.44c0.11,0.12,0.22,0.24,0.34,0.36
	C159.37,41.78,159.81,42.19,160.29,42.54z M175.04,56.69c-1.55,0.01-3-0.04-4.34-0.13c-0.71-0.05-1.39-0.11-2.04-0.18h-0.01
	c-0.93-0.11-1.8-0.22-2.6-0.36c-1.11-0.19-2.1-0.4-2.95-0.62c-0.89-0.22-1.65-0.45-2.27-0.66c-0.07,0.12-0.15,0.25-0.22,0.38
	c-0.24,0.43-0.47,0.91-0.59,1.38c-0.01,0.04-0.03,0.09-0.04,0.13c0,0,0,0,0,0.01c-0.08,0.37-0.04,0.87,0.21,1.48
	c0.21,0.53,0.57,1.14,1.13,1.8c0.33,0.39,0.73,0.81,1.21,1.24c0.54,0.49,1.18,1,1.93,1.52c0.34,0.23,0.71,0.47,1.1,0.71
	c0.23,0.11,0.47,0.21,0.7,0.32c0.96,0.42,1.91,0.81,2.85,1.19c0.77,0.3,1.53,0.59,2.27,0.86c1.11,0.41,2.18,0.77,3.16,1.08
	c0.96,0.3,1.83,0.55,2.59,0.74c0.85,0.22,1.55,0.36,2.05,0.42c0.17,0.02,0.33,0.04,0.49,0.07c0.7,0.07,1.33,0.12,1.88,0.14
	c1.12,0.05,1.89,0.01,2.14-0.08c0.25-0.11,0.53-0.47,0.84-0.99c0.39-0.65,0.8-1.57,1.21-2.64c0.22-0.6,0.45-1.25,0.66-1.91
	c0.25-0.8,0.47-1.63,0.67-2.45c0.15-0.62,0.28-1.22,0.38-1.81c0.06-0.4,0.13-0.79,0.17-1.16c0.01-0.12,0.02-0.23,0.02-0.34
	c0.01-0.3-0.02-0.56-0.08-0.75c-0.05-0.15-0.11-0.27-0.19-0.34c-0.19-0.16-0.52-0.2-0.82-0.19c-0.22,0.01-0.44,0.04-0.57,0.08
	c-0.04,0.01-0.08,0.02-0.11,0.02c-1.08,0.19-2.12,0.34-3.13,0.47C179.92,56.51,177.36,56.67,175.04,56.69z M163.42,76.39
	c0.42,0.26,0.84,0.53,1.29,0.77c0.01,0,0.5,0.25,1.28,0.52c0.3,0.11,0.65,0.21,1.03,0.3c3.71-0.96,7.13-2.34,10.14-4.11
	c0.13-0.12,0.26-0.23,0.39-0.34c1.34-1.15,2.26-2.04,2.28-2.06c0.28-0.32,0.52-0.84,0.46-0.98c-0.01-0.02-0.05-0.06-0.12-0.11
	c-0.12-0.06-0.33-0.15-0.66-0.22c-0.16-0.04-0.33-0.06-0.55-0.09c-0.43-0.05-1.01-0.16-1.71-0.32c-0.96-0.23-2.13-0.56-3.46-0.97
	c-0.42-0.13-0.86-0.28-1.3-0.43c-0.36-0.12-0.74-0.25-1.12-0.38c-0.97-0.35-1.98-0.72-3.01-1.13c-0.73-0.28-1.45-0.58-2.19-0.9
	c-0.91-0.39-1.83-0.8-2.73-1.23c-0.67-0.32-1.32-0.64-1.96-0.97c-0.84-0.43-1.65-0.88-2.43-1.34c-0.53-0.32-1.04-0.63-1.53-0.96
	c-0.05-0.04-0.1-0.06-0.15-0.1c-0.01-0.01-0.02-0.01-0.02-0.02c-0.02-0.01-0.04-0.02-0.06-0.04c-0.21-0.14-0.42-0.28-0.62-0.43
	c-0.28-0.2-0.56-0.4-0.83-0.61c-0.17-0.13-0.34-0.27-0.5-0.4c-0.22-0.19-0.44-0.38-0.64-0.56c-0.52,0.16-1.32,0.45-1.92,0.84
	c-0.3,0.21-0.47,0.53-0.57,0.84c-0.04,0.13-0.08,0.27-0.1,0.39c-0.07,0.45-0.05,1.04,0.08,1.72c0.01,0.04,0.01,0.06,0.02,0.1
	c0.06,0.29,0.14,0.6,0.24,0.92c0.06,0.19,0.13,0.39,0.21,0.59c0.05,0.12,0.09,0.25,0.15,0.38c0.21,0.48,0.45,0.98,0.75,1.52
	c0.25,0.44,0.54,0.9,0.87,1.37c0.15,0.21,0.3,0.42,0.46,0.63c0.29,0.36,0.6,0.73,0.9,1.08c0.37,0.43,0.74,0.85,1.14,1.27
	c0.52,0.55,1.05,1.1,1.61,1.63c0.43,0.4,0.88,0.8,1.34,1.2c0.62,0.53,1.26,1.03,1.93,1.52C162.32,75.68,162.86,76.05,163.42,76.39z
	 M163.23,49.26c0,0.85,0.06,1.66,0.24,2.07c0.01,0.01,0.02,0.02,0.03,0.04c0.17,0.33,0.76,0.71,1.69,1.07
	c0.91,0.35,2.16,0.67,3.65,0.9c1.12,0.18,2.37,0.29,3.75,0.33c2.44,0.06,5.22-0.12,8.21-0.73c0.5-0.1,1-0.22,1.51-0.34
	c0.32-0.16,0.62-0.33,0.88-0.52c0.08-0.05,0.16-0.11,0.23-0.17c0.29-0.22,0.54-0.47,0.74-0.74c0.24-0.33,0.38-0.7,0.41-1.11v-0.01
	c0.01-0.08,0.02-0.16,0.02-0.24c-0.01-0.14-0.02-0.29-0.04-0.43c-0.03-0.32-0.06-0.64-0.11-0.98c-0.06-0.4-0.12-0.83-0.21-1.25
	c-0.03-0.16-0.06-0.33-0.09-0.49c-0.01-0.04-0.02-0.09-0.02-0.13c-0.71-3.39-2.1-6.83-3.36-7.35c-0.12-0.05-0.33-0.14-0.75,0.21
	c-0.16,0.18-0.6,0.67-1.31,1.32c-0.01,0.01-0.02,0.02-0.03,0.03c-0.22,0.21-0.47,0.42-0.75,0.65c-0.14,0.12-0.29,0.23-0.44,0.36
	c-0.12,0.09-0.25,0.19-0.38,0.29c-0.15,0.11-0.29,0.22-0.45,0.33c-0.27,0.2-0.54,0.4-0.85,0.6c-0.1,0.07-0.22,0.14-0.32,0.21
	c-2.76,1.82-6.79,3.81-12.21,4.83C163.25,48.42,163.23,48.84,163.23,49.26z M160.6,77.01c-0.09-0.06-0.17-0.13-0.26-0.19
	c-0.02-0.02-0.05-0.04-0.08-0.06c-0.06-0.04-0.4-0.23-0.93-0.59c-0.52-0.34-1.23-0.83-2.06-1.47c-0.45-0.35-0.93-0.73-1.44-1.16
	c-0.56-0.48-1.15-1.01-1.75-1.58c-0.4-0.39-0.81-0.8-1.23-1.24c-0.5-0.53-1-1.08-1.49-1.68c-0.35-0.42-0.7-0.86-1.04-1.31
	c-0.39-0.52-0.78-1.07-1.15-1.63c-0.03-0.05-0.06-0.09-0.09-0.13c-0.18-0.26-0.35-0.53-0.51-0.81c-0.12-0.19-0.23-0.38-0.33-0.56
	c-0.08-0.14-0.16-0.28-0.25-0.43c-0.26-0.46-0.5-0.94-0.74-1.43c-0.23-0.47-0.45-0.95-0.65-1.44c-0.26-0.63-0.5-1.28-0.71-1.96
	c-0.02-0.05-0.04-0.11-0.06-0.16l-0.94-0.29c-0.53-0.08-1.05-0.19-1.56-0.31c-0.8-0.19-1.59-0.42-2.35-0.69
	c0.02,0.43,0.04,0.94,0.07,1.51c0.03,0.5,0.06,1.05,0.09,1.65c0.04,0.67,0.08,1.39,0.13,2.16c0.01,0.15,0.02,0.29,0.03,0.44
	c0.03,0.35,0.05,0.71,0.08,1.08c0,0.04,0.01,0.08,0.01,0.11c0.03,0.32,0.05,0.65,0.08,0.98c0.03,0.39,0.06,0.77,0.1,1.17
	c0.05,0.54,0.09,1.08,0.15,1.62c0.07,0.71,0.15,1.42,0.23,2.13c0.06,0.54,0.13,1.08,0.2,1.61c0.09,0.72,0.19,1.42,0.3,2.1
	c0.09,0.54,0.18,1.07,0.28,1.58c0.13,0.73,0.28,1.42,0.44,2.05c0.05,0.22,0.11,0.42,0.16,0.62c0.64,0.11,1.29,0.21,1.95,0.3
	c0.18,0.03,0.36,0.06,0.54,0.08c1.44,0.19,2.87,0.32,4.28,0.4c1.47,0.09,2.93,0.13,4.37,0.11c1.19-0.01,2.37-0.06,3.53-0.15
	c1.54-0.49,2.77-0.96,3.33-1.31c0.14-0.08,0.18-0.14,0.18-0.14c-0.02-0.12-0.26-0.42-0.58-0.71C160.82,77.2,160.71,77.1,160.6,77.01
	z M134.48,62.89c0.05-0.38,0.11-0.76,0.16-1.11c0.01-0.02,0.01-0.05,0.01-0.06c0.06-0.36,0.13-0.7,0.21-1.03
	c0.11-0.49,0.23-0.96,0.37-1.39c0.22-0.73,0.47-1.37,0.71-1.93c0.11-0.26,0.22-0.5,0.32-0.71h-1.14c-0.28,0.29-0.77,0.8-1.41,1.51
	c-0.23,0.26-0.49,0.55-0.76,0.87c-0.21,0.25-0.43,0.5-0.67,0.79c-0.21,0.25-0.42,0.49-0.64,0.76c0,0.01-0.01,0.01-0.01,0.02
	c-0.57,0.7-1.2,1.49-1.87,2.36c-0.19,0.25-0.37,0.47-0.55,0.7c-0.57,0.73-1.13,1.43-1.66,2.09c-0.08,0.09-0.15,0.18-0.22,0.26
	c-0.88,1.1-1.69,2.1-2.35,3.05c-0.51,0.74-0.93,1.44-1.22,2.12c-0.1,0.23-0.18,0.45-0.25,0.67c0.6,0.33,1.21,0.66,1.83,0.97
	c0.66,0.33,1.32,0.65,2,0.96c0.91,0.42,1.85,0.83,2.79,1.21c0.75,0.3,1.51,0.59,2.27,0.87c0.23,0.08,0.46,0.16,0.7,0.24
	c1.35,0.11,2.47,0.12,3.05,0.01c0.12-0.02,0.35-0.08,0.4-0.2c0.12-0.26-0.05-0.91-0.29-1.44c-0.05-0.11-0.09-0.2-0.15-0.29
	c-0.05-0.08-0.08-0.17-0.11-0.26l-0.26-0.95l-0.54-2.02l-0.42-1.53l-0.2-0.74c-0.01-0.04-0.02-0.08-0.02-0.12
	c-0.06-0.42-0.11-0.82-0.15-1.22c-0.05-0.56-0.08-1.11-0.09-1.64c-0.01-0.79,0.02-1.53,0.08-2.24
	C134.44,63.27,134.46,63.08,134.48,62.89z M136.09,39.55c1.09-0.62,2.36-1.06,3.73-1.34c1.03-0.21,2.12-0.32,3.25-0.32
	c0.81,0,1.64,0.05,2.48,0.16c0.2,0.03,0.39,0.07,0.59,0.1c0.69,0.11,1.38,0.25,2.04,0.43c0.26,0.08,0.53,0.16,0.79,0.24
	c1.02,0.32,2,0.71,2.91,1.17c0.57,0.28,1.11,0.59,1.62,0.92c0.06,0.04,0.12,0.08,0.17,0.11c0.69,0.45,1.32,0.93,1.9,1.44
	c0.02,0.02,0.05,0.04,0.07,0.06c0.44,0.4,0.86,0.81,1.22,1.24c0.49,0.57,0.9,1.15,1.24,1.76c0.27,0.47,0.47,0.96,0.65,1.45
	c0.06,0.18,0.13,0.35,0.18,0.53c0.04,0.11,0.05,0.23,0.08,0.34c0.09,0.39,0.15,0.79,0.16,1.19c0.01,0.13,0.03,0.26,0.03,0.39
	c0,0.45-0.05,0.9-0.14,1.32c-0.02,0.1-0.05,0.2-0.08,0.3c-0.09,0.33-0.21,0.67-0.35,0.98c-0.07,0.15-0.15,0.3-0.23,0.45
	c-0.09,0.16-0.19,0.33-0.3,0.49c-0.04,0.05-0.07,0.11-0.11,0.16c-0.07,0.1-0.15,0.21-0.23,0.3c-0.26,0.32-0.55,0.63-0.88,0.93
	c-0.81,0.71-1.8,1.28-2.9,1.73h-0.01c-0.35,0.15-0.72,0.28-1.1,0.39l-5.36,0.63l-0.07,0.01c-0.53-0.02-1.07-0.07-1.62-0.15
	c-0.15-0.02-0.29-0.05-0.44-0.07c-0.74-0.12-1.48-0.26-2.19-0.46c-0.83-0.22-1.63-0.5-2.4-0.81c-0.28-0.11-0.54-0.23-0.8-0.35
	c-0.62-0.29-1.21-0.59-1.78-0.93c-0.57-0.34-1.1-0.71-1.6-1.11c-0.64-0.49-1.22-1.03-1.75-1.58c-0.39-0.42-0.75-0.85-1.07-1.29
	c-0.42-0.59-0.76-1.21-1.03-1.84c-0.21-0.5-0.35-1-0.45-1.52c-0.08-0.4-0.13-0.81-0.15-1.22c0-0.06-0.01-0.12-0.01-0.18
	c0-0.26,0.02-0.52,0.05-0.77c0.01-0.04,0.02-0.08,0.02-0.12c0.05-0.35,0.13-0.69,0.23-1.01c0.08-0.25,0.17-0.5,0.28-0.74
	c0.39-0.84,0.98-1.61,1.75-2.29C134.97,40.25,135.51,39.88,136.09,39.55z M147.77,54.85c0.02,0.57,0.47,1.01,1.04,1.01
	c0.01,0,0.02,0,0.02,0c2-0.05,3.91-0.5,5.53-1.32c0.99-0.52,1.8-1.15,2.39-1.87c0.02-0.02,0.04-0.05,0.05-0.08
	c0.23-0.29,0.42-0.6,0.59-0.92c0.06-0.13,0.13-0.26,0.19-0.4c0.08-0.19,0.13-0.38,0.19-0.57c0.09-0.35,0.17-0.7,0.19-1.06
	c0-0.06-0.01-0.12-0.01-0.18c0.01-0.67-0.12-1.37-0.38-2.07c-0.09-0.26-0.21-0.53-0.34-0.79c-0.11-0.22-0.22-0.43-0.35-0.64
	c-0.35-0.59-0.8-1.16-1.33-1.73c-0.01-0.01-0.02-0.02-0.02-0.03c-0.39-0.42-0.83-0.81-1.28-1.18c-0.64-0.53-1.34-1.02-2.1-1.45
	c-0.39-0.22-0.79-0.44-1.2-0.63c-0.52-0.25-1.13-0.03-1.38,0.49c-0.16,0.35-0.11,0.73,0.09,1.03c0.1,0.15,0.23,0.28,0.4,0.36
	c0.66,0.31,1.27,0.67,1.83,1.05c0.53,0.35,1.03,0.73,1.48,1.14c0.22,0.21,0.45,0.41,0.65,0.63c0.33,0.35,0.61,0.7,0.85,1.05
	c0.19,0.28,0.36,0.56,0.5,0.84c0.1,0.19,0.18,0.39,0.25,0.57c0.19,0.51,0.28,1,0.26,1.45c-0.01,0.21-0.05,0.4-0.11,0.6
	c-0.01,0.04-0.02,0.07-0.03,0.11c-0.09,0.29-0.24,0.58-0.42,0.85c-0.06,0.08-0.11,0.16-0.17,0.23c-0.18,0.22-0.4,0.43-0.63,0.62
	c-0.32,0.26-0.69,0.5-1.1,0.72c-1.34,0.67-2.95,1.05-4.65,1.1c-0.55,0.02-0.98,0.46-1,1.01C147.78,54.82,147.77,54.84,147.77,54.85z
	 M144.71,40.24c-0.01,0.04,0.01,0.07,0.01,0.11c-0.03,0.52,0.32,1,0.85,1.08l0.63,0.11c0.06,0.01,0.12,0.02,0.17,0.02
	c0.5,0,0.94-0.36,1.03-0.87c0.08-0.47-0.18-0.9-0.57-1.1c-0.09-0.04-0.18-0.09-0.28-0.11l-0.63-0.11
	C145.34,39.29,144.81,39.67,144.71,40.24z M143.98,54.34c-0.01,0.05,0.01,0.09,0.01,0.14c-0.01,0.51,0.33,0.97,0.85,1.05l0.6,0.11
	h0.03c0.06,0.01,0.12,0.02,0.18,0.02c0.3,0,0.57-0.15,0.77-0.37c0.12-0.14,0.22-0.3,0.25-0.5c0.07-0.45-0.16-0.87-0.53-1.08
	c-0.1-0.05-0.21-0.1-0.32-0.12l-0.63-0.11C144.61,53.38,144.08,53.77,143.98,54.34z M137.01,40.48c-0.94,0.49-1.72,1.09-2.3,1.78
	c-0.02,0.04-0.06,0.06-0.08,0.09c-0.42,0.51-0.73,1.08-0.93,1.69c-0.04,0.1-0.06,0.19-0.09,0.29c-0.06,0.24-0.11,0.48-0.13,0.72
	c-0.02,0.11-0.04,0.22-0.05,0.33c-0.01,0.25,0,0.5,0.02,0.75c0.02,0.15,0.05,0.29,0.08,0.44c0.09,0.5,0.25,1,0.47,1.51
	c0.05,0.11,0.09,0.22,0.15,0.33c0.25,0.51,0.56,1,0.93,1.49c0.23,0.3,0.48,0.61,0.77,0.91c0.12,0.12,0.25,0.24,0.37,0.36
	c0.56,0.56,1.17,1.07,1.85,1.55c0.54,0.38,1.13,0.73,1.75,1.05c0.21,0.11,0.4,0.22,0.61,0.32c0.14,0.07,0.29,0.1,0.44,0.1
	c0.39,0,0.76-0.22,0.94-0.59c0.09-0.19,0.1-0.38,0.08-0.57c-0.04-0.34-0.23-0.66-0.57-0.82c-0.26-0.12-0.49-0.26-0.74-0.39
	c-0.79-0.43-1.51-0.91-2.15-1.44c-0.38-0.32-0.74-0.64-1.07-0.99c-0.07-0.08-0.13-0.15-0.2-0.23c-0.5-0.56-0.88-1.1-1.15-1.66
	c-0.02-0.04-0.04-0.08-0.05-0.12c-0.1-0.21-0.18-0.42-0.25-0.63c-0.1-0.3-0.16-0.6-0.19-0.89c-0.01-0.08-0.01-0.16-0.01-0.24
	c0-0.05-0.01-0.11-0.01-0.15c0.02-0.29,0.08-0.59,0.19-0.88c0.13-0.32,0.3-0.63,0.54-0.91c0.12-0.15,0.26-0.29,0.42-0.43
	c0.36-0.34,0.8-0.64,1.32-0.91c1.22-0.61,2.66-0.96,4.18-1.06c0.15-0.01,0.3-0.03,0.46-0.04c0.32-0.01,0.59-0.17,0.78-0.4
	c0.14-0.19,0.23-0.41,0.23-0.66c-0.01-0.39-0.25-0.73-0.58-0.89c-0.14-0.07-0.29-0.12-0.46-0.12c-0.01,0-0.02,0-0.02,0
	C140.55,39.21,138.64,39.67,137.01,40.48z M61.97,99.34l7.1,9.15l0.06,0.07l0.49-1.69l-7.06-9.5L61.97,99.34z M215.25,88.46
	l-3.5,1.46c-0.39,0.16-0.85,0.07-1.14-0.23l-3.02-3.13c-0.23-0.25-0.33-0.59-0.27-0.93c0.06-0.33,0.29-0.62,0.6-0.75l2.62-1.14
	l-2.23-2.62l-99.54,47l2.12,2.61l12.48-5.63c0.14-0.06,0.28-0.09,0.43-0.09c0.3,0,0.6,0.13,0.8,0.39l4.72,5.89l4.95-2.39l-3.85-5.2
	c-0.19-0.26-0.25-0.58-0.17-0.88s0.29-0.56,0.58-0.69l2.85-1.28c0.42-0.19,0.91-0.08,1.21,0.27l3.76,4.39l7.51-3.51l-1.07-1.36
	c-0.21-0.26-0.28-0.6-0.19-0.92c0.09-0.32,0.32-0.58,0.63-0.7l2.64-1.01c0.39-0.15,0.84-0.05,1.13,0.26l1.08,1.18l52.71-25.24
	l-0.6-0.68c-0.22-0.25-0.31-0.6-0.23-0.93c0.08-0.33,0.31-0.6,0.62-0.73l2.43-0.98c0.39-0.16,0.83-0.06,1.12,0.23l3.05,3.11
	l7.8-3.85L215.25,88.46z M110.98,62.42c0.23,0.23,0.45,0.47,0.68,0.7c0.27,0.15,0.53,0.3,0.8,0.45c0.2,0.11,0.39,0.21,0.59,0.3
	c1.56,0.77,2.65,0.45,3.09,0.23c0.28-0.77,0.59-1.49,0.92-2.19c0.36-0.74,0.74-1.43,1.15-2.09c0.69-1.11,1.45-2.11,2.25-3.01
	c0.88-1,1.8-1.89,2.72-2.65c1.08-0.9,2.17-1.66,3.17-2.27c-5.62,1.88-14.74,5.3-18.37,7.1c0.13,0.16,0.26,0.32,0.39,0.48
	c0.35,0.44,0.71,0.87,1.08,1.29C109.94,61.32,110.45,61.87,110.98,62.42z M115.36,43.09c-1.48-0.07-2.92-0.12-4.28-0.14
	c-2.37-0.04-4.52-0.02-6.23,0.02c-1.14,0.02-2.09,0.06-2.78,0.09l0.22,0.83l0.52,2.02l0.16,0.62c0.19,0.35,0.42,0.6,0.69,0.75
	c0.09,0.05,0.19,0.09,0.29,0.12c0.88,0.25,2.04-0.32,2.41-0.56c3.45-2.06,7.92-3.08,12.06-3.56
	C117.39,43.21,116.37,43.15,115.36,43.09z M120.6,20.35c0.47,0.33,1.43,0.93,2.64,1.66c1.05,0.64,2.3,1.41,3.63,2.25
	c0.37,0.23,0.75,0.48,1.13,0.73c0.37,0.23,0.74,0.48,1.11,0.73c0.25,0.16,0.51,0.33,0.77,0.51c0.35,0.23,0.7,0.48,1.05,0.73
	c0.35,0.24,0.7,0.48,1.04,0.73c0.52,0.37,1.03,0.74,1.54,1.12c0.66,0.5,1.3,1,1.93,1.52c0.47,0.39,0.93,0.79,1.38,1.18
	c0.6,0.53,1.16,1.07,1.69,1.61c0.21,0.21,0.42,0.42,0.61,0.63c-0.13-0.23-0.27-0.46-0.41-0.7c-0.34-0.57-0.71-1.18-1.12-1.81
	c-0.28-0.45-0.58-0.9-0.9-1.35c-0.4-0.58-0.82-1.17-1.26-1.76c-0.33-0.44-0.67-0.88-1.03-1.31c-0.23-0.29-0.47-0.57-0.71-0.85
	s-0.5-0.56-0.75-0.84c-0.16-0.17-0.33-0.34-0.49-0.5c-0.28-0.28-0.56-0.56-0.84-0.82c-0.3-0.28-0.6-0.54-0.9-0.8
	c-0.58-0.49-1.18-0.94-1.79-1.34c-3.47-2.23-6.3-2.48-7.8-1.96c-0.53,0.18-0.71,0.4-0.74,0.46C120.4,20.18,120.46,20.26,120.6,20.35
	z M46.02,78.79l6.67,8.6l0.39-1.97l-6.74-8.62L46.02,78.79z M108.64,30.98c0.29,0.02,0.59,0.04,0.88,0.06
	c0.2,0.01,0.39,0.02,0.59,0.04c0.69,0.05,1.35,0.13,2.01,0.21c0.91,0.1,1.81,0.22,2.69,0.36c0.71,0.11,1.4,0.23,2.09,0.36
	c0.67,0.12,1.33,0.25,1.97,0.4c0.7,0.15,1.41,0.31,2.08,0.49c-0.54-0.22-1.1-0.43-1.66-0.64c-0.51-0.19-1.03-0.37-1.56-0.54
	c-0.54-0.18-1.09-0.35-1.65-0.52c-0.67-0.19-1.35-0.36-2.03-0.53c-0.67-0.16-1.35-0.3-2.04-0.43c-0.74-0.13-1.51-0.26-2.27-0.35
	c-0.72-0.09-1.44-0.16-2.17-0.2c-0.65,0.23-1.37,0.66-1.55,1c0.17,0.07,0.45,0.12,0.77,0.16C107.35,30.91,108.07,30.95,108.64,30.98
	z M90.35,135.91l-1,0.41l-0.99,0.41l-0.7,0.29l-0.3,1.2l-0.03,0.12l1.72-0.71l1-0.41l0.52-0.22l0.15-0.61l0.18-0.71L90.35,135.91z"
	/>
</svg>
