<?xml version="1.0" encoding="utf-8"?>
<!-- Generator: Adobe Illustrator 25.4.1, SVG Export Plug-In . SVG Version: 6.00 Build 0)  -->
<svg version="1.1" id="Layer_1" xmlns="http://www.w3.org/2000/svg" xmlns:xlink="http://www.w3.org/1999/xlink" x="0px" y="0px"
	 viewBox="0 0 250 165" style="enable-background:new 0 0 250 165;" xml:space="preserve">
<style type="text/css">
	.st0{clip-path:url(#SVGID_00000107589789962096715030000002623665643451344768_);}
	.st1{fill:#7887A7;}
	.st2{clip-path:url(#SVGID_00000062910408047553795550000002476530182038178708_);}
	.st3{fill:#629EA9;}
	.st4{fill:#F8F4E3;}
	.st5{fill:#5A6694;}
	.st6{clip-path:url(#SVGID_00000101102855940687747750000013680685957951973762_);}
	.st7{fill:#010101;}
</style>
<g>
	<defs>
		<rect id="SVGID_1_" x="41.04" y="-0.33" width="169.17" height="165"/>
	</defs>
	<clipPath id="SVGID_00000156574664693867649230000017761367615536837518_">
		<use xlink:href="#SVGID_1_"  style="overflow:visible;"/>
	</clipPath>
	<g style="clip-path:url(#SVGID_00000156574664693867649230000017761367615536837518_);">
		<path class="st1" d="M201.7,164.33H49.08c-5.01,0-8.48-2.6-7.79-5.73v-4.3l4.22-17.69l7.46-34.07c0.47-2.15,4.15-3.89,8.2-3.89
			l2.55-0.34c-5.28,0-9.63-4.06-10.11-9.22c-0.23-0.89-0.37-1.84-0.37-2.8V10.26c0-5.81,4.73-10.55,10.52-10.55h123.31
			c5.79,0,10.52,4.74,10.52,10.55v75.98c0,0.96-0.13,1.91-0.37,2.79c-0.47,5.19-4.83,9.22-10.11,9.22l2.55,0.34
			c4.06,0,7.73,1.74,8.21,3.89l8.37,38.31l3.34,14.14v3.62C210.21,161.73,206.71,164.33,201.7,164.33z"/>
	</g>
</g>
<g>
	<defs>
		<rect id="SVGID_00000059279864399999938250000012980801888739859585_" x="41.04" y="136.32" width="169.17" height="28.35"/>
	</defs>
	<clipPath id="SVGID_00000163042040536181201020000012086678437682650501_">
		<use xlink:href="#SVGID_00000059279864399999938250000012980801888739859585_"  style="overflow:visible;"/>
	</clipPath>
	<g style="clip-path:url(#SVGID_00000163042040536181201020000012086678437682650501_);">
		<path class="st3" d="M209.53,158.59v-3.62l-3.34-14.13l2.96,13.52c0.2,0.99-0.04,1.98-0.72,2.8c-1.26,1.57-3.78,2.49-6.78,2.49
			H49.08c-3,0-5.52-0.93-6.78-2.49c-0.68-0.85-0.91-1.81-0.71-2.8l3.88-17.76l-4.18,17.69v4.3c-0.69,3.14,2.79,5.73,7.79,5.73H201.7
			C206.71,164.33,210.21,161.73,209.53,158.59z"/>
	</g>
</g>
<path class="st4" d="M192.07,91.8H58.67V8.35h133.4V91.8z"/>
<path class="st5" d="M156.39,154.39H94.36l1.7-21h58.62L156.39,154.39z"/>
<g>
	<defs>
		<rect id="SVGID_00000157284573179382976280000006067022324548322184_" x="41.04" y="-0.33" width="169.17" height="165"/>
	</defs>
	<clipPath id="SVGID_00000022528417963128200240000014060011360984873114_">
		<use xlink:href="#SVGID_00000157284573179382976280000006067022324548322184_"  style="overflow:visible;"/>
	</clipPath>
	<g style="clip-path:url(#SVGID_00000022528417963128200240000014060011360984873114_);">
		<path class="st7" d="M142.46,130.93H97.69l0.37-5.05h44.12L142.46,130.93z M140.69,118.74h7.59l-0.27-4.3h-7.49L140.69,118.74z
			 M147.26,108.94l0.28,4.16h7.49l-0.37-4.16H147.26z M128.43,108.94l0.04,4.16h7.49l-0.13-4.16H128.43z M152.95,120.04h-7.63
			l0.24,4.44h7.73L152.95,120.04z M131.13,118.74h7.59l-0.17-4.3h-7.49L131.13,118.74z M143.28,120.04h-7.63l0.14,4.44h7.73
			L143.28,120.04z M137.83,108.94l0.17,4.16h7.49l-0.24-4.16H137.83z M133.61,120.04h-7.63v4.44h7.73L133.61,120.04z M106.68,120.04
			l-0.23,4.44h7.73l0.13-4.44H106.68z M116.35,120.04l-0.1,4.44h7.73l0.04-4.44H116.35z M81.96,114.41h-7.49l-0.65,4.34h7.6
			L81.96,114.41z M121.59,118.74h7.59l-0.04-4.3h-7.49L121.59,118.74z M68.07,120.04l-0.72,4.44h7.69l0.65-4.44H68.07z
			 M79.38,108.94h-7.39l-0.65,4.16h7.49L79.38,108.94z M192.41,92.15H58.34V8.01h134.07V92.15z M191.73,8.73H59.02V91.5h132.71V8.73
			z M169.36,118.74h7.59l-0.64-4.3h-7.49L169.36,118.74z M64.57,130.93h8.64l0.75-5.05h-8.51L64.57,130.93z M144.37,130.93h10.14
			l-0.41-5.05h-10.01L144.37,130.93z M156.66,108.94l0.37,4.16h7.49l-0.48-4.16H156.66z M155.33,124.51h7.73l-0.47-4.44h-7.63
			L155.33,124.51z M150.22,118.74h7.59l-0.4-4.3h-7.49L150.22,118.74z M159.79,118.74h7.59l-0.51-4.3h-7.49L159.79,118.74z
			 M166.05,108.94l0.51,4.16h7.49l-0.58-4.16H166.05z M182.87,108.94h-7.39l0.61,4.16h7.49L182.87,108.94z M104.64,120.04h-7.63
			l-0.37,4.44h7.73L104.64,120.04z M119.04,108.94l-0.07,4.16h7.49v-4.16H119.04z M176.74,125.88l0.72,5.05h8.65l-0.85-5.05H176.74z
			 M174.91,124.51h20.53l-0.85-4.34h-20.29L174.91,124.51z M188.02,130.93h8.64l-0.99-5.05h-8.51L188.02,130.93z M172.26,120.04
			h-7.63l0.51,4.44h7.73L172.26,120.04z M166.36,125.88l0.58,5.05h8.65l-0.72-5.05H166.36z M155.95,125.88l0.44,5.05h8.65
			l-0.55-5.05H155.95z M185.6,113.14h7.49l-0.82-4.16h-7.39L185.6,113.14z M63.58,125.88h-8.51l-0.99,5.05h8.65L63.58,125.88z
			 M72.5,114.47H57.28l-0.82,4.2h15.39L72.5,114.47z M65.99,120.17h-9.84l-0.85,4.34h9.94L65.99,120.17z M69.98,109.01H58.37
			l-0.82,4.07H69.3L69.98,109.01z M191.38,104.3H59.32l-0.68,3.41h133.43L191.38,104.3z M178.89,118.67h15.39l-0.82-4.2h-15.22
			L178.89,118.67z M99.91,113.14h7.49l0.2-4.16h-7.39L99.91,113.14z M92.93,118.74h7.59l0.31-4.3h-7.49L92.93,118.74z
			 M102.46,118.74h7.59l0.2-4.3h-7.49L102.46,118.74z M86.9,124.51h7.73l0.37-4.44h-7.63L86.9,124.51z M109.44,113.14h7.49l0.1-4.16
			h-7.39L109.44,113.14z M112.03,118.74h7.59l0.07-4.3h-7.49L112.03,118.74z M77.09,124.51h7.73l0.51-4.44h-7.63L77.09,124.51z
			 M154.99,133.05l1.74,21.68H93.98l1.74-21.68H154.99z M156.01,154.05l-1.63-20.32H96.37l-1.63,20.32H156.01z M96.19,125.88H86.19
			l-0.55,5.05h10.15L96.19,125.88z M90.37,113.14h7.49l0.34-4.16h-7.39L90.37,113.14z M75.12,130.93h8.65l0.58-5.05h-8.51
			L75.12,130.93z M80.87,113.14h7.49l0.44-4.16h-7.39L80.87,113.14z M83.36,118.74h7.59l0.44-4.3H83.9L83.36,118.74z M208.68,161.87
			c-1.39,1.74-4.12,2.76-7.32,2.76H49.38c-3.17,0-5.89-1.02-7.29-2.76c-0.78-0.99-1.09-2.15-0.85-3.35v-2.76
			c-0.1-0.48-0.1-0.99,0-1.5l11.33-51.83c0.51-2.33,4.29-4.16,8.48-4.16c-4.53-1.17-7.9-5.29-7.9-10.21V10.26
			c0-5.81,4.73-10.55,10.52-10.55h123.38c5.79,0,10.52,4.74,10.52,10.55v77.82c0,4.92-3.37,9.05-7.9,10.21
			c4.19,0,7.97,1.88,8.48,4.16l11.33,51.84c0.1,0.44,0.1,0.88,0.04,1.3v2.97C209.77,159.72,209.5,160.88,208.68,161.87z
			 M63.72,97.92h123.35c5.41,0,9.84-4.44,9.84-9.87V12.1c0-5.43-4.42-9.87-9.84-9.87H63.72c-5.41,0-9.84,4.44-9.84,9.87v75.97
			C53.88,93.51,58.26,97.92,63.72,97.92z M41.96,154.39v1.36c0.1,0.41,0.31,0.82,0.61,1.2c1.19,1.47,3.68,2.39,6.5,2.39H201.7
			c2.82,0,5.31-0.93,6.5-2.39c0.37-0.48,0.58-0.99,0.65-1.5c0,0,0-0.82-0.04-1.03l-11.34-51.83c-0.44-1.98-4.05-3.65-7.86-3.65
			h-39.05l-1.53,2.01h-47.33l-1.53-2.01H61.16c-3.85,0-7.42,1.68-7.87,3.65L41.96,154.39z M208.85,158.66v-1.44
			c-1.23,1.68-3.85,2.84-7.15,2.84H49.08c-3.27,0-5.89-1.13-7.12-2.76v1.4c-0.2,0.99,0.03,1.94,0.68,2.79
			c1.26,1.57,3.78,2.49,6.74,2.49H201.4c2.99,0,5.52-0.96,6.77-2.52C208.82,160.61,209.09,159.65,208.85,158.66z"/>
	</g>
</g>
</svg>
