<?xml version="1.0" encoding="utf-8"?>
<!-- Generator: Adobe Illustrator 25.4.1, SVG Export Plug-In . SVG Version: 6.00 Build 0)  -->
<svg version="1.1" id="Layer_1" xmlns="http://www.w3.org/2000/svg" xmlns:xlink="http://www.w3.org/1999/xlink" x="0px" y="0px"
	 viewBox="0 0 250 165" style="enable-background:new 0 0 250 165;" xml:space="preserve">
<style type="text/css">
	.st0{clip-path:url(#SVGID_00000109713342722373386010000006788151731885185690_);}
	.st1{fill:#3B3E51;}
	.st2{fill:#F8F4E3;}
	.st3{fill:#7887A7;}
	.st4{fill:#5A6694;}
	.st5{fill:#FFE84D;}
</style>
<g>
	<defs>
		<rect id="SVGID_1_" x="2.17" y="2.18" width="246.52" height="160"/>
	</defs>
	<clipPath id="SVGID_00000080906213752962424600000002597338587539124371_">
		<use xlink:href="#SVGID_1_"  style="overflow:visible;"/>
	</clipPath>
	<g style="clip-path:url(#SVGID_00000080906213752962424600000002597338587539124371_);">
		<path class="st1" d="M248.4,103.87v5.66c0,0.42-0.19,0.82-0.52,1.08l-17.27,13.86c-0.02,0.01-0.04,0.02-0.07,0.04
			c-0.04,0.03-0.09,0.06-0.14,0.09c-0.08,0.04-0.16,0.07-0.25,0.1c-0.03,0.01-0.06,0.02-0.09,0.04c-0.04,0.01-0.09,0.01-0.12,0.01
			c-0.04,0.01-0.07,0.01-0.11,0.01c-0.03,0-0.06,0.01-0.08,0.01c-0.07,0-0.12-0.02-0.19-0.02c-0.04-0.01-0.07-0.01-0.11-0.01
			c-0.11-0.02-0.22-0.07-0.33-0.12c-0.01-0.01-0.02-0.01-0.02-0.01c-0.15-0.08-0.34-0.17-0.54-0.27c-0.03-0.01-0.06-0.02-0.09-0.04
			c-0.21-0.1-0.44-0.19-0.69-0.29c-0.02-0.01-0.06-0.02-0.08-0.03c-0.53-0.2-1.14-0.41-1.78-0.57c-0.03-0.01-0.06-0.01-0.09-0.02
			c-0.32-0.08-0.65-0.15-0.98-0.21c-0.03,0-0.06-0.01-0.09-0.01c-0.67-0.1-1.35-0.15-2.01-0.12c-0.05,0-0.1,0.01-0.15,0.01
			c-0.31,0.02-0.62,0.07-0.92,0.14c-0.02,0.01-0.04,0.01-0.06,0.02c0,0.01,0.01,0.01,0.01,0.02c0,0,0,0.01,0,0.01
			c0.01,0.01,0.01,0.01,0.01,0.02c0.05,0.09,0.09,0.18,0.12,0.28c0,0.01,0,0.01,0.01,0.02c0,0.01,0,0.01,0,0.01
			c0.01,0.01,0.01,0.02,0.01,0.04c0.02,0.1,0.07,0.2,0.07,0.31c0,0.04-0.02,0.07-0.02,0.11v5.56c0,0.43-0.2,0.84-0.54,1.1
			l-40.67,31.17c-0.02,0.02-0.04,0.02-0.07,0.04c-0.03,0.02-0.06,0.05-0.09,0.07c-0.03,0.02-0.06,0.02-0.1,0.04
			c-0.03,0.02-0.06,0.03-0.09,0.04c-0.03,0.01-0.06,0.02-0.09,0.04c-0.13,0.04-0.27,0.06-0.4,0.06c-0.16,0-0.31-0.04-0.47-0.09
			c-0.03-0.01-0.06-0.02-0.09-0.04c-0.01-0.01-0.02-0.01-0.04-0.01c-0.04-0.02-0.07-0.02-0.11-0.05l-66.15-39.33
			c-0.41-0.25-0.67-0.7-0.67-1.19v-2.91c-0.01,0-0.01,0.01-0.02,0.01c-0.17,0.12-0.31,0.22-0.46,0.33c-0.3,0.21-0.58,0.41-0.79,0.56
			c-0.32,0.23-0.53,0.38-0.53,0.38c-0.06,0.04-0.12,0.06-0.19,0.09c-0.04,0.02-0.08,0.04-0.12,0.06c-0.02,0.01-0.05,0.02-0.07,0.03
			c-0.04,0.01-0.08,0.01-0.12,0.02c-0.09,0.02-0.18,0.04-0.28,0.04c-0.01,0-0.01,0-0.02,0c-0.11,0-0.22-0.01-0.33-0.04
			c-0.02,0-0.03-0.01-0.06-0.02c-0.03-0.01-0.06-0.02-0.09-0.04c-0.03-0.01-0.06-0.02-0.09-0.03c-0.02-0.01-0.04-0.01-0.06-0.02
			c-0.02-0.01-0.02-0.02-0.04-0.02c-0.02-0.01-0.03-0.01-0.04-0.02L3.14,55.93c-0.41-0.25-0.67-0.7-0.67-1.19v-5.66
			c0-0.03,0.01-0.06,0.01-0.09c0.01-0.08,0.01-0.16,0.02-0.23c0.01-0.01,0.01-0.02,0.01-0.02c0.01-0.04,0.03-0.09,0.05-0.12
			c0.02-0.07,0.05-0.14,0.09-0.21c0.02-0.04,0.06-0.08,0.09-0.12c0.02-0.04,0.05-0.07,0.07-0.1c0.02-0.02,0.04-0.05,0.06-0.07
			c0.03-0.04,0.07-0.07,0.11-0.1c0.04-0.03,0.07-0.07,0.1-0.09l5.27-3.44l1.23-0.81l35-22.93c0.37-0.24,0.83-0.29,1.24-0.14
			c1.39,0.52,5.12,1.51,7.62,0.61v-5.3c0-0.02,0.01-0.04,0.01-0.06s-0.01-0.04,0-0.07c0.01-0.08,0.02-0.17,0.05-0.25
			c0.01-0.04,0.02-0.07,0.03-0.1c0.04-0.1,0.09-0.2,0.15-0.29c0.02-0.04,0.05-0.07,0.07-0.1c0.06-0.07,0.13-0.14,0.2-0.2
			c0.02-0.02,0.05-0.05,0.08-0.07c0.01-0.01,0.02-0.02,0.04-0.03l19.23-12.3c0.43-0.28,0.98-0.29,1.43-0.03l172.89,100.22l0.01,0.01
			c0.01,0,0.01,0,0.01,0l0.04,0.02c0.07,0.04,0.12,0.09,0.18,0.13c0.03,0.02,0.06,0.04,0.09,0.07c0.09,0.08,0.16,0.17,0.22,0.27
			c0.02,0.04,0.04,0.07,0.06,0.11c0.03,0.07,0.07,0.14,0.09,0.21c0.01,0.05,0.02,0.09,0.02,0.14c0.01,0.06,0.03,0.11,0.03,0.17
			c0,0.02,0,0.04,0,0.06C248.39,103.83,248.4,103.85,248.4,103.87z"/>
	</g>
</g>
<path class="st2" d="M5.23,51.54l103.04,62.25v2.43L5.23,53.97V51.54z M117.09,119.44l-1.49-0.89l-0.59-0.35v2.44l63.39,37.69v-2.44
	L117.09,119.44z"/>
<path class="st3" d="M96.54,44.22v4.55c0,0.49,0.26,0.94,0.68,1.2l10.07,5.96l-4.16,2.7l-14.2-8.21c-0.45-0.26-1.01-0.25-1.44,0.03
	l-9.48,6.13l-4.36-2.55l4.77-3.15c0.39-0.26,0.62-0.69,0.62-1.15v-4.93c0-0.06-0.02-0.11-0.02-0.17c0-0.04-0.01-0.08-0.01-0.12
	c-0.04-0.16-0.09-0.31-0.17-0.44c-0.01-0.01-0.01-0.02-0.01-0.02c-0.01-0.02-0.03-0.02-0.04-0.04c-0.08-0.12-0.18-0.22-0.29-0.3
	c-0.03-0.02-0.06-0.04-0.09-0.06c-0.02-0.01-0.03-0.03-0.05-0.04l-12.65-7.31l4.24-2.41l17.26,10.19c0.04,0.02,0.07,0.02,0.11,0.04
	c0.04,0.02,0.07,0.04,0.12,0.05c0.15,0.06,0.31,0.1,0.48,0.1s0.32-0.04,0.48-0.1c0.05-0.02,0.09-0.04,0.14-0.07
	c0.05-0.02,0.1-0.04,0.15-0.07l9.52-6.44l3.82,2.22l-4.88,3.29C96.77,43.33,96.54,43.76,96.54,44.22z M244.58,104.05l-0.06,0.04
	l-14.73,11.81l-0.22,0.19c-0.65-0.29-1.62-0.67-2.77-0.98c-0.8-0.22-1.7-0.4-2.62-0.48c-1.27-0.1-2.59-0.02-3.84,0.4
	c-0.53,0.19-1.05,0.43-1.55,0.75c-0.09,0.06-0.18,0.1-0.27,0.17c-1.6,1.14-2.1,2.41-2.22,3.39c-0.01,0.15-0.02,0.3-0.02,0.44
	c0.01,0.49,0.1,0.96,0.25,1.4c0.19,0.56,0.47,1.07,0.79,1.54c0.28,0.41,0.59,0.78,0.9,1.09c0.02,0.02,0.03,0.04,0.05,0.05
	l-0.15,0.12l-0.03,0.02l-1.78,1.37l-30.34,23.25l-4.8-2.88l-1.38-0.83l-1.38-0.83l-53.87-32.33l-1.39-0.83l-0.76-0.46
	c0.27-0.33,0.45-0.67,0.57-1.01c0.3-0.85,0.18-1.69-0.41-2.52c-0.96-1.36-3.39-1.77-6.28-0.15l-0.09-0.06l-1.38-0.83l-1.38-0.83
	L75.41,82.28c0,0-0.01,0-0.01-0.01l-35.8-21.49l-0.84-0.5l3.71-2.48c0.11,0.17,0.25,0.31,0.43,0.42l2.21,1.33
	c0.22,0.13,0.47,0.19,0.71,0.19c0.47,0,0.93-0.24,1.19-0.67c0.39-0.65,0.18-1.51-0.48-1.9L44.9,56.2l2.01-1.35l12.67,7.55
	c0.22,0.13,0.46,0.19,0.7,0.19c0.27,0,0.53-0.07,0.76-0.23l8.73-5.77l1.27-0.84l0.04-0.03l4.33,2.53l-0.15,0.1l-1.28,0.83
	l-3.68,2.38c-0.4,0.26-0.64,0.71-0.64,1.19c0,0.01,0.01,0.02,0.01,0.03c-0.01,0.02-0.01,0.04-0.01,0.06v4.81
	c0,0.49,0.26,0.94,0.68,1.19l27.11,16.11c0.22,0.13,0.46,0.2,0.7,0.2c0.27,0,0.53-0.08,0.76-0.23l8.16-5.38l1.28-0.84l1.27-0.84
	l6.67-4.39c0.39-0.26,0.62-0.69,0.62-1.16V67.4c0-0.06-0.01-0.11-0.02-0.17c-0.01-0.04-0.01-0.07-0.02-0.12
	c-0.03-0.15-0.09-0.31-0.17-0.44c-0.01-0.01-0.01-0.01-0.01-0.02c-0.01-0.02-0.03-0.02-0.04-0.04c-0.08-0.11-0.17-0.21-0.28-0.3
	c-0.03-0.02-0.06-0.05-0.09-0.07c-0.01-0.01-0.03-0.02-0.05-0.04l-10.41-6.02l4.14-2.67l14.94,8.83c0.04,0.02,0.07,0.03,0.11,0.05
	c0.04,0.02,0.07,0.03,0.12,0.05c0.15,0.06,0.31,0.09,0.48,0.09c0.16,0,0.32-0.04,0.48-0.09c0.05-0.02,0.09-0.04,0.14-0.07
	c0.05-0.02,0.1-0.04,0.15-0.07l7.41-4.93l0.91,0.57c0.06,0.04,0.13,0.06,0.2,0.09c0.04,0.03,0.06,0.07,0.1,0.1l0.16,0.1
	c0.06,0.04,0.13,0.06,0.19,0.09c0.04,0.03,0.06,0.07,0.1,0.1l0.14,0.09L111.44,79l-1.25,0.86l-1.25,0.85l-3.44,2.35
	c-0.63,0.43-0.79,1.29-0.36,1.92c0.27,0.4,0.7,0.6,1.14,0.6c0.27,0,0.54-0.07,0.78-0.24l4.46-3.05l1.25-0.85l0.98-0.67l2.56,1.22
	l0.29,0.14l-0.03,0.02l-1.2,0.89l-1.2,0.88l-2.69,1.99c-0.35,0.27-0.56,0.68-0.56,1.12v5.17c0,0.49,0.25,0.94,0.67,1.19l29.39,17.54
	c0.04,0.02,0.08,0.02,0.11,0.04c0.04,0.02,0.08,0.04,0.12,0.06c0.15,0.06,0.31,0.09,0.48,0.09c0.17,0,0.33-0.04,0.49-0.1
	c0.06-0.02,0.1-0.05,0.15-0.07c0.06-0.04,0.13-0.06,0.19-0.1l6.94-5.22l1.19-0.89l0.78-0.59l3.79,2.2l-0.88,0.65l-1.19,0.89
	l-2.1,1.56c-0.35,0.26-0.56,0.67-0.56,1.11v5.14c0,0.49,0.26,0.94,0.67,1.19l11.11,6.64l-2.12,1.63c-0.07,0.06-0.11,0.14-0.17,0.2
	c-0.11-0.17-0.25-0.31-0.43-0.42l-35.73-21.43l-3.56-2.14l-4.38-2.62c-0.65-0.4-1.5-0.19-1.89,0.48c-0.4,0.65-0.18,1.51,0.48,1.9
	l2.96,1.78l1.38,0.83l1.38,0.83l1.94,1.16l4.97,2.98l1.3,0.78l29.74,17.84c0.22,0.14,0.47,0.2,0.71,0.2c0.06,0,0.12-0.02,0.18-0.02
	c0.04,0.07,0.05,0.14,0.1,0.2c0.27,0.36,0.68,0.54,1.1,0.54c0.29,0,0.59-0.09,0.83-0.28l0.1-0.08c0.11-0.08,0.19-0.19,0.27-0.3
	c0.14-0.05,0.28-0.12,0.41-0.22l2.99-2.3l13.57,8.12l1.38,0.83l0.78,0.46c0.03,0.02,0.07,0.03,0.11,0.05
	c0.04,0.02,0.08,0.03,0.12,0.05c0.12,0.04,0.24,0.07,0.37,0.08c0.03,0.01,0.07,0.02,0.1,0.02c0.17,0,0.33-0.04,0.49-0.1
	c0.06-0.02,0.1-0.05,0.15-0.07c0.06-0.04,0.13-0.06,0.19-0.1l6.58-4.94l3.26,1.93c0.22,0.13,0.46,0.19,0.7,0.19
	c0.4,0,0.78-0.18,1.05-0.5c0.1-0.04,0.2-0.08,0.29-0.15l16.66-12.23l1.15-0.85l0.85-0.63l4-2.94c0.27-0.19,0.42-0.47,0.5-0.77
	c0.1-0.39,0.06-0.81-0.2-1.17c-0.45-0.62-1.31-0.75-1.93-0.3l-22.45,16.49l-1.48-0.88l7.87-5.91c0.35-0.26,0.56-0.67,0.56-1.1v-4.98
	c0-0.1-0.02-0.19-0.04-0.29c-0.01-0.02-0.01-0.03-0.01-0.05c-0.04-0.16-0.11-0.3-0.2-0.44c-0.01-0.01-0.01-0.03-0.02-0.05
	s-0.03-0.02-0.04-0.04c-0.1-0.12-0.22-0.24-0.36-0.32l-0.01-0.01c0,0,0,0-0.01,0l-29.45-17.52c-0.48-0.28-1.07-0.25-1.52,0.08
	l-10.18,7.55l-3.81-2.22l5.54-4.16c0.35-0.26,0.55-0.67,0.55-1.11v-4.97c0-0.1-0.02-0.2-0.04-0.29c-0.01-0.02,0-0.04-0.01-0.06
	c-0.04-0.15-0.12-0.3-0.2-0.43c-0.01-0.02-0.01-0.04-0.02-0.05c-0.01-0.02-0.03-0.02-0.04-0.04c-0.1-0.12-0.22-0.23-0.36-0.32h-0.01
	c-0.01-0.01-0.01-0.01-0.01-0.01L129.78,73.4c-0.48-0.28-1.08-0.25-1.52,0.07l-9.15,6.78l-2.72-1.3l21.78-14.9
	c0.17-0.11,0.29-0.25,0.39-0.41c0.25-0.11,0.48-0.29,0.64-0.54c0.4-0.65,0.16-1.53-0.49-1.93c-0.03-0.02-0.07-0.02-0.1-0.04
	c-0.03-0.02-0.05-0.06-0.09-0.08l-1.62-1.01c-0.06-0.03-0.11-0.03-0.17-0.06c-0.04-0.04-0.07-0.09-0.12-0.12l-0.17-0.1
	c-0.06-0.04-0.12-0.04-0.17-0.07l2.6-1.74l5.85,3.39l-6.85,5.08c-0.35,0.26-0.56,0.67-0.56,1.11v5.29c0,0.49,0.26,0.94,0.68,1.19
	l29.4,17.43c0.03,0.02,0.07,0.02,0.1,0.04c0.04,0.02,0.08,0.04,0.12,0.05c0.15,0.06,0.31,0.1,0.47,0.1c0.17,0,0.33-0.04,0.49-0.1
	c0.06-0.02,0.1-0.06,0.15-0.08c0.06-0.04,0.13-0.06,0.19-0.1l8.98-6.74l3.67,2.02l-4.13,3.06c-0.35,0.27-0.56,0.68-0.56,1.12v5.36
	c0,0.49,0.26,0.94,0.68,1.19l29.39,17.35c0.04,0.02,0.07,0.03,0.11,0.05c0.04,0.02,0.07,0.03,0.12,0.05
	c0.15,0.06,0.31,0.09,0.48,0.09c0.17,0,0.33-0.04,0.49-0.1c0.06-0.02,0.1-0.05,0.15-0.07c0.06-0.04,0.13-0.06,0.19-0.1l8.83-6.64
	l1.99,1.07c-0.23,0.45-0.22,1.01,0.1,1.45c0.27,0.36,0.69,0.56,1.11,0.56c0.28,0,0.57-0.09,0.81-0.27l0.7-0.51
	c0.08-0.06,0.13-0.14,0.2-0.22c0.3-0.12,0.56-0.32,0.72-0.63c0.36-0.67,0.1-1.51-0.57-1.87l-2.64-1.42l5.58-4.19
	c0.35-0.26,0.55-0.67,0.55-1.11v-4.97c0-0.1-0.02-0.2-0.04-0.29c-0.01-0.02,0-0.04-0.01-0.05c-0.04-0.16-0.12-0.3-0.21-0.44
	c-0.01-0.02-0.01-0.04-0.02-0.05c-0.01-0.02-0.03-0.02-0.04-0.04c-0.1-0.13-0.22-0.24-0.36-0.33h-0.01c0-0.01,0-0.01,0-0.01
	l-15.67-9.32l-13.78-8.2c-0.46-0.28-1.03-0.25-1.47,0.05c-0.02,0.01-0.04,0.01-0.06,0.02L184,84.83l-3.69-2.04l5.44-4.09
	c0.35-0.26,0.56-0.67,0.56-1.1v-4.97c0-0.1-0.02-0.19-0.04-0.28c-0.01-0.02-0.01-0.04-0.01-0.06c-0.04-0.16-0.11-0.3-0.2-0.43
	c-0.01-0.02-0.01-0.04-0.02-0.06c-0.01-0.01-0.03-0.02-0.04-0.04c-0.1-0.12-0.22-0.23-0.36-0.32l-0.01-0.01c0,0,0,0-0.01,0
	l-6.35-3.78l-23.09-13.75c-0.48-0.28-1.08-0.25-1.52,0.08l-0.4,0.3l-1.23,0.91l-5.88,4.36l-5.7-3.3l1.84-1.22
	c0.38-0.26,0.62-0.69,0.62-1.15v-4.9c0-0.06-0.02-0.12-0.02-0.18c-0.01-0.02,0-0.04,0-0.06c-0.01-0.02-0.01-0.04-0.02-0.06
	c-0.03-0.15-0.09-0.3-0.18-0.44c-0.01-0.01-0.01-0.02-0.01-0.03c-0.01-0.02-0.03-0.03-0.04-0.05c-0.08-0.11-0.18-0.2-0.29-0.29
	c-0.03-0.02-0.06-0.04-0.09-0.06c-0.02-0.01-0.02-0.02-0.04-0.04l-23.74-13.65l-4.12-2.37c-0.2-0.11-0.41-0.16-0.64-0.17
	c-0.28-0.01-0.57,0.06-0.82,0.22l-0.75,0.51l-1.3,0.88l-7.24,4.88l-3.83-2.22l4.66-3.15c0.38-0.26,0.6-0.69,0.6-1.15v-4.9
	c0-0.06-0.01-0.12-0.02-0.17c0-0.04-0.01-0.08-0.01-0.12c-0.04-0.16-0.09-0.31-0.18-0.44c0-0.01,0-0.02-0.01-0.02
	c-0.01-0.02-0.03-0.02-0.04-0.04c-0.08-0.11-0.18-0.22-0.3-0.3c-0.03-0.02-0.06-0.05-0.09-0.07c-0.02-0.01-0.03-0.02-0.05-0.04
	L78.26,10.04c-0.45-0.26-1.01-0.24-1.44,0.04l-1.07,0.7l-2.64,1.73l-12.88,8.41c-0.39,0.25-0.63,0.69-0.63,1.15v4.9
	c0,0.49,0.26,0.94,0.69,1.19l6.91,4.09l-4.27,2.41l-8.82-5.1l-1.77-1.02l-1.28-0.74c-0.44-0.26-1-0.25-1.43,0.04l-0.91,0.59
	l-1.67,1.08l-7.81,5.05l-1.28,0.83l-1.29,0.83l-4.23,2.73c-0.4,0.26-0.64,0.7-0.64,1.17v4.93c0,0.49,0.26,0.94,0.67,1.19l11.81,7.04
	l-8.14,5.43L13.96,45.4l-1.02-0.61l3.02-1.98l11.42-7.48l0.01-0.01l18.14-11.89c1.65,0.52,5.93,1.62,9.23,0.25
	c0.41-0.17,0.81-0.38,1.18-0.63c0.01-0.01,0.02-0.02,0.04-0.02c0.43-0.3,0.77-0.62,1.04-0.94c0.71-0.83,0.95-1.69,1-2.34
	c0.09-1.17-0.35-2.26-0.86-3.1c-0.09-0.14-0.17-0.28-0.26-0.4l2.97-1.9l4.46-2.85l9.78-6.25l102.96,59.69L211.71,85L244.58,104.05z
	 M28.68,44.83c0-1.92-2.07-3.36-4.81-3.36c-2.74,0-4.81,1.44-4.81,3.36s2.07,3.36,4.81,3.36C26.61,48.2,28.68,46.75,28.68,44.83z
	 M95.45,86.51l-43.68-26.2c-0.65-0.39-1.5-0.18-1.89,0.48c-0.4,0.66-0.18,1.51,0.48,1.9l43.67,26.2c0.22,0.13,0.47,0.19,0.71,0.19
	c0.47,0,0.93-0.24,1.19-0.67C96.31,87.75,96.1,86.9,95.45,86.51z M100.96,87.83c-0.43-0.64-1.28-0.8-1.92-0.37l-0.95,0.65
	c-0.63,0.43-0.79,1.29-0.36,1.93c0.27,0.39,0.7,0.6,1.14,0.6c0.27,0,0.54-0.08,0.78-0.24l0.95-0.65
	C101.23,89.32,101.4,88.46,100.96,87.83z M107.72,93.88l-4.43-2.66c-0.65-0.39-1.5-0.18-1.89,0.48c-0.4,0.65-0.18,1.51,0.48,1.9
	l4.43,2.66c0.22,0.13,0.47,0.19,0.71,0.19c0.47,0,0.93-0.24,1.19-0.67C108.59,95.12,108.38,94.27,107.72,93.88z M190.38,141.48
	c0-1.91-2.07-3.36-4.81-3.36c-2.04,0-3.7,0.8-4.42,1.99c-0.25,0.42-0.39,0.88-0.39,1.37c0,0.49,0.14,0.96,0.39,1.37
	c0.72,1.19,2.38,1.99,4.42,1.99C188.32,144.84,190.38,143.4,190.38,141.48z M240.13,104.4c0-1.92-2.07-3.36-4.81-3.36
	s-4.81,1.44-4.81,3.36c0,1.91,2.07,3.36,4.81,3.36S240.13,106.31,240.13,104.4z"/>
<path class="st4" d="M218.57,127.11l0.49-0.38v2.18l-37.91,29.06v-2.18L218.57,127.11C218.57,127.12,218.57,127.12,218.57,127.11z
	 M231.13,118.38v2.12l14.51-11.64v-2.12L231.13,118.38z M185.58,142.07c1.1,0,1.81-0.37,2.01-0.59c-0.2-0.22-0.91-0.59-2.01-0.59
	c-1.11,0-1.81,0.38-2.01,0.59C183.77,141.7,184.46,142.07,185.58,142.07z M237.33,104.4c-0.2-0.22-0.91-0.6-2.01-0.6
	c-1.11,0-1.81,0.38-2.01,0.6c0.2,0.22,0.9,0.59,2.01,0.59C236.42,104.99,237.13,104.61,237.33,104.4z M21.86,44.83
	c0.2,0.22,0.9,0.59,2.01,0.59c1.11,0,1.81-0.37,2.01-0.59c-0.2-0.22-0.9-0.59-2.01-0.59C22.76,44.24,22.06,44.61,21.86,44.83z
	 M212.18,106.88l10.93-8.2v1.51l-14.09,10.58v-2.2c0-0.6-0.38-1.1-0.91-1.29c-0.05-0.04-0.09-0.1-0.14-0.14l-0.52-0.31
	c-0.65-0.4-1.5-0.18-1.9,0.48c-0.39,0.65-0.18,1.51,0.47,1.9l0.25,0.14v1.77L179.63,95.4v-3.88l15.48-11.48l26.9,16.01l-11.48,8.62
	c-0.61,0.46-0.73,1.33-0.28,1.94c0.27,0.36,0.69,0.56,1.1,0.56C211.64,107.16,211.93,107.07,212.18,106.88z M183.54,92.4l-0.52-0.31
	c-0.65-0.4-1.5-0.19-1.89,0.48c-0.4,0.65-0.19,1.5,0.47,1.9l0.52,0.31c0.22,0.14,0.47,0.2,0.71,0.2c0.47,0,0.93-0.23,1.19-0.67
	C184.4,93.64,184.19,92.79,183.54,92.4z M203.91,104.69l-17.04-10.28c-0.65-0.4-1.51-0.19-1.9,0.47c-0.4,0.65-0.19,1.51,0.47,1.9
	l17.04,10.28c0.22,0.14,0.47,0.2,0.71,0.2c0.47,0,0.93-0.24,1.19-0.67C204.77,105.93,204.56,105.08,203.91,104.69z M181.16,126.64
	l-0.09-0.06c-0.41-0.25-0.89-0.23-1.3-0.04c-0.23,0.11-0.45,0.27-0.6,0.51c-0.39,0.65-0.18,1.5,0.47,1.9l0.13,0.08l0.1,0.06v1.75
	l-0.1-0.06l-1.38-0.83l-25.15-15.04v-3.65l2.43-1.8l2.4-1.78l10.65-7.9l26.9,16l-11.85,8.9c-0.6,0.46-0.73,1.33-0.28,1.94
	c0.27,0.36,0.69,0.56,1.11,0.56c0.28,0,0.57-0.09,0.82-0.28l11.29-8.48v1.51l-14.08,10.58v-2.2c0-0.6-0.38-1.1-0.91-1.29
	c-0.05-0.04-0.09-0.09-0.14-0.12L181.16,126.64z M157.61,112.43l-0.51-0.3c-0.65-0.4-1.5-0.19-1.9,0.47
	c-0.39,0.65-0.18,1.51,0.48,1.9l0.51,0.31c0.22,0.14,0.47,0.2,0.71,0.2c0.47,0,0.93-0.24,1.19-0.67
	C158.48,113.67,158.27,112.82,157.61,112.43z M177.6,124.5l-16.72-10.09c-0.65-0.4-1.5-0.18-1.9,0.48c-0.4,0.65-0.18,1.51,0.47,1.9
	l16.72,10.09c0.22,0.14,0.47,0.2,0.71,0.2c0.47,0,0.93-0.24,1.19-0.67C178.46,125.74,178.25,124.89,177.6,124.5z M157.16,96.4
	l-7.85,5.9l-1.19,0.9l-1.19,0.89l-3.85,2.9v-2.2c0-0.6-0.38-1.1-0.91-1.29c-0.05-0.04-0.09-0.1-0.14-0.14l-0.52-0.31
	c-0.65-0.4-1.5-0.19-1.9,0.47c-0.39,0.65-0.18,1.51,0.48,1.9l0.24,0.14v1.76l-26.63-15.9v-3.69l3.02-2.25l1.2-0.88l1.2-0.89
	l10.06-7.46l26.9,16.01l-10.4,7.8l-1.19,0.9l-0.47,0.35c-0.24,0.18-0.38,0.43-0.46,0.7c-0.13,0.41-0.09,0.86,0.19,1.23
	c0.27,0.36,0.69,0.56,1.11,0.56c0.28,0,0.57-0.09,0.83-0.28l0.15-0.11l1.19-0.9l1.19-0.89l8.96-6.73V96.4z M117.64,88.64l-0.52-0.31
	c-0.65-0.4-1.5-0.18-1.9,0.48c-0.4,0.65-0.18,1.51,0.48,1.9l0.52,0.31c0.22,0.14,0.47,0.2,0.71,0.2c0.47,0,0.93-0.23,1.19-0.67
	C118.5,89.88,118.29,89.03,117.64,88.64z M137.96,100.91l-17-10.27c-0.65-0.4-1.5-0.18-1.9,0.48c-0.4,0.65-0.18,1.51,0.47,1.9
	l17.01,10.26c0.22,0.14,0.46,0.2,0.71,0.2c0.47,0,0.92-0.24,1.18-0.67C138.83,102.15,138.62,101.3,137.96,100.91z M140.07,68.24
	l15.48-11.48l26.9,16l-12.12,9.1c-0.61,0.46-0.73,1.33-0.28,1.94c0.27,0.36,0.69,0.56,1.1,0.56c0.29,0,0.58-0.09,0.83-0.28
	l11.57-8.69v1.51L169.46,87.5v-2.21c0-0.59-0.38-1.09-0.91-1.28c-0.04-0.04-0.08-0.09-0.14-0.13l-0.5-0.3
	c-0.65-0.4-1.5-0.18-1.9,0.48s-0.18,1.51,0.48,1.9l0.21,0.13v1.77l-26.63-15.79V68.24z M146.66,73.98l16.43,9.91
	c0.22,0.14,0.46,0.2,0.71,0.2c0.47,0,0.93-0.24,1.18-0.67c0.4-0.65,0.19-1.51-0.47-1.9l-16.42-9.91c-0.65-0.39-1.5-0.18-1.9,0.48
	C145.8,72.73,146.01,73.58,146.66,73.98z M142.95,71.73l0.5,0.31c0.22,0.13,0.47,0.2,0.71,0.2c0.47,0,0.93-0.24,1.19-0.67
	c0.4-0.65,0.19-1.51-0.47-1.9l-0.5-0.31c-0.65-0.4-1.51-0.19-1.9,0.48C142.08,70.49,142.29,71.33,142.95,71.73z M99.3,44.96
	l15.29-10.29l0.11-0.08l3.44,1.98l21.74,12.5l-12.33,8.21c-0.63,0.42-0.8,1.28-0.38,1.91c0.27,0.4,0.7,0.62,1.15,0.62
	c0.27,0,0.53-0.08,0.77-0.23l12.04-8.02v1.57l-2.66,1.77c-0.4,0.07-0.76,0.28-0.98,0.65l-10.52,7v-2.32c0-0.6-0.39-1.1-0.92-1.29
	c-0.05-0.04-0.09-0.09-0.14-0.12l-0.49-0.28c-0.66-0.38-1.51-0.15-1.89,0.51c-0.38,0.66-0.15,1.51,0.51,1.89l0.17,0.1v1.68
	L99.3,47.98V44.96z M104.84,49.82l16.07,9.3c0.22,0.12,0.46,0.19,0.69,0.19c0.48,0,0.94-0.25,1.2-0.69
	c0.38-0.66,0.15-1.51-0.51-1.89l-16.07-9.31c-0.65-0.38-1.5-0.15-1.88,0.51C103.95,48.59,104.17,49.44,104.84,49.82z M101.01,47.61
	l0.49,0.28c0.22,0.13,0.46,0.19,0.69,0.19c0.48,0,0.94-0.25,1.2-0.69c0.38-0.66,0.15-1.51-0.5-1.9l-0.49-0.28
	c-0.66-0.38-1.51-0.15-1.89,0.51C100.12,46.38,100.35,47.22,101.01,47.61z M114.16,71.58l-7.14,4.7l-1.28,0.84l-1.27,0.84
	l-4.94,3.25v-2.56c0-0.6-0.38-1.09-0.91-1.29c-0.05-0.03-0.08-0.08-0.13-0.11l-0.48-0.28c-0.65-0.39-1.5-0.17-1.89,0.49
	c-0.38,0.65-0.17,1.51,0.49,1.89l0.16,0.1v1.9L72.43,66.88v-3.39l4.16-2.69l1.28-0.83l1.29-0.83l9.12-5.9l24.62,14.23l-9.84,6.37
	l-1.29,0.83l-0.85,0.55c-0.14,0.09-0.25,0.21-0.35,0.34c-0.33,0.45-0.38,1.07-0.06,1.57c0.27,0.41,0.71,0.64,1.16,0.64
	c0.26,0,0.52-0.07,0.75-0.22l0.67-0.44l2.57-1.67l8.5-5.5V71.58z M75.99,64.03l-0.48-0.28c-0.65-0.38-1.5-0.16-1.89,0.5
	c-0.38,0.66-0.16,1.51,0.49,1.89l0.48,0.28c0.22,0.13,0.46,0.19,0.7,0.19c0.48,0,0.94-0.25,1.19-0.69
	C76.87,65.27,76.65,64.42,75.99,64.03z M94.95,75.17l-15.7-9.22c-0.66-0.39-1.51-0.17-1.89,0.49c-0.39,0.66-0.17,1.51,0.49,1.9
	l15.7,9.22c0.22,0.13,0.46,0.19,0.69,0.19c0.48,0,0.94-0.24,1.2-0.68C95.82,76.4,95.6,75.55,94.95,75.17z M86.53,40.45L62.37,26.19
	v-3.36l13.52-8.84l1.32-0.86l0.41-0.27l13.97,7.95l10.4,5.92l-1.01,0.67l-10.37,6.8c-0.64,0.42-0.81,1.28-0.4,1.91
	c0.27,0.41,0.7,0.63,1.15,0.63c0.26,0,0.52-0.07,0.75-0.23l11.14-7.3v1.6l-13.97,9.45v-2.64c0-0.61-0.4-1.11-0.95-1.3
	c-0.06-0.05-0.1-0.11-0.17-0.15l-0.57-0.33c-0.65-0.38-1.5-0.15-1.88,0.51c-0.38,0.66-0.15,1.51,0.51,1.89l0.31,0.18V40.45z
	 M83.73,33.61L65.07,22.84c-0.66-0.38-1.5-0.15-1.88,0.51c-0.38,0.66-0.15,1.51,0.51,1.89l18.66,10.78
	c0.22,0.12,0.46,0.19,0.69,0.19c0.48,0,0.94-0.25,1.19-0.69C84.62,34.84,84.39,34,83.73,33.61z M76.29,48.98l-6.57,4.35L67.17,55
	l-5.51,3.64v-2.59c0-0.61-0.4-1.11-0.94-1.3c-0.06-0.05-0.1-0.11-0.17-0.15L41.86,43.62c-0.65-0.39-1.5-0.17-1.89,0.49
	c-0.38,0.66-0.16,1.51,0.49,1.9L58.9,56.84v1.94L34.55,44.27v-3.39l4.72-3.05L40.56,37l1.28-0.83l8.57-5.54l11.83,6.84l12.78,7.39
	l-9.29,6.02l-1.28,0.83l-1.25,0.81c-0.01,0.01-0.02,0.02-0.03,0.02c-0.61,0.43-0.78,1.26-0.38,1.89c0.26,0.41,0.7,0.63,1.16,0.63
	c0.25,0,0.51-0.07,0.75-0.22l1.07-0.69l1.29-0.83l1.28-0.83l7.94-5.15V48.98z M37.99,41.35l-0.57-0.33
	c-0.66-0.39-1.51-0.17-1.89,0.49c-0.39,0.66-0.17,1.51,0.49,1.89l0.57,0.34c0.22,0.13,0.46,0.19,0.7,0.19
	c0.48,0,0.94-0.25,1.19-0.69C38.87,42.58,38.64,41.74,37.99,41.35z"/>
<path class="st5" d="M183.59,150.44l-2.43,1.86l-1.38,1.06l-0.09,0.07l-1.28-0.77l-1.86-1.1l1.86-1.49l1.38-1.11l0.58-0.47l0.8,0.48
	L183.59,150.44z M125.71,115.7l-4.04,3.25l3.56,2.11l4.02-3.23L125.71,115.7z M150,130.28l-3.94,3.17l3.56,2.12l3.93-3.16
	L150,130.28z M131.79,119.34l-4.01,3.23l3.56,2.12l4-3.22L131.79,119.34z M137.85,122.99l-3.99,3.21l3.56,2.12l3.98-3.2
	L137.85,122.99z M162.14,137.56l-3.9,3.14l3.56,2.12l3.88-3.12L162.14,137.56z M174.29,144.85l-3.85,3.09l3.56,2.12l3.83-3.08
	L174.29,144.85z M168.21,141.21l-3.86,3.11l3.56,2.12l3.85-3.1L168.21,141.21z M143.93,126.63l-3.96,3.19l3.56,2.12l3.95-3.18
	L143.93,126.63z M156.07,133.92l-3.91,3.15l3.56,2.11l3.9-3.14L156.07,133.92z M123.11,114.24l0.07-0.06l-0.09-0.06l-1.46-0.88
	l-1.4-0.83c0,0,0,0-0.01,0c-0.09,0.07-0.2,0.15-0.29,0.23c-0.06,0.05-0.11,0.09-0.17,0.14c-0.09,0.07-0.18,0.14-0.28,0.22
	c-0.17,0.13-0.33,0.25-0.5,0.39c-0.09,0.07-0.17,0.14-0.27,0.2c-0.37,0.29-0.74,0.57-1.11,0.86c-0.08,0.06-0.15,0.12-0.23,0.19
	c-0.19,0.14-0.36,0.28-0.54,0.42c-0.27,0.2-0.52,0.39-0.75,0.57l0.15,0.09l0.28,0.17l1.15,0.68l1.28,0.76l0.18,0.1L123.11,114.24z
	 M104.55,103l-4.1,2.84l3.35,2.02l4.11-2.85L104.55,103z M98.58,99.41l-4.08,2.82l3.35,2.03l4.09-2.83L98.58,99.41z M92.62,95.83
	l-4.07,2.81l3.36,2.02l4.07-2.81L92.62,95.83z M32.95,60.02l-3.88,2.69l3.35,2.02l3.9-2.69L32.95,60.02z M44.88,67.18l-3.92,2.71
	l3.35,2.02l3.93-2.72L44.88,67.18z M21.01,52.85l-3.85,2.66l3.35,2.02l3.86-2.67L21.01,52.85z M38.92,63.6l-3.9,2.7l3.35,2.02
	l3.91-2.7L38.92,63.6z M26.98,56.43l-3.87,2.68l3.36,2.02l3.88-2.69L26.98,56.43z M86.65,92.25l-4.04,2.8l3.35,2.02l4.06-2.8
	L86.65,92.25z M11.08,46.9l-0.71-0.43l-1.41,0.93l-2.51,1.65l0.23,0.14l1.94,1.17l3.82-2.64L11.08,46.9z M68.75,81.51l-3.99,2.76
	l3.36,2.02l4-2.77L68.75,81.51z M62.79,77.93l-3.98,2.75l3.35,2.02l3.98-2.75L62.79,77.93z M15.05,49.27l-3.83,2.65l3.35,2.02
	l3.84-2.65L15.05,49.27z M74.72,85.09l-4.01,2.77l3.35,2.03l4.02-2.78L74.72,85.09z M56.82,74.35l-3.96,2.73l3.35,2.02l3.97-2.74
	L56.82,74.35z M80.69,88.67l-4.03,2.79l3.35,2.02l4.04-2.8L80.69,88.67z M50.85,70.76l-3.94,2.73l3.36,2.02l3.94-2.73L50.85,70.76z
	 M111.95,107.44l-1.38-0.83l-0.06-0.03l-0.41,0.28l-1.67,1.15l-2.05,1.41l1.87,1.13l1.31,0.8c0.02-0.01,0.04-0.03,0.06-0.04
	c0.38-0.27,0.85-0.6,1.38-0.98c0.3-0.22,0.62-0.44,0.96-0.67c0.01-0.01,0.02-0.01,0.02-0.02c0.27-0.19,0.55-0.38,0.83-0.58
	c0.12-0.09,0.25-0.17,0.37-0.26c0.11-0.07,0.22-0.15,0.33-0.22c0.05-0.04,0.1-0.07,0.15-0.1l-0.35-0.21L111.95,107.44z"/>
</svg>
