<?xml version="1.0" encoding="utf-8"?>
<!-- Generator: Adobe Illustrator 25.4.1, SVG Export Plug-In . SVG Version: 6.00 Build 0)  -->
<svg version="1.1" id="Layer_1" xmlns="http://www.w3.org/2000/svg" xmlns:xlink="http://www.w3.org/1999/xlink" x="0px" y="0px"
	 viewBox="0 0 250 165" style="enable-background:new 0 0 250 165;" xml:space="preserve">
<style type="text/css">
	.st0{clip-path:url(#SVGID_00000052091979278362819860000016607144419493787788_);}
	.st1{fill:#3B3E51;}
	.st2{fill:#7887A7;}
	.st3{clip-path:url(#SVGID_00000155121073398519388690000000620436939112471967_);}
	.st4{fill:#669CB6;}
	.st5{fill:#5A6694;}
	.st6{fill:#F8F4E3;}
</style>
<g>
	<defs>
		<rect id="SVGID_1_" x="49.94" y="1.17" width="150.98" height="162"/>
	</defs>
	<clipPath id="SVGID_00000059274649892120768550000012175084936634910644_">
		<use xlink:href="#SVGID_1_"  style="overflow:visible;"/>
	</clipPath>
	<g style="clip-path:url(#SVGID_00000059274649892120768550000012175084936634910644_);">
		<path class="st1" d="M200.85,120.7l-1.28-95.55c0-0.22-0.17-0.39-0.38-0.4C146.56,22.54,56.48,1.39,55.57,1.18
			c-0.03-0.01-0.07-0.01-0.11-0.01c-0.01,0-0.01,0-0.01,0l-3.7,0.36c-0.2,0.02-0.36,0.2-0.36,0.4L50,126.56
			c0,0.15,0.09,0.29,0.22,0.36l3.7,1.92c0.01,0.01,0.01,0.01,0.02,0.01c0.01,0,0.01,0.01,0.02,0.01c0.04,0.02,0.09,0.03,0.14,0.03
			c0,0,0,0,0.01,0l49.17-1.01l-0.08,0.55l-2.78,19.43l-11.59,9.55c-0.01,0.01-0.01,0.01-0.01,0.02c-0.01,0.01-0.02,0.02-0.03,0.03
			c-0.02,0.02-0.03,0.04-0.05,0.06c-0.01,0.01-0.01,0.01-0.02,0.02l-2.38,4.75c-0.06,0.12-0.06,0.26,0.01,0.38
			c0.07,0.12,0.19,0.2,0.32,0.21l4.18,0.3c0.01,0,0.02,0,0.03,0c0.05,0,0.09-0.01,0.13-0.02c0.01-0.01,0.02-0.01,0.03-0.01
			c0.01-0.01,0.02-0.01,0.03-0.01l12.72-6.93l17.68-1.17l68.16,0.99h0.01c0.18,0,0.33-0.12,0.38-0.29c0.05-0.17-0.02-0.36-0.18-0.45
			l-6.46-3.97c-0.06-0.03-0.12-0.06-0.18-0.06l-62.39-3.76l2.14-16.04l0.12-0.9l0.05,0.11c0.06,0.15,0.21,0.24,0.36,0.24
			c0.01,0,0.01,0,0.01,0l2.05-0.05c0.01,0,0.02,0.01,0.03,0.01c0.01,0,0.01,0,0.01,0l8.49-0.2c0.15,0,0.29-0.1,0.36-0.24l1.39-3.16
			l0.02-0.04l64.62-1.33c0.22-0.01,0.39-0.18,0.39-0.4v-4.72C200.87,120.75,200.86,120.72,200.85,120.7z M116.53,127.89
			L116.53,127.89c-1.04,2.28-3.3,3.94-5.67,3.94c-0.17,0-0.36-0.01-0.56-0.04c-0.06-0.06-0.11-0.11-0.17-0.17
			c-0.1-0.12-0.19-0.24-0.28-0.37c-0.02-0.03-0.04-0.07-0.06-0.1c-0.06-0.1-0.13-0.2-0.18-0.3c-0.02-0.03-0.04-0.06-0.06-0.1
			c-0.06-0.13-0.12-0.25-0.17-0.38c-0.01-0.01-0.01-0.02-0.01-0.02c-0.3-0.77-0.41-1.65-0.31-2.57l7.58-0.15
			C116.61,127.7,116.57,127.8,116.53,127.89z"/>
	</g>
</g>
<path class="st2" d="M200.05,120.37l-2.12,0.03l-1.21-92.47c0-0.01-0.01-0.02-0.01-0.02c-0.01-0.05-0.01-0.09-0.03-0.13
	c-0.01-0.02-0.02-0.03-0.03-0.05c-0.02-0.03-0.03-0.05-0.05-0.07c-0.02-0.02-0.03-0.03-0.05-0.04c-0.02-0.02-0.05-0.03-0.07-0.05
	c-0.02-0.01-0.04-0.01-0.06-0.02c-0.03-0.01-0.05-0.02-0.07-0.02C150.69,25.13,79.1,9.5,60.47,5.29c-0.29-0.06-0.57-0.13-0.84-0.19
	c-0.3-0.07-0.58-0.13-0.84-0.19c-0.12-0.03-0.24-0.06-0.35-0.09c-0.12-0.02-0.24,0.01-0.34,0.08C58,4.98,57.94,5.1,57.94,5.22
	l-1.31,117.25l-2.1,0.03L55.87,2.43l0.01-0.36c0.08,0.02,0.17,0.04,0.28,0.06c0.23,0.06,0.52,0.12,0.85,0.2
	c12.35,2.85,92.92,21.08,141.78,23.21L200.05,120.37z M119.96,147.81c0-0.01,0-0.01,0-0.01l2.16-16.27l-1.14-1.07l-0.36-0.33
	l-0.36-0.34l-0.38-0.36c-0.05,0.11-0.1,0.21-0.15,0.3c-0.05,0.09-0.09,0.18-0.13,0.26c-0.06,0.1-0.13,0.21-0.19,0.31
	c-0.05,0.08-0.09,0.17-0.15,0.25c-0.06,0.1-0.14,0.19-0.21,0.29c-0.06,0.08-0.11,0.16-0.17,0.24c-0.07,0.09-0.15,0.17-0.22,0.26
	c-0.06,0.07-0.13,0.16-0.2,0.24c-0.07,0.08-0.15,0.15-0.24,0.23c-0.07,0.07-0.14,0.15-0.22,0.22c-0.08,0.07-0.17,0.14-0.25,0.21
	c-0.07,0.07-0.15,0.14-0.24,0.2c-0.09,0.06-0.18,0.13-0.27,0.19c-0.08,0.06-0.16,0.12-0.25,0.18c-0.09,0.06-0.18,0.11-0.28,0.16
	s-0.18,0.11-0.27,0.16c-0.1,0.05-0.2,0.09-0.29,0.14c-0.09,0.04-0.18,0.09-0.28,0.13c-0.1,0.04-0.21,0.07-0.32,0.11
	c-0.09,0.03-0.18,0.07-0.27,0.1c-0.11,0.03-0.23,0.06-0.34,0.09c-0.09,0.02-0.17,0.05-0.26,0.07c-0.13,0.02-0.26,0.04-0.4,0.06
	c-0.07,0.01-0.14,0.02-0.21,0.03c-0.21,0.02-0.41,0.03-0.62,0.03c-0.18,0-0.37-0.01-0.55-0.03c-0.09-0.01-0.18-0.02-0.28-0.03
	c-0.08-0.01-0.16-0.02-0.24-0.04c-0.11-0.02-0.23-0.05-0.34-0.08c-0.05-0.01-0.1-0.02-0.14-0.04c-0.13-0.03-0.25-0.08-0.37-0.13
	c-0.04-0.01-0.07-0.03-0.11-0.04c-0.13-0.05-0.25-0.11-0.37-0.17c-0.03-0.02-0.06-0.03-0.09-0.05c-0.12-0.06-0.24-0.13-0.35-0.21
	c-0.03-0.02-0.06-0.04-0.09-0.06c-0.11-0.07-0.21-0.15-0.32-0.24c-0.03-0.02-0.06-0.05-0.09-0.07c-0.1-0.09-0.2-0.17-0.29-0.26
	c-0.01-0.01-0.01-0.02-0.02-0.02c-0.1-0.1-0.21-0.21-0.3-0.32c-0.13-0.14-0.24-0.29-0.34-0.45c-0.03-0.06-0.06-0.11-0.1-0.17
	c-0.07-0.1-0.13-0.21-0.19-0.32c-0.04-0.07-0.07-0.14-0.1-0.22c-0.05-0.1-0.1-0.2-0.14-0.3c-0.03-0.08-0.06-0.17-0.09-0.25
	c-0.03-0.1-0.07-0.2-0.1-0.3c-0.03-0.09-0.05-0.18-0.06-0.26c-0.02-0.1-0.05-0.2-0.07-0.3c-0.02-0.09-0.02-0.18-0.03-0.28
	c-0.01-0.04-0.02-0.08-0.02-0.12l-2.37,0.59l-2.68,18.77l0.79,6.69l0.02,0.14l15.29-1.02l0.4-0.03l1.27-0.08l-1.03-6.33
	C119.96,147.88,119.96,147.84,119.96,147.81z M102.57,149.8l-0.06-0.48l-1.17,1l-0.37,0.32l-0.36,0.31l-8.66,7.43l-0.55,3.64
	l10.77-5.87l0.84-0.46l0.24-0.13l-0.03-0.29L102.57,149.8z M120.84,148.28l0.3,1.84l0.67,4.09l66.38,0.97l-5.13-3.15L120.84,148.28z
	 M123.28,129l0.46,1.08l1.23-0.03l-0.92-2.14l-0.63-0.04l-0.4-0.03l-0.26-0.02l0.2,0.46L123.28,129z"/>
<g>
	<defs>
		<rect id="SVGID_00000134941418600387861750000009922036804598398105_" x="50.47" y="1.9" width="149.88" height="161.27"/>
	</defs>
	<clipPath id="SVGID_00000012429935218498368550000012037960539934350244_">
		<use xlink:href="#SVGID_00000134941418600387861750000009922036804598398105_"  style="overflow:visible;"/>
	</clipPath>
	<g style="clip-path:url(#SVGID_00000012429935218498368550000012037960539934350244_);">
		<path class="st4" d="M103.91,129.09l1.21,0.58l-2.63,18.37l-1.25-0.28L103.91,129.09z M52.18,2.3L50.8,126.32l2.9,1.5v-4.92
			c0-0.04,0.01-0.07,0.02-0.11L55.08,2.01L52.18,2.3z M89.3,158.17l-1.97,3.94l3.22,0.23l0.58-3.83L89.3,158.17z M200.06,121.18
			l-3.74,0.05l-0.61,0.01l-0.61,0.01l-76.26,1.11h-0.08l-0.53,0.01h-0.15l-0.56,0.01h-0.19l-0.09,0.01h-0.01l-0.45,0.01l-0.48,0.01
			l-46.92,0.68L57,123.26l-2.49,0.04H54.5v4.78l16.43-0.34l16.85-0.34l18.05-0.37l2.88-0.06h0.18l8.03-0.17l0.41-0.01h0.01
			l0.41-0.01h0.01l1.98-0.04l0.2-0.01h0.21l0.4-0.01l0.68-0.01l0.77-0.02c0.01,0,0.01,0,0.02,0l0.25-0.01l0.53-0.01l0.34-0.01
			l0.18-0.01l10.18-0.21c0,0,0.01,0,0.01,0l2.09-0.05l64.48-1.32L200.06,121.18L200.06,121.18z M133.17,127.58l-0.44,0.02
			l-7.81,0.31l0.92,2.11v0.01l6.31-0.15l0.44-0.01l1.22-0.03l1.03-2.33l-1.23,0.05L133.17,127.58z"/>
	</g>
</g>
<path class="st5" d="M117.11,128.52l2.09,0.51c-1.01,2.35-3.31,4.08-5.72,4.08c-0.18,0-0.36-0.01-0.53-0.03
	c-0.07-0.01-0.13-0.02-0.2-0.03c-0.1-0.01-0.2-0.03-0.3-0.05c-0.07-0.02-0.15-0.04-0.23-0.06c-0.09-0.03-0.17-0.05-0.25-0.08
	c-0.07-0.02-0.14-0.05-0.22-0.08c-0.09-0.04-0.17-0.07-0.26-0.11c-0.03-0.02-0.06-0.03-0.09-0.05
	C113.76,132.39,115.96,130.76,117.11,128.52z M195.75,120.15l-0.4-0.25l-0.11-0.07l-0.29,0.01h-0.26l-0.61,0.01l-0.61,0.01
	l-136.03,1.98l-0.01,0.61l58.24-0.87l0.49-0.01l0.37-0.01h0.07l0.89-0.02h0.18l76.45-1.14l0.61-0.01h0.22l0.38-0.01h0.02l0.79-0.01
	l-0.03-0.02L195.75,120.15z M195.93,28.34h-1.38l1.19,90.86l1.39,0.85L195.93,28.34z"/>
<path class="st6" d="M101.14,148.57l0.82,0.18l-1.08,0.93L100.5,150l-8.44,7.24l-0.6,0.51l-1.46-0.27l10.37-8.54l0.37-0.3l0.15-0.13
	L101.14,148.57z M106.3,78.85l-13.24,8.13c-0.18,0.11-0.25,0.36-0.13,0.55c0.07,0.13,0.21,0.2,0.34,0.2c0.07,0,0.14-0.02,0.21-0.06
	l13.24-8.13c0.18-0.11,0.25-0.36,0.13-0.55C106.73,78.79,106.49,78.74,106.3,78.85z M110.02,76.57l-1.34,0.82
	c-0.19,0.12-0.25,0.37-0.14,0.56c0.08,0.13,0.21,0.2,0.34,0.2c0.07,0,0.14-0.02,0.21-0.06l1.34-0.82c0.19-0.11,0.25-0.37,0.13-0.56
	C110.45,76.51,110.21,76.45,110.02,76.57z M91.01,89.11c0.07,0,0.14-0.02,0.21-0.06l0.67-0.41c0.19-0.11,0.25-0.36,0.14-0.55
	c-0.11-0.19-0.36-0.25-0.55-0.14l-0.67,0.41c-0.19,0.11-0.25,0.36-0.13,0.56C90.74,89.05,90.87,89.11,91.01,89.11z M126.28,67.05
	c-0.11-0.19-0.36-0.25-0.55-0.13l-13.24,8.13c-0.19,0.12-0.25,0.37-0.13,0.56c0.07,0.13,0.21,0.2,0.34,0.2
	c0.07,0,0.14-0.02,0.21-0.06l13.24-8.13C126.34,67.49,126.4,67.25,126.28,67.05z M152.54,50.73l-21.12,12.74
	c-0.19,0.11-0.25,0.36-0.14,0.55c0.07,0.13,0.21,0.2,0.34,0.2c0.07,0,0.14-0.02,0.21-0.05l21.12-12.74
	c0.19-0.11,0.25-0.36,0.14-0.55C152.98,50.68,152.73,50.62,152.54,50.73z M156.41,48.87c-0.11-0.19-0.36-0.25-0.55-0.14l-1.29,0.77
	c-0.19,0.11-0.25,0.36-0.14,0.56c0.07,0.13,0.21,0.2,0.34,0.2c0.07,0,0.14-0.02,0.2-0.06l1.3-0.78
	C156.46,49.31,156.52,49.06,156.41,48.87z M128.06,66.37c0.07,0,0.14-0.02,0.21-0.06l1.29-0.78c0.05-0.03,0.09-0.07,0.12-0.11
	c0.09-0.13,0.1-0.3,0.02-0.44c-0.11-0.19-0.36-0.25-0.55-0.14l-0.09,0.05l-1.21,0.73c-0.19,0.11-0.25,0.36-0.14,0.55
	C127.8,66.3,127.93,66.37,128.06,66.37z M142.73,72.46l-2.08,1.26l-0.37,0.22l-0.36,0.22l-18.3,11.04
	c-0.19,0.11-0.25,0.36-0.14,0.55c0.07,0.13,0.21,0.2,0.34,0.2c0.07,0,0.14-0.02,0.21-0.06l18.54-11.18l0.36-0.22l0.36-0.22
	l1.85-1.11c0.19-0.11,0.25-0.36,0.14-0.55C143.17,72.41,142.92,72.35,142.73,72.46z M146.05,70.47l-1.29,0.78
	c-0.19,0.11-0.25,0.36-0.14,0.55c0.07,0.13,0.21,0.2,0.34,0.2c0.07,0,0.14-0.02,0.2-0.06l1.3-0.78c0.19-0.11,0.25-0.36,0.14-0.55
	C146.49,70.41,146.24,70.35,146.05,70.47z M119.34,86.57l-1.29,0.78c-0.19,0.11-0.25,0.36-0.14,0.55c0.07,0.13,0.21,0.2,0.34,0.2
	c0.07,0,0.14-0.02,0.21-0.06l1.29-0.78c0.19-0.11,0.25-0.36,0.14-0.56C119.78,86.52,119.53,86.46,119.34,86.57z"/>
</svg>
