<?xml version="1.0" encoding="utf-8"?>
<!-- Generator: Adobe Illustrator 25.4.1, SVG Export Plug-In . SVG Version: 6.00 Build 0)  -->
<svg version="1.1" id="Layer_1" xmlns="http://www.w3.org/2000/svg" xmlns:xlink="http://www.w3.org/1999/xlink" x="0px" y="0px"
	 viewBox="0 0 250 165" style="enable-background:new 0 0 250 165;" xml:space="preserve">
<style type="text/css">
	.st0{clip-path:url(#SVGID_00000155838220721622355360000008536095178894198696_);}
	.st1{fill:#3B3E51;}
	.st2{fill:#5A6694;}
	.st3{fill:#7887A7;}
	.st4{fill:#669CB6;}
	.st5{fill:#F8F4E3;}
</style>
<g>
	<defs>
		<rect id="SVGID_1_" x="43.5" y="1.67" width="162.94" height="163"/>
	</defs>
	<clipPath id="SVGID_00000003081889882058599780000017209221807401955984_">
		<use xlink:href="#SVGID_1_"  style="overflow:visible;"/>
	</clipPath>
	<g style="clip-path:url(#SVGID_00000003081889882058599780000017209221807401955984_);">
		<path class="st1" d="M204.4,44.31c-2.01,7.15-6.61,13.96-11.99,18.22c-0.06,0.05-0.14,0.11-0.2,0.16
			c-0.51,0.4-1.03,0.78-1.56,1.13c-0.01,0.01-0.02,0.02-0.03,0.02c-0.51,0.34-1.01,0.64-1.52,0.93c-0.06,0.04-0.13,0.08-0.19,0.11
			c-0.54,0.29-1.07,0.56-1.6,0.79c-0.94,0.41-2,0.78-3.14,1.08l-18.37,4.89l-0.05,0.01l-0.02,0.01c0,0,0,0-0.01,0
			c-2.68,0.8-5.69,1.2-9,1.2c-0.2,0-0.41-0.01-0.61-0.02l12.34,1.44l19.24,2.23c0.03,0,0.05,0.02,0.08,0.02
			c0.58,0.08,1.33,0.27,2.05,1.03c1.9,1.99,2.35,6.39,2.15,9.85c-0.29,4.99-2.05,10.34-5.2,10.73l4.17,7.32
			c0.25,0.45,0.29,0.98,0.09,1.46l-23.54,56.72c-0.02,0.06-0.06,0.11-0.1,0.17c-0.04,0.06-0.06,0.12-0.11,0.18
			c-0.06,0.09-0.14,0.16-0.22,0.24c-0.05,0.04-0.09,0.09-0.14,0.12c-0.11,0.08-0.22,0.13-0.34,0.18c-0.04,0.01-0.07,0.04-0.11,0.05
			c-0.15,0.05-0.32,0.08-0.49,0.09c-0.01,0-0.02,0-0.04,0c-0.12,0-0.23-0.01-0.35-0.04l-58.37-12.58c-0.22-0.05-0.42-0.14-0.61-0.27
			c-0.37-0.27-9.14-6.44-12.12-10.19c-2.22-2.79-2.15-6.32,0.25-12.2c0.57-1.4,1.31-3.15,2.16-5.13
			c-7.69-1.55-13.94-2.85-16.05-3.33c-2.13-0.48-5.37-2.39-7.17-4.99c-1.4-2.02-2.44-5.71-2.64-9.39
			c-0.21-3.76-0.51-11.47-0.61-15.58l-0.02-0.82c-0.07-2.39-0.15-4.85,1.29-7.03c1.61-2.43,4.22-3.38,6.97-4.23
			c0.71-0.21,1.78-0.51,3.09-0.87h0.01c5.24-1.42,14.56-3.78,22.56-5.8c0.01-0.9,0.01-2.81,0.01-4.16
			c-14.95-1.52-28.21-2.93-33.15-3.59c-6.38-0.85-15.49-3.08-21.01-12.62c-1.54-2.66-6.49-12.32-5.58-24.9
			c0.74-10.18,5.32-16.5,9.04-20c2.6-2.45,6.5-5.26,13.64-5.26c0.02,0,0.05,0,0.08,0c6.7,0.02,16.17,0.02,26.5,0.01
			c0.03-0.01,0.06-0.01,0.09-0.01c1.35,0,2.84,0.01,4.41,0.01c4.33-0.01,8.75-0.01,13.15-0.01c14.22-0.02,27.84-0.03,36.87-0.02
			c11.88-0.01,22.03-0.01,27.06,0.02c6.3,0.04,13.67,1.17,20.54,9.27C204.34,20.83,207.49,33.29,204.4,44.31z"/>
	</g>
</g>
<path class="st2" d="M201.2,43.41c-1.76,6.29-5.48,11.66-9.41,15.26c-5.38,2.84-6.99,2.04-7.36,1.72c-1.19-1.03-0.56-4.81,0.25-7.05
	c0,0,0-0.01,0-0.01c0.86-1.85,1.58-3.75,2.12-5.68c3.34-11.89-0.06-25.34-9.08-35.97c-2.61-3.07-5.28-5.2-7.95-6.69
	c2.26,0.01,4.19,0.01,5.65,0.02c5.83,0.04,12.04,1.04,18.03,8.1C201.1,22.14,203.99,33.46,201.2,43.41z M187.4,79.94
	c-0.04,0.04-0.08,0.09-0.12,0.14c-0.45,0.56-1.2,2.11-1.66,4.59c-0.06,0.32-0.12,0.66-0.17,1.01c-0.05,0.38-0.09,0.8-0.12,1.22
	c-0.02,0.19-0.04,0.37-0.05,0.58c0,0.01,0,0.02,0,0.04c-0.01,0.21-0.01,0.38-0.02,0.58c-0.01,0.42-0.02,0.83-0.01,1.21
	c0.06,3.14,0.79,5.04,1.24,5.52c0.01-0.01,0.03-0.04,0.05-0.05c0.52-0.51,1.73-2.9,2.07-6.97c0.01-0.01,0.01-0.02,0.01-0.03
	c0.01-0.18,0.04-0.34,0.05-0.53c0.01-0.21,0.01-0.4,0.02-0.6c0.13-3.87-0.73-6.21-1.23-6.74C187.42,79.89,187.41,79.92,187.4,79.94z
	"/>
<path class="st3" d="M175.18,13.84c-6.51-7.68-13.28-8.78-19.62-8.81c-1.8-0.01-4.23-0.02-7.13-0.02
	c-9.02-0.02-22.66-0.01-36.91,0.01c-5.29,0.01-10.63,0.01-15.78,0.02c-0.81,0-1.63,0-2.43,0C83.19,5.04,73.93,5.04,67.35,5.03
	c-0.02,0-0.05,0-0.07,0c-5.94,0-9.07,2.2-11.35,4.36c-3.29,3.1-7.35,8.71-8.01,17.83c-0.84,11.63,3.72,20.54,5.14,22.99
	c4.78,8.28,12.89,10.24,18.57,11c5.03,0.67,19.36,2.2,35.19,3.79l29.57,2.89c6.5,0.61,12.34,1.14,16.81,1.52
	c3.2,0.27,6.09,0.18,8.69-0.25c0.68-0.12,1.36-0.25,2-0.41c0.64-0.16,1.25-0.34,1.84-0.55c0.45-0.16,0.89-0.32,1.31-0.51
	c4.44-1.93,9.71-6.77,13.35-13.24c0.31-0.54,0.6-1.1,0.87-1.66c0.27-0.54,0.52-1.09,0.77-1.65c0.61-1.4,1.14-2.85,1.56-4.36
	C186.63,35.94,183.49,23.63,175.18,13.84z M172.18,15.72c0.7-0.6,1.75-0.51,2.34,0.19c0.54,0.64,1.02,1.31,1.48,1.96l0.42,0.6
	c0.54,0.74,0.38,1.78-0.37,2.32c-0.29,0.22-0.64,0.32-0.97,0.32c-0.51,0-1.02-0.24-1.34-0.68l-0.45-0.62
	c-0.44-0.62-0.85-1.2-1.31-1.74C171.39,17.36,171.48,16.31,172.18,15.72z M103.34,12.14c0.41-0.04,0.81-0.08,1.22-0.08
	c0.05,0,0.49,0,1.13,0c1.58,0,4.39,0,5.55,0.02c9.69,0.14,17.62,9.96,18.15,22.13c0.02,0.43,0.05,0.86,0.05,1.3
	c0,0.33-0.02,0.66-0.04,0.99c-0.02,0.72-0.07,1.43-0.15,2.13c-1.18,11.11-8.52,19.93-17.4,20.26c-1.6,0.06-6.2,0.02-6.38,0.02
	c-0.05,0-0.11,0-0.16-0.01c-0.25,0.02-0.5,0.04-0.75,0.04C94.32,58.96,86,48.44,86,35.51c0-11.5,6.59-21.08,15.25-23.05
	C101.93,12.3,102.63,12.2,103.34,12.14z M120.4,6.81h1.21c0.92,0,1.66,0.74,1.66,1.66c0,0.92-0.74,1.66-1.66,1.66h-1.21
	c-0.91,0-1.66-0.74-1.66-1.66C118.75,7.56,119.49,6.81,120.4,6.81z M154.58,6.84c1.63-0.01,3.37,0.02,5.14,0.24
	c3.66,0.42,7.08,1.79,9.89,3.95c0.73,0.55,0.86,1.6,0.31,2.33c-0.33,0.42-0.83,0.65-1.32,0.65c-0.35,0-0.71-0.11-1.01-0.34
	c-2.34-1.79-5.2-2.93-8.27-3.29c-1.59-0.19-3.21-0.22-4.74-0.21l-24.75-0.03c-0.92,0-1.66-0.74-1.66-1.66
	c0-0.91,0.75-1.66,1.66-1.66L154.58,6.84z M68.84,6.84l26.4-0.01h15.52c0.92,0,1.66,0.74,1.66,1.66c0,0.92-0.74,1.66-1.66,1.66h-7.1
	l-2.43,0.01h-2.43l-29.96,0.01c-0.91,0-1.66-0.75-1.66-1.66C67.18,7.59,67.92,6.84,68.84,6.84z M56.67,11.21
	c1.26-1.29,2.51-2.23,3.78-2.89c0.82-0.42,1.82-0.09,2.23,0.73c0.42,0.81,0.09,1.82-0.73,2.23c-0.96,0.49-1.92,1.23-2.93,2.26
	c-0.32,0.33-0.75,0.5-1.19,0.5c-0.42,0-0.84-0.16-1.16-0.48C56.03,12.91,56.02,11.86,56.67,11.21z M65.5,56.29
	c-0.27,0.62-0.88,0.99-1.52,0.99c-0.22,0-0.45-0.05-0.67-0.14c-3.55-1.57-6.56-4.24-8.48-7.51c-1.73-2.9-3.1-6.31-4.05-10.14
	c-0.9-3.65-1.27-7.3-1.12-10.87c0.12-3.94,0.93-7.58,2.4-10.79c0.38-0.84,1.36-1.2,2.2-0.82c0.84,0.38,1.2,1.37,0.82,2.2
	c-1.29,2.8-1.99,6.01-2.1,9.52c-0.14,3.27,0.21,6.61,1.03,9.95c0.88,3.51,2.12,6.62,3.68,9.25c1.58,2.68,4.06,4.87,6.97,6.17
	C65.5,54.47,65.88,55.45,65.5,56.29z M70.85,59.23c-0.09,0-0.18-0.01-0.27-0.02c-0.73-0.12-1.46-0.25-2.18-0.41
	c-0.9-0.2-1.46-1.08-1.27-1.98c0.2-0.9,1.09-1.47,1.98-1.27c0.66,0.15,1.32,0.27,1.99,0.38c0.9,0.15,1.52,1,1.38,1.9
	C72.36,58.65,71.65,59.23,70.85,59.23z M81.47,60.46c-0.05,0-0.11,0-0.17-0.01l-3.17-0.32c-0.91-0.09-1.58-0.9-1.49-1.82
	c0.09-0.91,0.93-1.57,1.82-1.49l3.17,0.32c0.91,0.09,1.57,0.91,1.49,1.82C83.04,59.82,82.31,60.46,81.47,60.46z M138.22,66.13
	c-0.06,0-0.11,0-0.17-0.01l-51.78-5.18c-0.91-0.09-1.58-0.9-1.49-1.82c0.09-0.91,0.91-1.57,1.82-1.49l51.78,5.18
	c0.91,0.09,1.58,0.91,1.49,1.82C139.78,65.49,139.06,66.13,138.22,66.13z M146.97,67c-0.06,0-0.11,0-0.17-0.01l-3.17-0.32
	c-0.91-0.09-1.58-0.9-1.49-1.82c0.09-0.91,0.92-1.56,1.82-1.49l3.17,0.32c0.91,0.09,1.58,0.91,1.49,1.82
	C148.53,66.36,147.81,67,146.97,67z M159.23,66.66c-0.23,0.59-0.78,1.02-1.46,1.06c-0.24,0.01-0.47,0.01-0.71,0.01
	c-0.56,0-1.1-0.02-1.63-0.05l-0.85-0.04c-0.92-0.03-1.64-0.8-1.61-1.72c0.03-0.9,0.77-1.6,1.66-1.6c0.02,0,0.04,0,0.05,0
	c0.3,0.01,0.6,0.02,0.9,0.04c0.42,0.02,0.83,0.04,1.23,0.04c0.27,0,0.54,0.01,0.8-0.01c0.93-0.05,1.69,0.67,1.74,1.59
	C159.37,66.22,159.32,66.45,159.23,66.66z M180.95,48.97c-0.27,0.71-0.58,1.42-0.9,2.12c-0.26,0.56-0.53,1.11-0.81,1.66
	c-0.29,0.55-0.6,1.11-0.92,1.65c-1.21,2.03-2.62,3.96-4.2,5.69c-3.23,3.48-6.48,5.68-9.89,6.68c-0.48,0.14-0.96,0.26-1.45,0.35
	c-0.11,0.02-0.21,0.03-0.31,0.03c-0.11,0-0.21-0.03-0.32-0.05c-0.61-0.12-1.11-0.57-1.28-1.2c-0.01-0.03-0.03-0.06-0.04-0.09
	c-0.12-0.64,0.15-1.25,0.63-1.62c0.2-0.15,0.42-0.28,0.69-0.32c3.23-0.62,6.34-2.59,9.52-6.03c0.98-1.08,1.87-2.26,2.71-3.48
	c0.37-0.54,0.74-1.08,1.07-1.64c0.32-0.54,0.62-1.1,0.91-1.66c0.55-1.07,1.06-2.16,1.49-3.27c1.4-3.6,1.97-7.59,1.65-11.57
	c-0.32-3.87-1.42-7.8-3.2-11.37c-0.41-0.83-0.07-1.82,0.75-2.23c0.83-0.41,1.82-0.07,2.23,0.75c1.96,3.94,3.18,8.3,3.53,12.58
	C183.16,40.42,182.52,44.92,180.95,48.97z M168.42,95.69c-3.72,1.45-7.03,2.78-8.9,3.61c-2.15,0.97-2.88,1.29-3.09,6.2
	c-0.07,1.61-0.12,3.3-0.18,5.06c-0.11,3.41-0.22,7.28-0.51,11.39c-0.14,2.04-0.91,4.92-2.65,6.89c-1.69,1.92-4.3,2.83-7.02,3.21
	c-0.07,0.01-0.14,0.02-0.2,0.03c-0.19,0.02-0.37,0.05-0.55,0.06c-1.71,0.19-4.01,0.27-6.73,0.27c-11.61,0-30.52-1.49-40.52-2.35
	c-0.08,0.19-0.17,0.4-0.24,0.58c-0.96,2.36-1.41,4.07-1.55,5.36l2.75,0.58c0.9,0.19,1.47,1.07,1.29,1.97
	c-0.17,0.78-0.85,1.32-1.63,1.32c-0.11,0-0.22-0.01-0.34-0.04l-1.2-0.25c2.46,3.05,9.62,8.24,11.11,9.3l54.78,11.8
	c-0.78-1.67-1.67-3.6-2.12-4.56c-0.57-1.23-0.87-2.33-1.01-3.35l-2.92-0.61c-0.9-0.19-1.47-1.07-1.28-1.97
	c0.19-0.9,1.07-1.46,1.96-1.29l2.28,0.48c0.17-0.93,0.42-1.73,0.65-2.41c2.58-7.77,16.91-40.83,20.69-49.49
	c0-0.01,0.01-0.02,0.01-0.04L168.42,95.69z M154.28,149.89c-0.17,0.78-0.86,1.32-1.63,1.32c-0.11,0-0.23-0.01-0.34-0.04
	l-48.71-10.23c-0.9-0.19-1.47-1.07-1.29-1.97c0.19-0.9,1.07-1.46,1.97-1.29l48.71,10.23C153.89,148.11,154.46,148.99,154.28,149.89z
	 M98.27,121.15c0.55,0.11,1.1,0.22,1.66,0.34c0.55,0.11,1.11,0.22,1.67,0.34c7.76,1.56,16.4,3.25,23.55,4.59
	c3.83,0.72,7.22,1.33,9.82,1.77c0.45,0.08,0.9,0.12,1.33,0.15c0.77,0.05,1.49,0.02,2.18-0.09c1.01-0.15,1.93-0.48,2.76-0.98
	c0.45-0.27,0.88-0.58,1.27-0.95c1.93-1.79,2.16-3.14,2.26-4.58c0.42-6.08,0.68-18.42,0.68-24.58c0-0.57,0.03-1.08,0.08-1.56
	l-2.84-0.39c-0.91-0.12-1.54-0.96-1.42-1.87c0.08-0.56,0.45-1,0.92-1.24c0.29-0.15,0.61-0.24,0.95-0.18l3.29,0.45
	c0.25-0.48,0.54-0.88,0.85-1.24c0.53-0.61,1.14-1.07,1.79-1.43c0.48-0.27,0.98-0.48,1.47-0.67c3.34-1.24,9.63-3.43,16.04-5.62
	c0.55-0.19,1.11-0.38,1.66-0.57c0.55-0.19,1.11-0.38,1.66-0.57c2.45-0.84,4.84-1.64,7.02-2.38c0.96-0.32,1.89-0.64,2.75-0.93
	l-6.12-0.71l-3.66-0.43l-1.66-0.19l-0.08-0.01c-0.54-0.04-1.06-0.06-1.59-0.1c-10.87-0.65-18.75-0.08-24.34,0.91
	c-2.84,0.5-5.1,1.1-6.86,1.7c-2.42,0.83-3.91,1.63-4.73,2.16c-2.19,1.92-5.58,3.12-9.45,3.12c-3.54,0-6.67-1.01-8.86-2.65
	c-0.4-0.29-0.78-0.61-1.11-0.95c-0.12-0.1-0.29-0.22-0.5-0.36c-0.49-0.32-1.23-0.74-2.27-1.14c-3.57-1.4-10.65-2.68-23.16,0.28
	l-2.71,0.69c-1.26,0.34-2.28,0.62-2.97,0.84c-0.94,0.29-1.75,0.55-2.43,0.84l0.67,0.09c0.91,0.12,1.54,0.96,1.42,1.87
	c-0.11,0.83-0.83,1.44-1.64,1.44c-0.08,0-0.15-0.01-0.22-0.02l-3.32-0.45c-0.02-0.01-0.04-0.02-0.06-0.02
	c-0.4,1.17-0.37,2.61-0.31,4.22l0.02,0.84c0.02,0.84,0.05,1.83,0.08,2.9c0.13,4.16,0.35,9.6,0.52,12.58
	c0.16,3.01,1.01,6.16,2.05,7.67c0.94,1.35,2.6,2.58,4.01,3.22c0.42,0.19,0.82,0.34,1.17,0.42C83.76,118.19,90.3,119.55,98.27,121.15
	z M83.73,83.83l7.04,0.96l4.36,0.59l4.39,0.6l13.72,1.86l1.72,0.24l23,3.12c0.34,0.05,0.62,0.21,0.86,0.42
	c0.4,0.36,0.64,0.88,0.56,1.44c-0.11,0.83-0.83,1.44-1.64,1.44c-0.07,0-0.15-0.01-0.22-0.02l-22.27-3.02l-1.72-0.23L111.8,91
	l-20.83-2.83l-4.3-0.58l-3.39-0.46c-0.19-0.03-0.37-0.1-0.54-0.19c-0.6-0.31-0.98-0.97-0.88-1.68
	C81.98,84.34,82.83,83.7,83.73,83.83z M118.52,78.56c3.88,0,8-0.21,11.23-0.47c-0.05,0.14-0.11,0.27-0.18,0.4
	c-0.22,0.41-0.54,0.78-0.93,1.14c-0.19,0.18-0.41,0.36-0.64,0.53c-0.78,0.56-1.76,1.02-2.88,1.35c-1.19,0.35-2.51,0.56-3.91,0.56
	c-1.4,0-2.72-0.21-3.91-0.56c-0.41-0.12-0.81-0.27-1.19-0.42c-0.47-0.2-0.9-0.42-1.29-0.67c-0.54-0.34-1-0.71-1.37-1.11
	c-0.06-0.07-0.12-0.14-0.17-0.21c-0.19-0.24-0.35-0.48-0.48-0.74c0.89,0.07,1.83,0.12,2.82,0.15
	C116.56,78.53,117.53,78.56,118.52,78.56z M107.66,71.42c0-0.88,0-2.03-0.01-2.99v-0.01l8.67,0.84l0.04,0.01h0.01l12.59,1.23
	l5.81,0.57v0.73c0,0.09-0.01,0.17-0.02,0.26c-0.04,0.73-0.23,1.24-0.56,1.61c-0.34,0.38-0.84,0.61-1.47,0.75
	c-0.35,0.08-0.73,0.14-1.16,0.18c-0.19,0.02-0.4,0.04-0.61,0.06c-0.58,0.05-1.21,0.11-1.89,0.16c-4.68,0.35-11.3,0.61-15.93,0.24
	c-0.65-0.05-1.25-0.11-1.81-0.19c-0.07-0.01-0.15-0.02-0.22-0.03c-0.58-0.08-1.06-0.19-1.47-0.32c-0.06-0.02-0.14-0.04-0.19-0.06
	c-0.03-0.01-0.05-0.02-0.08-0.03c-1-0.37-1.43-0.84-1.6-1.26c-0.01-0.02-0.01-0.04-0.02-0.05c-0.11-0.29-0.1-0.56-0.1-0.74
	c0.01-0.24,0.01-0.54,0.01-0.89C107.66,71.46,107.66,71.43,107.66,71.42z"/>
<path class="st4" d="M164.84,93.52c-1.11,0.44-2.16,0.86-3.12,1.25c-1.42,0.58-2.66,1.1-3.56,1.5c-3.51,1.57-4.79,3.18-5.05,9.09
	c-0.07,1.62-0.12,3.32-0.18,5.1c-0.11,3.38-0.22,7.22-0.51,11.27c-0.1,1.42-0.64,3.57-1.83,4.92c-0.9,1.02-2.41,1.64-4.21,1.98
	c-0.56,0.11-1.14,0.18-1.75,0.24c0.05-0.04,0.09-0.08,0.14-0.12c0.15-0.15,0.28-0.29,0.42-0.43c2.28-2.32,2.76-4.43,2.89-6.36
	c0.43-6.15,0.69-18.59,0.69-24.81c0-2.17,0.48-3.32,1.14-4c0.54-0.55,1.18-0.8,1.8-1.03c0.25-0.09,0.52-0.19,0.8-0.29
	c0.96-0.35,2.1-0.76,3.38-1.21c3.03-1.07,6.81-2.38,10.69-3.71c0.55-0.19,1.11-0.38,1.66-0.57c0.55-0.19,1.11-0.38,1.66-0.57
	c4.93-1.68,9.73-3.3,13.12-4.44c-0.58,1.72-0.93,3.7-1.07,5.64c-3.25,1.22-7.74,2.91-12.05,4.57c-0.56,0.21-1.11,0.42-1.66,0.64
	c-0.08,0.04-0.16,0.06-0.24,0.09c-0.48,0.19-0.95,0.37-1.42,0.55C166,93.07,165.42,93.3,164.84,93.52z M184.26,100.46l-0.37-0.65
	c-0.77,1.76-1.82,4.19-3.05,7.03c-1.33,3.09-2.88,6.66-4.48,10.41c-5.22,12.21-11.1,26.18-12.6,30.74c-0.61,1.83-1.23,3.7,0.18,6.73
	c0.34,0.75,0.97,2.08,1.59,3.43c0.12,0.24,0.23,0.49,0.34,0.73l3.27-7.87l4.76-11.47l13.75-33.13L184.26,100.46z M126.03,33.35
	c0.06,0.71,0.09,1.43,0.09,2.16c0,0.06-0.01,0.12-0.01,0.19c-0.06,9.21-4.85,17.09-11.23,19.27c0.51-0.43,1-0.88,1.48-1.37
	c2.69-2.84,4.68-6.48,5.75-10.54c0.24-0.88-0.29-1.79-1.18-2.03c-0.88-0.23-1.8,0.29-2.03,1.18c-0.93,3.53-2.65,6.67-4.94,9.09
	c-2.55,2.63-5.76,4.19-8.79,4.29c-0.01,0-0.01,0-0.01,0l-0.13,0.01c-0.17,0.02-0.32,0.03-0.48,0.03c-8.41,0-15.25-9.03-15.25-20.12
	c0-11.02,6.74-19.99,15.07-20.12c0.06,0,0.12-0.01,0.18-0.01c0.02,0,0.18,0,0.42,0c0.02,0,0.06,0,0.09,0
	c0.02,0.01,0.04,0.01,0.05,0.02c0.34,0.02,0.68,0.05,1.02,0.09c0.07,0.01,0.15,0.01,0.22,0.01c0.17,0,0.32-0.04,0.48-0.09
	c0.04-0.01,0.09-0.02,0.13-0.04c0.21,0.01,0.43,0.01,0.65,0.01c0.19,0.29,0.46,0.54,0.82,0.67c1.27,0.44,2.51,1.14,3.67,2.03
	c0.85,0.65,1.66,1.39,2.4,2.24c0.58,0.66,1.12,1.37,1.62,2.14c0.63,0.99,1.16,2.07,1.64,3.18c0.46,1.07,0.85,2.19,1.15,3.35
	c0.29,1.09,0.52,2.2,0.67,3.35c0.1,0.84,0.82,1.46,1.64,1.46c0.07,0,0.14-0.01,0.2-0.01c0.67-0.08,1.2-0.55,1.39-1.16
	c0.06-0.22,0.09-0.45,0.06-0.69c-0.07-0.6-0.17-1.2-0.28-1.79c-0.18-1-0.42-1.98-0.71-2.93c-0.7-2.36-1.7-4.58-2.98-6.57
	c-1.14-1.74-2.47-3.25-3.93-4.52c5.25,1.93,9.36,7.54,10.66,14.59C125.83,31.59,125.96,32.46,126.03,33.35z M117.04,35.51
	c0-8.61-5.6-15.61-12.47-15.61c-6.89,0-12.48,7-12.48,15.61c0,8.6,5.59,15.6,12.48,15.6C111.44,51.11,117.04,44.11,117.04,35.51z
	 M123.1,36.29c0.04-0.92-0.67-1.7-1.58-1.74c-0.9-0.04-1.7,0.66-1.74,1.58l-0.02,0.58c-0.02,0.54-0.04,1.06-0.11,1.53
	c-0.14,0.91,0.48,1.76,1.39,1.9c0.08,0.01,0.17,0.02,0.25,0.02c0.8,0,1.51-0.59,1.64-1.41c0.1-0.67,0.12-1.3,0.15-1.92L123.1,36.29z
	"/>
<path class="st5" d="M108.16,35.51c0,2.77-1.64,5.12-3.6,5.12s-3.6-2.35-3.6-5.12c0-2.78,1.65-5.12,3.6-5.12
	S108.16,32.74,108.16,35.51z"/>
</svg>
