<?xml version="1.0" encoding="utf-8"?>
<!-- Generator: Adobe Illustrator 25.4.1, SVG Export Plug-In . SVG Version: 6.00 Build 0)  -->
<svg version="1.1" id="Layer_1" xmlns="http://www.w3.org/2000/svg" xmlns:xlink="http://www.w3.org/1999/xlink" x="0px" y="0px"
	 viewBox="0 0 250 165" style="enable-background:new 0 0 250 165;" xml:space="preserve">
<style type="text/css">
	.st0{clip-path:url(#SVGID_00000123432685609023088460000014119278805133394607_);}
	.st1{fill:#3B3E51;}
	.st2{fill:#5A6694;}
	.st3{fill:#7887A7;}
	.st4{fill:#F8F4E3;}
	.st5{fill:#FFE84D;}
</style>
<g>
	<defs>
		<rect id="SVGID_1_" x="48.92" y="2.5" width="158.86" height="160"/>
	</defs>
	<clipPath id="SVGID_00000005261408156029746430000007796492545418051476_">
		<use xlink:href="#SVGID_1_"  style="overflow:visible;"/>
	</clipPath>
	<g style="clip-path:url(#SVGID_00000005261408156029746430000007796492545418051476_);">
		<path class="st1" d="M207.78,124.1v5.54c0,0.73-0.49,1.37-1.18,1.55l-20.58,5.33c-0.08,0.02-0.16,0.01-0.24,0.02
			c-0.05,0.01-0.1,0.03-0.15,0.03c-0.02,0-0.04-0.01-0.07-0.01c-0.15-0.01-0.3-0.04-0.45-0.09c-0.04-0.02-0.08-0.02-0.12-0.04
			c-0.18-0.08-0.34-0.18-0.48-0.32c-0.04-0.04-0.06-0.08-0.09-0.12c-0.08-0.09-0.16-0.18-0.21-0.29c-0.1-0.16-0.59-0.79-1.89-0.46
			c-0.38,0.1-0.56,0.46-0.54,1.08v0.13c0,0.05-0.02,0.1-0.03,0.16c-0.02,0.13-0.04,0.27-0.08,0.39c-0.03,0.08-0.07,0.14-0.11,0.21
			c-0.05,0.1-0.11,0.2-0.19,0.29c-0.05,0.06-0.11,0.11-0.17,0.17c-0.08,0.07-0.18,0.13-0.28,0.18c-0.07,0.04-0.14,0.07-0.23,0.1
			c-0.04,0.02-0.08,0.05-0.13,0.06l-69.26,16.86c-0.09,0.02-0.17,0.02-0.26,0.02c-0.04,0-0.07,0.02-0.11,0.02
			c-0.02,0-0.03-0.01-0.05-0.01c-0.2-0.01-0.38-0.04-0.55-0.11c-0.03-0.01-0.05-0.03-0.08-0.04c-0.14-0.07-0.27-0.16-0.38-0.26
			c-0.05-0.04-0.09-0.1-0.13-0.14c-0.04-0.05-0.1-0.1-0.14-0.15c-0.11-0.14-0.63-0.69-1.86-0.31c-0.46,0.14-0.7,0.4-0.71,0.76v0.1
			c0,0.12-0.04,0.23-0.07,0.34c-0.01,0.05-0.01,0.09-0.02,0.13c-0.05,0.15-0.12,0.3-0.21,0.43c-0.02,0.02-0.03,0.04-0.05,0.06
			c-0.08,0.11-0.18,0.2-0.28,0.29c-0.06,0.05-0.12,0.09-0.19,0.13c-0.08,0.05-0.17,0.09-0.26,0.12c-0.04,0.01-0.08,0.04-0.12,0.05
			l-23.86,6.07c-0.12,0.04-0.26,0.05-0.39,0.05c-0.19,0-0.38-0.05-0.54-0.11c-0.05-0.02-0.1-0.04-0.14-0.06
			c-0.04-0.02-0.09-0.03-0.12-0.06c-0.06-0.03-0.09-0.08-0.14-0.12c-0.08-0.07-0.17-0.13-0.23-0.21c-0.07-0.07-0.11-0.15-0.17-0.24
			c-0.05-0.09-0.1-0.18-0.13-0.29c-0.01-0.04-0.04-0.07-0.05-0.11L48.97,37.2c-0.04-0.13-0.05-0.26-0.05-0.39v-5.54
			c0-0.04,0.02-0.08,0.02-0.13c0.01-0.08,0.02-0.16,0.04-0.24c0.03-0.11,0.07-0.23,0.12-0.34c0.02-0.04,0.02-0.08,0.04-0.12
			c0.02-0.03,0.05-0.05,0.07-0.08c0.07-0.1,0.16-0.19,0.26-0.27c0.05-0.05,0.1-0.1,0.16-0.14c0.11-0.07,0.24-0.12,0.36-0.17
			c0.05-0.02,0.1-0.05,0.14-0.07L165.5,2.74c0.8-0.18,1.6,0.27,1.86,1.04l40.33,119.77v0.01l0.01,0.02
			c0.01,0.02,0.01,0.05,0.01,0.07C207.75,123.8,207.78,123.95,207.78,124.1z"/>
	</g>
</g>
<path class="st2" d="M184.03,129.95v2.11c-0.65-0.14-1.41-0.15-2.26,0.03v-1.19c0-0.01-0.01-0.02-0.01-0.04
	c0-0.02,0.01-0.03,0.01-0.05c-0.04-0.65,0.15-1.02,0.54-1.12C183.27,129.45,183.78,129.72,184.03,129.95z M112.5,151.28l66.1-16.1
	v-2.26l-66.1,16.1V151.28z M83.16,158.75l20.7-5.26v-2.25l-20.7,5.26V158.75z M187.2,130.67v2.24l17.41-4.51v-2.25L187.2,130.67z
	 M107.73,148.33c-0.74,0.23-0.71,0.71-0.71,0.73c0,0.02-0.01,0.05-0.01,0.08c0,0.02,0.01,0.04,0.01,0.06v1.57
	c0.87-0.24,1.64-0.26,2.31-0.15v-2.2C109.06,148.24,108.56,148.07,107.73,148.33z"/>
<path class="st3" d="M170.03,21.65l-4.5-13.37l-0.71-2.1l-46.43,10.85l-33.77,7.89l-32.18,7.52l0.02,0.07l30.27,120.8l21.32-5.42
	c0.33-1.01,1.11-2.11,2.76-2.62c2.1-0.64,3.66-0.04,4.62,0.73l67.27-16.38c0.38-1.77,1.67-2.73,2.83-3.02
	c2.18-0.55,3.74,0.17,4.66,1.04l17.93-4.64l0.02-0.01L170.03,21.65z M163.48,11.46c0,0.17-0.05,0.31-0.09,0.46
	c-0.2,0.67-0.79,1.17-1.52,1.17c-0.52,0-0.96-0.26-1.26-0.65c-0.21-0.27-0.36-0.6-0.36-0.98c0-0.21,0.05-0.42,0.12-0.61
	c0.24-0.6,0.82-1.01,1.49-1.01c0.46,0,0.88,0.2,1.17,0.52C163.32,10.65,163.48,11.04,163.48,11.46z M126.32,19.35
	c0,0.2-0.04,0.4-0.12,0.61c-0.08,0.19-0.19,0.36-0.34,0.51c-0.3,0.31-0.7,0.48-1.12,0.48c-0.43,0-0.82-0.17-1.12-0.48
	c-0.14-0.15-0.27-0.32-0.35-0.51c-0.07-0.19-0.1-0.38-0.1-0.57c-0.01-0.01-0.01-0.03-0.01-0.04c0-0.42,0.17-0.83,0.46-1.14
	c0.07-0.07,0.16-0.14,0.24-0.19c0.09-0.07,0.18-0.11,0.28-0.15c0.09-0.04,0.19-0.07,0.29-0.09c0.52-0.1,1.07,0.07,1.43,0.43
	c0.17,0.17,0.28,0.39,0.36,0.61C126.28,18.99,126.32,19.17,126.32,19.35z M119.36,20.58c0.2,0.87-0.33,1.72-1.19,1.91
	c-0.11,0.03-0.23,0.04-0.36,0.04c-0.72,0-1.37-0.5-1.53-1.24c-0.05-0.21-0.05-0.42-0.02-0.61c0.1-0.62,0.56-1.15,1.21-1.3
	c0.69-0.15,1.36,0.18,1.7,0.76C119.25,20.27,119.32,20.41,119.36,20.58z M112.45,22.17c0.2,0.85-0.33,1.71-1.2,1.9
	c-0.11,0.04-0.23,0.05-0.35,0.05c-0.73,0-1.37-0.51-1.54-1.25c-0.08-0.33-0.02-0.65,0.1-0.93c0.18-0.47,0.57-0.85,1.1-0.97
	c0.57-0.14,1.12,0.08,1.49,0.49C112.24,21.65,112.39,21.89,112.45,22.17z M105.54,23.76c0.2,0.85-0.35,1.72-1.19,1.91
	c-0.11,0.03-0.24,0.04-0.36,0.04c-0.72,0-1.37-0.5-1.55-1.24c-0.1-0.47,0.02-0.92,0.28-1.28c0.21-0.3,0.53-0.54,0.93-0.64
	c0.44-0.1,0.88,0,1.22,0.24C105.2,23.01,105.45,23.34,105.54,23.76z M96.22,24.37c0.07-0.05,0.17-0.1,0.26-0.14
	c0.1-0.04,0.2-0.08,0.3-0.09c0.2-0.05,0.41-0.05,0.62,0c0.03,0.01,0.05,0.02,0.08,0.02c0.07,0.02,0.14,0.04,0.21,0.07
	c0.1,0.04,0.19,0.09,0.28,0.14c0.07,0.06,0.16,0.12,0.24,0.2c0.29,0.29,0.46,0.71,0.46,1.12c0,0.43-0.17,0.83-0.46,1.14
	c-0.3,0.29-0.7,0.46-1.12,0.46c-0.42,0-0.83-0.17-1.12-0.46c-0.3-0.31-0.47-0.7-0.47-1.14c0-0.41,0.18-0.83,0.47-1.12
	c0.06-0.06,0.12-0.11,0.2-0.16C96.18,24.39,96.2,24.38,96.22,24.37z M58.47,37.32c-0.89,0-1.61-0.73-1.61-1.62
	c0-0.9,0.72-1.62,1.61-1.62c0.89,0,1.61,0.73,1.61,1.62C60.08,36.59,59.36,37.32,58.47,37.32z M87.51,149.39
	c-0.89,0-1.61-0.73-1.61-1.62c0-0.9,0.72-1.62,1.61-1.62c0.89,0,1.61,0.73,1.61,1.62C89.13,148.66,88.41,149.39,87.51,149.39z
	 M129.47,136.65c-0.29,0.31-0.68,0.48-1.12,0.48c-0.42,0-0.82-0.17-1.11-0.48c-0.3-0.29-0.47-0.68-0.47-1.12
	c0-0.11,0.01-0.21,0.04-0.31c0.02-0.1,0.05-0.2,0.09-0.3c0.04-0.09,0.09-0.18,0.14-0.27c0.06-0.09,0.12-0.17,0.2-0.24
	c0.08-0.08,0.15-0.14,0.24-0.2c0.09-0.05,0.18-0.11,0.27-0.14c0.1-0.04,0.2-0.08,0.3-0.09c0.2-0.05,0.4-0.05,0.62,0
	c0.1,0.01,0.19,0.05,0.29,0.09c0.1,0.04,0.19,0.09,0.28,0.14c0.08,0.06,0.17,0.12,0.23,0.2c0.07,0.08,0.15,0.15,0.2,0.24
	c0.06,0.09,0.1,0.18,0.15,0.27c0.04,0.1,0.07,0.2,0.09,0.3c0.01,0.1,0.02,0.2,0.02,0.31C129.93,135.97,129.77,136.36,129.47,136.65z
	 M135.93,135.35c-0.13,0.04-0.26,0.05-0.38,0.05c-0.71,0-1.36-0.5-1.54-1.23c-0.2-0.86,0.32-1.72,1.18-1.93
	c0.85-0.2,1.7,0.33,1.9,1.19C137.3,134.29,136.78,135.14,135.93,135.35z M143.14,133.61c-0.12,0.04-0.25,0.05-0.38,0.05
	c-0.71,0-1.37-0.49-1.54-1.23c-0.2-0.85,0.32-1.72,1.17-1.92c0.85-0.21,1.71,0.32,1.91,1.18
	C144.51,132.55,143.99,133.4,143.14,133.61z M150.34,131.87c-0.12,0.02-0.25,0.05-0.37,0.05c-0.72,0-1.37-0.5-1.54-1.23
	c-0.21-0.87,0.33-1.73,1.18-1.93c0.85-0.21,1.71,0.32,1.91,1.17C151.72,130.8,151.19,131.67,150.34,131.87z M158.31,129.71
	c-0.31,0.29-0.7,0.46-1.12,0.46c-0.43,0-0.82-0.17-1.12-0.46c-0.29-0.31-0.46-0.7-0.46-1.14c0-0.11,0-0.21,0.02-0.31
	c0.02-0.1,0.05-0.2,0.09-0.29c0.04-0.1,0.09-0.19,0.15-0.28c0.05-0.09,0.12-0.17,0.19-0.24c0.07-0.08,0.15-0.14,0.24-0.2
	c0.09-0.05,0.18-0.1,0.28-0.14c0.09-0.04,0.19-0.08,0.29-0.09c0.52-0.1,1.07,0.07,1.43,0.43c0.29,0.29,0.46,0.7,0.46,1.12
	C158.77,129.01,158.61,129.4,158.31,129.71z M193.98,111.62c-0.41,0.65-0.98,1.62-1.6,2.68c-1.06,1.82-2.26,3.87-3.08,4.98
	c-0.55,0.75-1.28,1.61-2.91,2.24c-3.21,1.26-15.63,4.08-19.79,4.97c-0.92,0.2-3.54,0.76-4.93-2.5c-0.14-0.33-0.31-0.73-0.4-0.82
	c0.01,0.01-0.07-0.02-0.26-0.02c-0.3,0-0.88,0.05-1.94,0.3c-5.94,1.41-21.03,5.23-30.05,7.52l-5.8,1.47
	c-0.18,0.04-0.37,0.09-0.57,0.13c-0.33,0.07-0.86,0.19-1.1,0.31c0.01,0.05,0.02,0.12,0.05,0.21l0.08,0.25
	c0.24,0.72,0.67,2.06-0.01,3.35c-0.46,0.86-1.29,1.47-2.47,1.82c-4.42,1.27-17.15,4.44-19.64,5c-0.45,0.1-1.11,0.24-1.92,0.24
	c-0.76,0-1.66-0.13-2.65-0.55c-2.42-1.04-6.61-3.3-8.83-4.57l-0.15-0.08c-0.8-0.44-2.29-1.27-2.82-3.45
	c-0.16-0.66-0.45-1.72-0.71-2.68c-0.16-0.6-0.32-1.17-0.42-1.58c-0.23-0.88-0.24-4.08-0.22-5.91c0-0.01,0.01-0.02,0.01-0.04
	c0.01-0.51,0.11-1.07,0.45-1.62c0.51-0.84,1.39-1.4,2.62-1.67l0.14-0.03c1.74-0.38,2.07-0.71,2.14-0.83
	c-0.03-0.45,0.15-0.86,0.43-1.17c-0.16-0.35-0.29-0.68-0.39-1.01c-0.59-2.01-1.99-7.26-3.71-13.86c-0.48-1.08-1.01-1.05-2.46-0.93
	c-0.2,0.02-0.4,0.04-0.61,0.05c-3.95,0.23-4.92-1.65-5.34-3.33c-0.64-2.59-1.74-6.77-2.82-10.81c-1.12-4.21-2.17-8.2-2.66-10.23
	c-0.15-0.65-0.2-1.21-0.17-1.7c-0.35-1.33-0.63-2.46-0.83-3.27c-0.98-4.09,2.11-4.96,3.13-5.25c0.14-0.04,0.28-0.08,0.39-0.12
	c1.13-0.44,1.58-1.12,1.75-1.68c-1.37-5.35-2.32-9.07-2.46-9.62c-0.12-0.45-0.2-0.88-0.28-1.29c-0.87-0.39-2.32-0.1-3.21,0.15
	c-1.35,0.38-3.73,0.58-4.58-2.31c-0.32-1.07-0.97-3.4-1.2-4.64c-0.04-0.18-0.04-0.36-0.06-0.54c-0.33-1.11-0.93-3.29-1.16-4.47
	c-0.3-1.64-0.05-2.97,0.77-3.98c0.83-1.02,1.95-2.49,3.02-3.89c0.84-1.1,1.65-2.17,2.29-2.96c1.39-1.76,2.74-2.05,3.46-2.21
	c1.48-0.32,4.57-1.08,7.83-1.89c5.9-1.46,9.84-2.43,10.91-2.57c2.42-0.32,3.35,1.43,4.09,2.85c0.11,0.22,0.33,0.63,1.43,0.36
	c2.04-0.5,4.79-1.14,7.86-1.88c9.27-2.18,21.96-5.18,27.4-6.85c0.02-0.01,0.04-0.01,0.06-0.02c-0.02-0.11-0.05-0.24-0.08-0.33
	l-0.07-0.28c-0.22-1.01-0.05-2.17,0.82-3.07c0.53-0.55,1.31-1.01,2.42-1.29l0.63-0.16c4.33-1.09,8.53-2.14,11.71-2.92
	c2.79-0.68,4.81-1.14,5.42-1.23c0.61-0.08,1.12-0.1,1.58-0.07c0.91,0.06,1.56,0.29,2.11,0.52c0.32,0.14,0.71,0.32,1.12,0.5
	c2.12,0.95,5.2,2.42,6.65,3.11l0.22,0.1c1.82,0.87,2.45,1.68,2.9,2.79c0.36,0.86,0.76,2.04,1.18,3.3l0.33,0.99
	c0.02,0.06,0.04,0.12,0.06,0.18c0.07,0.12,0.12,0.26,0.18,0.39c0.36,0.86,0.77,2.06,1.19,3.33l0.33,0.99
	c0.25,0.73,0.51,1.82-0.07,2.83c-0.62,1.09-1.89,1.48-3.15,1.73c-0.64,0.13-1.15,0.37-1.54,0.6l3.48,10.77
	c0.17,0.26,0.73,0.9,1.94,0.71c2.44-0.38,4.87-0.34,6.11,2.51c0.02,0.04,0.04,0.08,0.05,0.12l6.94,20.1
	c0.07,0.17,0.21,0.54,0.33,1.02l1.36,3.95c0.2,0.46,0.88,2.26,0.15,3.93c-0.31,0.71-0.99,1.66-2.49,2.15
	c-0.15,0.05-0.33,0.1-0.51,0.15c-1.39,0.39-2.09,0.59-1.83,2.48c0.01,0.05-0.01,0.1-0.01,0.16l1.95,6.03
	c0.02,0.06,0.29,0.8,0.51,1.94l0.65,2.01c0.03,0.08,0.58,1.62,0.76,3.75c0.43,0.01,0.85,0.2,1.14,0.52c0.2,0.11,0.9,0.26,2.29-0.12
	c2.49-0.68,4.15,0.1,5.04,2.3c0.5,1.23,1.36,3.7,1.73,5.04c0.05,0.18,0.09,0.36,0.11,0.54c0.45,1.24,0.95,2.73,1.21,3.66
	C195.35,108.83,195.11,109.85,193.98,111.62z M196.75,121.74c-0.89,0-1.61-0.73-1.61-1.62c0-0.9,0.72-1.62,1.61-1.62
	c0.89,0,1.61,0.73,1.61,1.62C198.36,121.01,197.64,121.74,196.75,121.74z"/>
<path class="st4" d="M76.11,76.01c1.57,6.13,3.36,13.05,5.04,19.55c-0.48-0.01-0.94,0.01-1.33,0.05l-0.55,0.04
	c-1.82,0.11-1.9-0.21-2.08-0.91c-0.64-2.61-1.76-6.8-2.83-10.86c-0.59-2.24-1.17-4.4-1.64-6.24c-0.15-0.57-0.29-1.1-0.42-1.6
	c-0.15-0.57-0.28-1.1-0.39-1.55c-0.07-0.27-0.13-0.53-0.18-0.76c-0.27-1.1-0.2-1.11,0.9-1.43c0.25-0.07,0.48-0.14,0.67-0.21
	c0.62-0.24,1.13-0.54,1.58-0.88c0.04,0.17,0.09,0.35,0.13,0.53c0.21,0.82,0.43,1.65,0.65,2.51C75.81,74.82,75.95,75.4,76.11,76.01z
	 M169.84,51.67l6.61,20.46c0.02-0.02,0.05-0.03,0.07-0.05c0.85-0.61,1.78-0.88,2.33-1.03c0.14-0.04,0.27-0.08,0.39-0.11
	c0.45-0.15,0.53-0.32,0.55-0.38c0.09-0.2,0.07-0.5,0.02-0.79c-0.04-0.23-0.11-0.45-0.18-0.61c-0.02-0.04-0.04-0.1-0.06-0.14
	l-6.01-17.4l-0.56-1.62l-0.37-1.07c-0.26-0.59-0.48-0.93-2.71-0.58c-0.4,0.06-0.79,0.08-1.15,0.07l0.27,0.83L169.84,51.67z
	 M190.58,104.07c-0.18-0.67-0.54-1.74-0.89-2.74c-0.19-0.55-0.39-1.08-0.55-1.51c-0.06-0.15-0.12-0.3-0.17-0.43
	c-0.29-0.69-0.33-0.68-1.17-0.45c-2.18,0.59-3.59,0.38-4.47-0.01c-0.11,0.77-0.32,1.55-0.6,2.33c-0.04,0.1-0.07,0.2-0.11,0.3
	c-0.23,0.55-0.49,1.06-0.77,1.53c-0.45,0.76-0.97,1.41-1.51,1.98c-2.01,2.1-4.27,2.92-4.4,2.96c-0.05,0.02-0.1,0.03-0.15,0.05
	c-2.77,0.68-67.98,16.67-69.26,16.93l-0.57,0.11c-1.92,0.4-4.45,0.94-7.07,0.94c-1.64,0-3.32-0.21-4.89-0.8
	c-0.54-0.2-1.04-0.44-1.52-0.7c-0.67-0.36-1.28-0.78-1.83-1.23c-0.31-0.25-0.6-0.51-0.87-0.78c-0.43,0.6-1.04,1.03-1.68,1.35
	c-0.92,0.45-1.87,0.66-2.38,0.77l-0.13,0.03c-0.47,0.1-0.61,0.23-0.61,0.23c-0.01,0.08,0.09,0.45,0.13,0.6
	c0.05,0.18,0.11,0.39,0.17,0.62c0.08,0.28,0.16,0.58,0.24,0.9c0.27,0.98,0.57,2.07,0.73,2.74c0.2,0.8,0.64,1.05,1.24,1.39l0.18,0.1
	c2.58,1.46,6.4,3.49,8.42,4.35c1.01,0.43,1.77,0.32,2.6,0.12c2.39-0.53,15.04-3.68,19.22-4.89c0.35-0.1,0.51-0.21,0.54-0.24
	c0.01-0.11-0.14-0.58-0.21-0.82c-0.04-0.13-0.08-0.25-0.11-0.36c-0.29-1.04-0.21-1.95,0.24-2.71c0.73-1.23,2.13-1.54,3.15-1.77
	c0.16-0.04,0.32-0.07,0.47-0.11l5.4-1.36c9.01-2.29,24.1-6.11,30.06-7.52c3.99-0.95,5.17-0.01,6.17,2.33
	c0.38,0.86,0.49,0.84,1.27,0.67c4.52-0.97,16.35-3.7,19.14-4.78c0.89-0.35,1.18-0.74,1.48-1.15c0.71-0.96,1.85-2.91,2.86-4.63
	c0.63-1.08,1.22-2.09,1.64-2.75c0.43-0.69,0.59-1.02,0.62-1.24C190.64,104.28,190.62,104.18,190.58,104.07z M80.16,38.45l11.36-2.64
	l1.61-0.38l1.6-0.38l36.92-8.57l1.54-0.36l1.52-0.35l11.85-2.76c3.58-0.8,6.2-0.64,9.99,0.61c1.74,0.58,3.03,1.51,3.95,2.43
	c0.67-0.38,1.57-0.79,2.69-1.01c0.35-0.07,0.57-0.13,0.74-0.18c0.04-0.01,0.1-0.03,0.14-0.04c-0.01-0.04-0.03-0.1-0.05-0.16l-0.34-1
	c-0.11-0.32-0.21-0.64-0.32-0.94c-0.29-0.83-0.55-1.58-0.78-2.14c0-0.01,0-0.01-0.01-0.01c-0.15-0.38-0.26-0.62-1.34-1.14l-0.22-0.1
	c-1.72-0.82-5.76-2.75-7.65-3.56c-0.47-0.2-0.91-0.39-2.02-0.23c-1.31,0.18-12.56,3.01-16.8,4.08l-0.63,0.16
	c-0.76,0.19-0.93,0.43-0.93,0.43c0,0,0,0.05,0.02,0.14l0.04,0.17c0.17,0.65,0.2,1.19,0.14,1.66c-0.14,1.29-0.95,1.98-1.72,2.33
	c-0.19,0.09-0.38,0.17-0.55,0.22c-5.54,1.69-18.29,4.7-27.6,6.9c-3.08,0.73-5.81,1.38-7.85,1.87c-0.55,0.13-1.08,0.19-1.57,0.17
	c-1.27-0.05-2.33-0.58-3.05-1.57c-0.14-0.18-0.26-0.37-0.37-0.58c-0.14-0.28-0.52-1.01-0.71-1.19c-0.02,0.01-0.07,0.01-0.15,0.02
	c-0.98,0.13-6.29,1.45-10.57,2.51c-3.29,0.81-6.39,1.58-7.86,1.9c-0.58,0.12-1.02,0.22-1.71,1.09c0,0,0,0,0,0.01
	c-0.62,0.78-1.42,1.83-2.25,2.92c-1.09,1.43-2.23,2.93-3.08,3.97c-0.25,0.31-0.17,0.98-0.1,1.36c0.01,0.04,0.02,0.1,0.03,0.14
	c0.1,0.51,0.28,1.23,0.48,1.96c0.21,0.8,0.44,1.61,0.61,2.19c0.01,0.03,0.02,0.05,0.02,0.07c0.02,0.07,0.04,0.13,0.05,0.17
	c0.11-0.01,0.29-0.01,0.6-0.1c1.11-0.31,2.14-0.46,3.07-0.46c0.53,0,1.02,0.07,1.48,0.17c0.22-1.37,0.61-2.26,0.76-2.55
	C73.8,39.67,79.33,38.58,80.16,38.45z M128.25,71.38c0.34-0.62,0.39-1.43,0.16-2.43c-0.23-0.99-0.69-1.64-1.39-1.93
	c-0.7-0.29-1.68-0.3-2.94-0.04l-2.19,0.47l1.35,5.82l2.58-0.55C127.1,72.44,127.91,71.99,128.25,71.38z M161.15,35.08l3.41,10.55
	l10.24,31.68l3.71,11.49c0.01,0.02,0.23,0.66,0.41,1.64c0.28,1.5,0.46,3.8-0.39,5.9c-0.05,0.11-0.11,0.21-0.16,0.32
	c-0.36,0.77-0.8,1.42-1.3,1.96c-1.36,1.51-2.95,2.21-3.26,2.33c-23.33,5.72-67.59,16.57-68.73,16.8l-0.57,0.12
	c-2.15,0.46-5.16,1.08-7.91,0.77c-0.78-0.09-1.54-0.24-2.25-0.5c-0.3-0.11-0.58-0.24-0.85-0.38c-2.08-1.05-3.54-2.83-3.95-4.23
	c-0.61-2.05-2.1-7.68-3.93-14.73c-2.67-10.24-6.07-23.45-8.52-33.03c-0.9-3.53-1.68-6.57-2.25-8.77c-0.14-0.57-0.27-1.09-0.39-1.54
	c-0.15-0.58-0.27-1.06-0.36-1.43c-0.01-0.04-0.02-0.08-0.03-0.12c-0.12-0.46-0.18-0.73-0.2-0.76c-0.11-0.4-0.18-0.79-0.25-1.15
	c-0.1-0.59-0.15-1.12-0.17-1.61c-0.01-0.23-0.01-0.46,0-0.67c0.01-0.36,0.04-0.7,0.09-0.99c0.15-1.01,0.43-1.55,0.45-1.59
	c0.03-0.05,0.05-0.1,0.08-0.15c0.43-1.01,0.98-1.83,1.57-2.5c2.15-2.46,4.87-2.89,5.04-2.91c0.05-0.01,0.1-0.02,0.15-0.03
	l13.46-3.12l38.74-9l14.26-3.32c2.64-0.59,4.66-0.67,8.31,0.53c0.08,0.03,0.15,0.07,0.23,0.1c0.45,0.17,0.85,0.36,1.21,0.58
	c0.64,0.39,1.15,0.83,1.53,1.26c0.65,0.73,0.94,1.35,0.96,1.4l0.01,0.01l0.01,0.04l0.64,1.98l0.49,1.52L161.15,35.08z M146.62,72.14
	c-0.45,0.94-1.21,1.52-2.29,1.76c-1.08,0.23-2.04,0.01-2.86-0.65c-0.83-0.67-1.4-1.69-1.71-3.08l-2.21-9.56l-3.84,0.82l2.24,9.68
	c0.58,2.49,1.71,4.27,3.42,5.33c1.7,1.05,3.62,1.35,5.77,0.89c2.15-0.46,3.76-1.51,4.82-3.15c1.07-1.64,1.32-3.71,0.73-6.22
	l-2.24-9.68l-3.84,0.82l2.21,9.56C147.13,70.05,147.07,71.21,146.62,72.14z M124,76.61l2.29-0.49c2.54-0.54,4.32-1.44,5.33-2.7
	c1.01-1.26,1.27-2.96,0.77-5.1c-0.49-2.14-1.46-3.6-2.91-4.36c-1.45-0.78-3.49-0.88-6.13-0.32l-6.08,1.3l4,17.31l3.84-0.82
	L124,76.61z M104.82,72.57c0.81-1.17,1.93-1.91,3.38-2.22c1.81-0.39,3.49,0.05,5.06,1.31l1.76-3.24c-2.4-1.75-5.02-2.33-7.84-1.72
	c-2.53,0.54-4.46,1.86-5.82,3.95c-1.35,2.09-1.73,4.42-1.14,6.99c0.59,2.57,1.94,4.51,4.04,5.83c2.11,1.32,4.48,1.69,7.14,1.12
	c2.65-0.57,4.7-2.17,6.14-4.8l-3.05-2.02c-0.85,1.76-2.22,2.84-4.11,3.24c-1.38,0.29-2.66,0.06-3.86-0.71
	c-1.19-0.77-1.98-1.95-2.35-3.57C103.79,75.13,104.01,73.74,104.82,72.57z"/>
<path class="st5" d="M82.04,98.99c0.14,0.52,0.27,1.02,0.4,1.54c-0.6-0.04-1.16,0-1.63,0.04l-0.54,0.04
	c-1.83,0.11-1.9-0.21-2.08-0.91c-0.07-0.29-0.15-0.59-0.23-0.9c0.45,0.04,0.93,0.06,1.49,0.03c0.21-0.01,0.41-0.03,0.62-0.05
	C81.07,98.7,81.63,98.65,82.04,98.99z M180.55,76.02c0.14-0.04,0.27-0.08,0.39-0.11c0.45-0.15,0.52-0.33,0.55-0.38
	c0.17-0.39-0.04-1.14-0.15-1.39c-0.02-0.05-0.04-0.1-0.06-0.15l-0.14-0.42c-0.27,0.15-0.57,0.29-0.92,0.4
	c-0.15,0.05-0.32,0.1-0.5,0.15c-1.26,0.36-1.95,0.57-1.88,2.02l0.31,0.96C179.01,76.46,179.98,76.18,180.55,76.02z M66.72,51.62
	c-0.23,0.07-0.49,0.11-0.77,0.15c0.17,0.61,0.34,1.21,0.47,1.66c0.03,0.11,0.06,0.19,0.08,0.25c0.1,0.01,0.29-0.02,0.6-0.1
	c1.12-0.32,2.14-0.48,3.04-0.48c0.17,0,0.32,0.02,0.47,0.03c-0.11-0.54-0.2-1.05-0.25-1.54C69.72,51.15,68.38,51.15,66.72,51.62z
	 M163.04,30.63c0.54-0.27,1.16-0.51,1.9-0.66c0.45-0.09,0.73-0.17,0.9-0.23c-0.02-0.05-0.04-0.11-0.05-0.17l-0.34-1.01
	c-0.09-0.25-0.17-0.5-0.26-0.74c-0.45,0.17-0.93,0.27-1.38,0.37c-0.57,0.11-1.05,0.3-1.44,0.48c0.07,0.15,0.11,0.24,0.12,0.27
	L163.04,30.63z M191.09,110.03c-1.05,1.79-2.24,3.82-3.05,4.92c-0.55,0.74-1.27,1.59-2.88,2.22c-3.17,1.23-15.44,4.03-19.55,4.91
	c-0.29,0.06-0.73,0.15-1.24,0.17c0.07,0.14,0.14,0.29,0.21,0.45c0.38,0.89,0.5,0.86,1.3,0.69c4.58-0.98,16.54-3.74,19.37-4.84
	c0.91-0.35,1.2-0.75,1.51-1.17c0.71-0.97,1.87-2.95,2.89-4.69c0.64-1.1,1.23-2.11,1.66-2.78c0.51-0.8,0.63-1.12,0.64-1.35
	C191.68,109.01,191.39,109.51,191.09,110.03z M118.57,134.01c-4.51,1.29-16.76,4.33-19.19,4.88c-0.45,0.1-1.1,0.24-1.89,0.24
	c-0.76,0-1.65-0.13-2.63-0.55c-2.36-1.01-6.42-3.19-8.64-4.45c0.01,0.07,0.04,0.15,0.05,0.21c0.2,0.83,0.65,1.08,1.27,1.42l0.18,0.1
	c2.61,1.49,6.49,3.53,8.52,4.4c1.02,0.44,1.8,0.32,2.64,0.13c2.4-0.54,15.18-3.73,19.46-4.95c0.43-0.12,0.55-0.25,0.55-0.26
	c0.02-0.12-0.14-0.61-0.21-0.85C118.63,134.21,118.6,134.11,118.57,134.01z M160.32,118.79c0,0.01-0.07-0.01-0.24-0.01
	c-0.28,0-0.85,0.05-1.92,0.3h-0.01c-5.93,1.41-21.01,5.23-30.01,7.51l-5.41,1.37c-0.18,0.04-0.36,0.08-0.56,0.12
	c-0.32,0.07-0.83,0.18-1.07,0.3c0.01,0.04,0.02,0.11,0.04,0.19l0.08,0.24c0.07,0.21,0.15,0.46,0.21,0.76
	c0.18-0.05,0.36-0.09,0.52-0.12c0.16-0.04,0.32-0.07,0.48-0.11l5.8-1.47c9.03-2.29,24.13-6.11,30.1-7.53
	c1.02-0.24,1.86-0.36,2.55-0.36c-0.06-0.12-0.12-0.25-0.18-0.39C160.58,119.27,160.41,118.89,160.32,118.79z M93.09,121.19
	c0.6,0.43,1.27,0.81,2.01,1.08c0.05,0.02,0.11,0.03,0.17,0.05c1.62,0.57,3.47,0.62,5.26,0.47c1.75-0.15,3.43-0.51,4.79-0.79
	l0.57-0.12c0.38-0.08,5.4-1.3,12.79-3.11c15.21-3.71,40.49-9.91,56.27-13.78c0.15-0.06,0.61-0.26,1.2-0.62
	c0.74-0.45,1.67-1.16,2.46-2.18c0.34-0.43,0.64-0.93,0.9-1.49c-0.6,0.68-1.24,1.24-1.85,1.7c-1.48,1.11-2.77,1.58-2.88,1.62
	c-0.05,0.02-0.1,0.03-0.14,0.04c-1.21,0.3-14.45,3.54-29.01,7.11c-18.54,4.54-39.21,9.6-39.93,9.75l-0.56,0.11
	c-1.92,0.4-4.43,0.93-7.04,0.93c-0.35,0-0.7-0.01-1.05-0.04c-1.29-0.08-2.58-0.3-3.82-0.76c-0.01,0-0.02-0.01-0.03-0.01
	c-0.01,0-0.02-0.01-0.02-0.01c-0.15-0.05-0.29-0.13-0.44-0.2c0.1,0.08,0.2,0.15,0.3,0.23C93.07,121.18,93.07,121.18,93.09,121.19z
	 M129.82,134.92c-0.05-0.09-0.09-0.18-0.15-0.27c-0.05-0.09-0.13-0.17-0.2-0.24c-0.07-0.08-0.15-0.14-0.23-0.2
	c-0.09-0.05-0.18-0.11-0.28-0.14c-0.1-0.04-0.19-0.08-0.29-0.09c-0.21-0.05-0.42-0.05-0.62,0c-0.1,0.01-0.2,0.05-0.3,0.09
	c-0.09,0.04-0.18,0.09-0.27,0.14c-0.09,0.06-0.16,0.12-0.24,0.2c-0.08,0.08-0.14,0.15-0.2,0.24c-0.05,0.09-0.1,0.18-0.14,0.27
	c-0.04,0.1-0.07,0.2-0.09,0.3c-0.02,0.1-0.04,0.2-0.04,0.31c0,0.43,0.17,0.83,0.47,1.12c0.29,0.31,0.7,0.48,1.11,0.48
	c0.43,0,0.83-0.17,1.12-0.48c0.3-0.29,0.46-0.68,0.46-1.12c0-0.11-0.01-0.21-0.02-0.31C129.88,135.12,129.86,135.02,129.82,134.92z
	 M135.19,132.24c-0.86,0.21-1.38,1.07-1.18,1.93c0.18,0.73,0.83,1.23,1.54,1.23c0.12,0,0.25-0.01,0.38-0.05
	c0.85-0.21,1.37-1.06,1.17-1.92C136.9,132.57,136.04,132.04,135.19,132.24z M149.61,128.77c-0.85,0.2-1.39,1.06-1.18,1.93
	c0.17,0.73,0.82,1.23,1.54,1.23c0.12,0,0.24-0.03,0.37-0.05c0.85-0.2,1.38-1.07,1.18-1.93
	C151.32,129.08,150.45,128.56,149.61,128.77z M142.4,130.51c-0.85,0.2-1.37,1.07-1.17,1.92c0.17,0.73,0.82,1.23,1.54,1.23
	c0.12,0,0.25-0.01,0.38-0.05c0.85-0.21,1.37-1.06,1.17-1.92C144.1,130.82,143.25,130.3,142.4,130.51z M156.87,127.02
	c-0.1,0.01-0.2,0.05-0.29,0.09c-0.1,0.04-0.19,0.09-0.28,0.14c-0.09,0.06-0.17,0.12-0.24,0.2c-0.07,0.08-0.14,0.15-0.19,0.24
	c-0.07,0.09-0.12,0.18-0.15,0.28c-0.04,0.09-0.07,0.19-0.09,0.29c-0.02,0.1-0.02,0.2-0.02,0.31c0,0.43,0.17,0.83,0.46,1.14
	c0.3,0.29,0.7,0.46,1.12,0.46c0.42,0,0.81-0.17,1.12-0.46c0.3-0.31,0.46-0.7,0.46-1.14c0-0.42-0.18-0.83-0.46-1.12
	C157.94,127.08,157.39,126.92,156.87,127.02z M97.09,27.29c0.43,0,0.82-0.17,1.12-0.46c0.29-0.31,0.46-0.7,0.46-1.14
	c0-0.41-0.17-0.83-0.46-1.12c-0.08-0.08-0.17-0.14-0.24-0.2c-0.09-0.05-0.18-0.1-0.28-0.14c-0.07-0.03-0.14-0.05-0.21-0.07
	c-0.03-0.01-0.05-0.02-0.08-0.02c-0.21-0.05-0.42-0.05-0.62,0c-0.1,0.01-0.2,0.05-0.3,0.09c-0.09,0.04-0.19,0.09-0.26,0.14
	c-0.02,0.01-0.04,0.02-0.05,0.04c-0.07,0.05-0.14,0.1-0.2,0.16c-0.29,0.29-0.47,0.71-0.47,1.12c0,0.43,0.17,0.83,0.47,1.14
	C96.26,27.12,96.67,27.29,97.09,27.29z M117.81,22.53c0.13,0,0.24-0.01,0.36-0.04c0.86-0.19,1.39-1.04,1.19-1.91
	c-0.04-0.17-0.11-0.3-0.19-0.44c-0.34-0.58-1.01-0.92-1.7-0.76c-0.65,0.15-1.11,0.68-1.21,1.3c-0.03,0.2-0.02,0.4,0.02,0.61
	C116.44,22.03,117.09,22.53,117.81,22.53z M104,25.71c0.11,0,0.24-0.01,0.36-0.04c0.85-0.19,1.39-1.06,1.19-1.91
	c-0.09-0.42-0.34-0.75-0.67-0.96c-0.35-0.24-0.78-0.34-1.22-0.24c-0.4,0.1-0.71,0.33-0.93,0.64c-0.26,0.36-0.38,0.81-0.28,1.28
	C102.63,25.21,103.28,25.71,104,25.71z M110.91,24.12c0.12,0,0.24-0.01,0.35-0.05c0.86-0.19,1.4-1.05,1.2-1.9
	c-0.07-0.29-0.21-0.52-0.4-0.71c-0.37-0.41-0.92-0.62-1.49-0.49c-0.53,0.12-0.91,0.5-1.1,0.97c-0.11,0.29-0.17,0.6-0.1,0.93
	C109.54,23.61,110.18,24.12,110.91,24.12z M123.26,19.96c0.08,0.19,0.2,0.36,0.35,0.51c0.3,0.31,0.7,0.48,1.12,0.48
	c0.42,0,0.82-0.17,1.12-0.48c0.15-0.15,0.26-0.32,0.34-0.51c0.09-0.21,0.12-0.41,0.12-0.61c0-0.18-0.04-0.36-0.1-0.52
	c-0.08-0.23-0.2-0.44-0.36-0.61c-0.37-0.37-0.92-0.54-1.43-0.43c-0.1,0.02-0.2,0.05-0.29,0.09c-0.1,0.05-0.19,0.09-0.28,0.15
	c-0.08,0.05-0.17,0.12-0.24,0.19c-0.29,0.3-0.46,0.71-0.46,1.14c0,0.01,0.01,0.03,0.01,0.04C123.16,19.58,123.19,19.77,123.26,19.96
	z"/>
</svg>
