<?xml version="1.0" encoding="utf-8"?>
<!-- Generator: Adobe Illustrator 25.4.1, SVG Export Plug-In . SVG Version: 6.00 Build 0)  -->
<svg version="1.1" id="Layer_1" xmlns="http://www.w3.org/2000/svg" xmlns:xlink="http://www.w3.org/1999/xlink" x="0px" y="0px"
	 viewBox="0 0 250 165" style="enable-background:new 0 0 250 165;" xml:space="preserve">
<style type="text/css">
	.st0{clip-path:url(#SVGID_00000047752347842981580960000009613489033568414355_);}
	.st1{fill:#3B3E51;}
	.st2{fill:#7887A7;}
	.st3{fill:#669CB6;}
	.st4{fill:#F8F4E3;}
	.st5{fill:#5A6694;}
</style>
<g>
	<defs>
		<rect id="SVGID_1_" x="15.43" y="2.17" width="220" height="160"/>
	</defs>
	<clipPath id="SVGID_00000003090829062846847670000012843662014983955377_">
		<use xlink:href="#SVGID_1_"  style="overflow:visible;"/>
	</clipPath>
	<g style="clip-path:url(#SVGID_00000003090829062846847670000012843662014983955377_);">
		<path class="st1" d="M234.39,6.48h-9.51v-3.4c0-0.5-0.4-0.91-0.9-0.91h-16.8c-0.5,0-0.91,0.41-0.91,0.91v3.4h-62.24v-3.4
			c0-0.5-0.4-0.91-0.9-0.91h-4.74c-0.5,0-0.9,0.41-0.9,0.91v3.4H16.48c-0.5,0-0.91,0.4-0.91,0.91v153.85c0,0.51,0.41,0.91,0.91,0.91
			h217.9c0.5,0,0.9-0.4,0.9-0.91V7.39C235.29,6.88,234.89,6.48,234.39,6.48z M139.28,3.99h2.93v2.49h-2.93V3.99z"/>
	</g>
</g>
<path class="st2" d="M233.47,8.3v93.63h-6.35c-0.36-1.76-1.75-3.15-3.5-3.51V74.95H230c0.49,0,0.9-0.4,0.9-0.9V8.3H233.47z
	 M184.07,27.16v6.05h7.36v-3.92c0-0.5,0.41-0.9,0.91-0.9h20.36v-4.39h-36.92c-0.5,0-0.91-0.4-0.91-0.91v-7.15h-6.83
	c-0.5,0-0.91-0.4-0.91-0.9V8.3h-3.52v6.73c0,0.5-0.41,0.9-0.91,0.9h-4.93v10.33h25.38C183.66,26.25,184.07,26.66,184.07,27.16z
	 M76.15,63.58H87.4v-4.64H76.15V63.58z M219.91,150.67h-22.37v2.7h22.37V150.67z M63.89,90.16h-2.43v6.35h6.2v-3.14
	c0-0.5,0.4-0.91,0.9-0.91h6.69c0.5,0,0.9,0.41,0.9,0.91v10.31h4.77v-8.72c-2.05-0.42-3.59-2.24-3.59-4.41s1.54-4,3.59-4.42v-1.56
	h-4.77v4.67c0,0.5-0.4,0.91-0.9,0.91h-6.69c-0.5,0-0.9-0.41-0.9-0.91V19.33c0-0.5,0.4-0.9,0.9-0.9h2.43v-3.59h-9.51v3.59h2.41
	c0.5,0,0.9,0.4,0.9,0.9v69.92C64.8,89.75,64.39,90.16,63.89,90.16z M90.83,14.84H72.81v3.59h2.43c0.5,0,0.9,0.4,0.9,0.9v6.92h7.73
	c0.42-3.65,3.31-6.56,6.95-6.97V14.84z M195.72,146.23h-27.41c-0.5,0-0.91-0.4-0.91-0.9v-7.97c-2.04-0.42-3.59-2.24-3.59-4.41
	c0-2.18,1.54-4,3.59-4.42v-2.6h-10.22v2.6c2.04,0.42,3.59,2.24,3.59,4.42c0,2.17-1.55,3.99-3.59,4.41v11.5h38.54V146.23z
	 M39.89,152.04h25.05v-4.51H49.88c-0.5,0-0.9-0.4-0.9-0.91v-9.95h-5.74v3.67h1.45c0.5,0,0.9,0.41,0.9,0.91c0,0.5-0.4,0.91-0.9,0.91
	h-1.45v1.7c0,0.5-0.41,0.9-0.91,0.9h-2.43V152.04z M92.65,19.28c3.64,0.42,6.54,3.32,6.95,6.97h14.21c0.36-1.76,1.74-3.15,3.5-3.51
	v-7.9H92.65V19.28z M76.15,42.06v15.06H87.4v-4.51h-5.62c-0.5,0-0.9-0.41-0.9-0.91v-9.64H76.15z M119.85,83.34h20.08v-9.07
	c0-0.5,0.4-0.9,0.9-0.9h2.75V61.83h-5.37v14.02c0,0.51-0.4,0.91-0.9,0.91h-17.46V83.34z M42.52,90.16h-2.63v5.87h9.08v-5.87h-2.43
	c-0.5,0-0.91-0.41-0.91-0.91V19.33c0-0.5,0.41-0.9,0.91-0.9h2.43v-3.59H40.1v3.59h2.43c0.5,0,0.91,0.4,0.91,0.9v69.92
	C43.44,89.75,43.03,90.16,42.52,90.16z M38.28,14.84H25.82v7.73h9.12v-3.24c0-0.5,0.4-0.9,0.9-0.9h2.43V14.84z M229.09,136.43
	h-12.57v4.3c0,0.51-0.4,0.91-0.9,0.91h-18.07v2.76h31.55V136.43z M196.63,155.18H124.8c-0.5,0-0.9-0.4-0.9-0.9v-5.7h-21.58
	c-0.5,0-0.91-0.41-0.91-0.91v-2.53h-8.76v7.82c0,0.5-0.41,0.9-0.91,0.9H17.39v3.58h216.09v-2.26H196.63z M135.22,14.84h-16.09v7.81
	h20.75v-2.41h-3.75c-0.5,0-0.9-0.41-0.9-0.91V14.84z M38.08,152.04h-20.7V14.84H24v16.05h-1.39c-0.5,0-0.9,0.4-0.9,0.9v18.09
	c0,0.5,0.4,0.91,0.9,0.91h3.07v6.97h-3.07c-0.5,0-0.9,0.41-0.9,0.91v18.09c0,0.5,0.4,0.91,0.9,0.91h3.07v14.82
	c-2.04,0.42-3.59,2.25-3.59,4.42c0,2.49,2.02,4.51,4.5,4.51c2.17,0,3.98-1.55,4.41-3.6h7.08v7.38h-2.43c-0.5,0-0.91,0.41-0.91,0.91
	v1.7h-1.45c-0.5,0-0.91,0.4-0.91,0.9c0,0.51,0.41,0.91,0.91,0.91h1.45v3.67h-1.45c-0.5,0-0.91,0.41-0.91,0.91
	c0,0.5,0.41,0.91,0.91,0.91h1.45v3.67h-1.45c-0.5,0-0.91,0.4-0.91,0.91c0,0.5,0.41,0.9,0.91,0.9h1.45v1.7c0,0.5,0.41,0.91,0.91,0.91
	h2.43v3.51h-2.43c-0.5,0-0.91,0.4-0.91,0.9v1.7h-1.45c-0.5,0-0.91,0.41-0.91,0.91c0,0.5,0.41,0.9,0.91,0.9h1.45v3.68h-1.45
	c-0.5,0-0.91,0.4-0.91,0.9c0,0.51,0.41,0.91,0.91,0.91h1.45v3.67h-1.45c-0.5,0-0.91,0.41-0.91,0.91c0,0.5,0.41,0.91,0.91,0.91h1.45
	v1.7c0,0.5,0.41,0.9,0.91,0.9h2.43V152.04z M24.13,139.42c0-0.5-0.4-0.91-0.9-0.91c-0.51,0-0.92,0.41-0.92,0.91
	c0,0.5,0.41,0.91,0.92,0.91C23.73,140.33,24.13,139.92,24.13,139.42z M24.13,134.32c0-0.5-0.4-0.91-0.9-0.91
	c-0.51,0-0.92,0.41-0.92,0.91c0,0.5,0.41,0.9,0.92,0.9C23.73,135.23,24.13,134.83,24.13,134.32z M24.13,129.23
	c0-0.5-0.4-0.9-0.9-0.9c-0.51,0-0.92,0.4-0.92,0.9c0,0.5,0.41,0.91,0.92,0.91C23.73,130.14,24.13,129.73,24.13,129.23z
	 M24.13,117.89c0-0.5-0.4-0.91-0.9-0.91c-0.51,0-0.92,0.41-0.92,0.91c0,0.5,0.41,0.91,0.92,0.91
	C23.73,118.8,24.13,118.39,24.13,117.89z M24.13,112.79c0-0.5-0.4-0.91-0.9-0.91c-0.51,0-0.92,0.41-0.92,0.91
	c0,0.5,0.41,0.9,0.92,0.9C23.73,113.7,24.13,113.3,24.13,112.79z M24.13,107.7c0-0.5-0.4-0.9-0.9-0.9c-0.51,0-0.92,0.4-0.92,0.9
	c0,0.51,0.41,0.91,0.92,0.91C23.73,108.61,24.13,108.2,24.13,107.7z M28.64,139.42c0-0.5-0.4-0.91-0.9-0.91s-0.9,0.41-0.9,0.91
	c0,0.5,0.4,0.91,0.9,0.91S28.64,139.92,28.64,139.42z M28.64,134.32c0-0.5-0.4-0.91-0.9-0.91s-0.9,0.41-0.9,0.91
	c0,0.5,0.4,0.9,0.9,0.9S28.64,134.83,28.64,134.32z M28.64,129.23c0-0.5-0.4-0.9-0.9-0.9s-0.9,0.4-0.9,0.9c0,0.5,0.4,0.91,0.9,0.91
	S28.64,129.73,28.64,129.23z M28.64,117.89c0-0.5-0.4-0.91-0.9-0.91s-0.9,0.41-0.9,0.91c0,0.5,0.4,0.91,0.9,0.91
	S28.64,118.39,28.64,117.89z M28.64,112.79c0-0.5-0.4-0.91-0.9-0.91s-0.9,0.41-0.9,0.91c0,0.5,0.4,0.9,0.9,0.9
	S28.64,113.3,28.64,112.79z M28.64,107.7c0-0.5-0.4-0.9-0.9-0.9s-0.9,0.4-0.9,0.9c0,0.51,0.4,0.91,0.9,0.91S28.64,108.2,28.64,107.7
	z M223.62,107.25v4.55c1.71,0.35,3.06,1.67,3.46,3.36H230c0.49,0,0.9,0.41,0.9,0.91v29.25c0,0.5-0.41,0.9-0.9,0.9h-32.46v2.62h23.28
	c0.5,0,0.9,0.4,0.9,0.9v3.61h11.75v-49.62h-6.35C226.76,105.5,225.38,106.89,223.62,107.25z M143.59,87.73V75.18h-1.84v17.29h45.92
	v-3.83H144.5C144,88.63,143.59,88.23,143.59,87.73z M229.09,116.98h-1.94c-0.31,1.82-1.72,3.28-3.52,3.65V125
	c0,0.5-0.4,0.91-0.9,0.91h-25.18v3.5h18.07c0.5,0,0.9,0.4,0.9,0.9v4.3h12.57V116.98z M229.09,60.01h-12.54V48.56h12.54V60.01z
	 M227.22,54.33c0-2.49-2.02-4.51-4.5-4.51c-2.49,0-4.51,2.02-4.51,4.51c0,2.49,2.02,4.51,4.51,4.51
	C225.2,58.84,227.22,56.82,227.22,54.33z M221.81,120.63c-2.04-0.42-3.59-2.25-3.59-4.42c0-2.17,1.55-4,3.59-4.41v-4.55
	c-2.04-0.42-3.59-2.24-3.59-4.42c0-2.17,1.55-4,3.59-4.41v-4.12h-80.96c-0.5,0-0.9-0.41-0.9-0.91v-8.23h-20.08v4.49h12.57
	c0.5,0,0.91,0.41,0.91,0.91v6.77h79.48c0.5,0,0.91,0.4,0.91,0.91v1.27h1.89c0.5,0,0.9,0.41,0.9,0.91v4.82c0,0.5-0.4,0.91-0.9,0.91
	h-1.89v1.27c0,0.5-0.41,0.91-0.91,0.91H102.54c-0.5,0-0.9-0.41-0.9-0.91v-1.27h-1.89c-0.5,0-0.91-0.41-0.91-0.91v-4.82
	c0-0.5,0.41-0.91,0.91-0.91h1.89v-1.27c0-0.51,0.4-0.91,0.9-0.91h28.97v-5.87h-12.57c-0.5,0-0.9-0.4-0.9-0.9v-13.8h-7.88v15.41
	c0,0.5-0.41,0.91-0.91,0.91H96.08v16.49c0,0.5-0.41,0.91-0.91,0.91h-2.52v5.17h6.19v-1.85c0-0.5,0.41-0.91,0.91-0.91h1.89v-1.28
	c0-0.5,0.4-0.9,0.9-0.9h110.27c0.5,0,0.91,0.4,0.91,0.9v1.28h1.89c0.5,0,0.9,0.41,0.9,0.91v4.82c0,0.5-0.4,0.9-0.9,0.9h-1.89v1.28
	c0,0.5-0.41,0.91-0.91,0.91H102.54c-0.5,0-0.9-0.41-0.9-0.91v-1.28h-1.89c-0.5,0-0.91-0.4-0.91-0.9v-1.15h-6.19v14.99h8.76v-2.53
	c0-0.5,0.41-0.9,0.91-0.9h21.58V125c0-0.5,0.4-0.91,0.9-0.91h43.52c0.5,0,0.9,0.41,0.9,0.91v3.52c2.05,0.42,3.59,2.24,3.59,4.42
	c0,2.17-1.54,3.99-3.59,4.41v7.06h26.5v-2.76h-18.07c-0.5,0-0.91-0.4-0.91-0.91v-10.42c0-0.5,0.41-0.9,0.91-0.9h18.07V125
	c0-0.5,0.41-0.91,0.91-0.91h25.18V120.63z M39.18,13.02h96.04V8.3H17.39v4.73H39.18z M229.09,73.13h-12.54v-11.3h12.54V73.13z
	 M227.22,67.81c0-2.49-2.02-4.51-4.5-4.51c-2.49,0-4.51,2.02-4.51,4.51c0,2.49,2.02,4.51,4.51,4.51
	C225.2,72.32,227.22,70.29,227.22,67.81z M155.97,15.93h-5.27c-0.5,0-0.9-0.4-0.9-0.9V8.3h-3.52v11.04c0,0.5-0.4,0.91-0.9,0.91
	h-3.68v6.01h14.28V15.93z M92.65,134.28v9.04h8.76v-2.53c0-0.5,0.41-0.9,0.91-0.9h44.96c0.5,0,0.91,0.4,0.91,0.9v2.53h7.17v-5.96
	c-2.04-0.42-3.59-2.24-3.59-4.41c0-2.18,1.55-4,3.59-4.42v-2.6H125.7v3.11h21.58c0.5,0,0.91,0.4,0.91,0.9v6.88
	c0,0.5-0.41,0.91-0.91,0.91h-44.96c-0.5,0-0.91-0.41-0.91-0.91v-2.53H92.65z M76.15,82.76h4.72v-2.51
	c-2.02-0.44-3.55-2.25-3.55-4.41c0-2.15,1.52-3.96,3.55-4.41v-2.51c0-0.5,0.4-0.9,0.9-0.9h5.62V65.4H76.15V82.76z M214.67,15.93
	h-5.47c-0.5,0-0.91-0.4-0.91-0.9v-2.91h-0.74v1.92c0,0.5-0.4,0.91-0.9,0.91s-0.9-0.41-0.9-0.91v-1.92h-0.56c-0.5,0-0.9-0.4-0.9-0.9
	V8.3h-2.49v6.73c0,0.5-0.41,0.9-0.91,0.9h-5.1v3.42h18.89V15.93z M92.65,38.75h2.52c0.5,0,0.91,0.4,0.91,0.9v0.68h17.73
	c0.36-1.76,1.74-3.15,3.5-3.51v-5.25c-1.76-0.36-3.14-1.75-3.5-3.51H99.6c-0.42,3.65-3.31,6.56-6.95,6.97V38.75z M214.53,23.08v6.21
	c0,0.51-0.4,0.91-0.9,0.91h-20.37v3.01h22.39c0.5,0,0.9,0.41,0.9,0.91v12.61h12.54V8.3h-2.08v2.91c0,0.5-0.4,0.9-0.9,0.9h-0.56v1.92
	c0,0.5-0.4,0.91-0.9,0.91c-0.5,0-0.9-0.41-0.9-0.91v-1.92H223v2.91c0,0.5-0.41,0.9-0.91,0.9h-5.61v3.42h6.24
	c0.5,0,0.9,0.41,0.9,0.91v16.57c2.04,0.42,3.59,2.24,3.59,4.41c0,2.49-2.02,4.51-4.5,4.51c-2.49,0-4.51-2.02-4.51-4.51
	c0-2.17,1.55-4,3.59-4.41V21.17h-26.93c-0.5,0-0.91-0.41-0.91-0.91v-4.34h-5.1c-0.5,0-0.9-0.4-0.9-0.9V8.3h-3.52v6.73
	c0,0.5-0.4,0.9-0.9,0.9h-6.84v6.25h36.93C214.13,22.18,214.53,22.58,214.53,23.08z M90.83,35.04c-3.64-0.42-6.54-3.32-6.95-6.97
	h-7.73v12.17h5.62c0.5,0,0.9,0.4,0.9,0.9v9.64h4.72V39.66c0-0.5,0.4-0.9,0.9-0.9h2.53V35.04z M189.48,92.47h32.33V74.95h-5.26v12.78
	c0,0.5-0.4,0.9-0.9,0.9h-26.17V92.47z M34.94,24.39h-9.12v6.5h4.75c0.5,0,0.91,0.4,0.91,0.9v18.09c0,0.5-0.41,0.91-0.91,0.91H27.5
	v2.58h7.44V24.39z M139.87,27.34c-0.01-0.06-0.03-0.12-0.03-0.18c0-0.07,0.02-0.12,0.03-0.18v-2.52h-12.76v5.35h8.24
	c0.5,0,0.9,0.4,0.9,0.9v3.8c2.04,0.42,3.59,2.25,3.59,4.42c0,2.17-1.55,4-3.59,4.42v3.31h7.33V35.03h-2.81c-0.5,0-0.9-0.41-0.9-0.91
	V27.34z M195.72,150.67h-39.45c-0.5,0-0.9-0.41-0.9-0.91v-4.62h-7.17v2.53c0,0.5-0.41,0.91-0.91,0.91H125.7v4.79h70.02V150.67z
	 M118.22,45.76c-2.17,0-3.98-1.55-4.41-3.6H96.08v19.91h3.59V50.09c0-0.5,0.4-0.9,0.9-0.9h24.73V24.47h-3.48
	c0.57,0.76,0.9,1.69,0.9,2.7c0,2.17-1.54,3.99-3.59,4.41v5.25c2.05,0.42,3.59,2.24,3.59,4.41C122.72,43.73,120.7,45.76,118.22,45.76
	z M81.82,147.53H66.76v4.51h24.08v-41.56h-2.53c-0.5,0-0.9-0.41-0.9-0.91V76.76h-1.17c-0.36,1.76-1.74,3.15-3.5,3.51v5.87
	c2.05,0.42,3.59,2.25,3.59,4.42s-1.54,4-3.59,4.41v9.63c0,0.5-0.4,0.9-0.9,0.9h-5.67v4.07c0,0.5-0.4,0.91-0.9,0.91h-6.69
	c-0.5,0-0.9-0.41-0.9-0.91V98.34h-6.2v14.67h20.36c0.5,0,0.9,0.41,0.9,0.91v32.7C82.73,147.13,82.32,147.53,81.82,147.53z
	 M150.58,33.21h31.67v-5.14h-40.57v5.14H150.58z M34.94,66.82V55.2H27.5v2.58h3.07c0.5,0,0.91,0.41,0.91,0.91v8.14H34.94z
	 M96.08,63.88v27.38h12.27v-14.5h-7.77c-0.5,0-0.9-0.4-0.9-0.91V63.88H96.08z M39.89,105.23h2.43c0.5,0,0.91,0.41,0.91,0.91v1.7
	h16.4V90.16H57.2c-0.5,0-0.9-0.41-0.9-0.91V19.33c0-0.5,0.4-0.9,0.9-0.9h2.46v-3.59h-8.88v3.59h2.43c0.5,0,0.9,0.4,0.9,0.9v69.92
	c0,0.5-0.4,0.91-0.9,0.91h-2.43v6.78c0,0.5-0.4,0.91-0.9,0.91h-9.99V105.23z M86.23,74.94h1.17v-5.1h-4.72v1.59
	C84.46,71.77,85.86,73.17,86.23,74.94z M31,96.03h7.08v-5.87h-2.24c-0.5,0-0.9-0.41-0.9-0.91V68.64h-3.46v8.14
	c0,0.5-0.41,0.91-0.91,0.91H27.5v14.82C29.26,92.88,30.64,94.27,31,96.03z M134.44,34.52v-2.88h-7.33v17.55h10.2
	c0.5,0,0.9,0.4,0.9,0.9v9.92h5.37V48.49h-8.24c-0.5,0-0.91-0.41-0.91-0.91v-4.22c-2.04-0.42-3.59-2.25-3.59-4.42
	C130.86,36.77,132.4,34.94,134.44,34.52z M39.89,126.76h2.43c0.5,0,0.91,0.4,0.91,0.9v1.7h1.45c0.5,0,0.9,0.41,0.9,0.91
	c0,0.5-0.4,0.9-0.9,0.9h-1.45v3.68h5.74v-20.94c0-0.5,0.4-0.91,0.9-0.91h9.76v-3.35h-16.4v3.67h1.45c0.5,0,0.9,0.41,0.9,0.91
	c0,0.5-0.4,0.91-0.9,0.91h-1.45v3.67h1.45c0.5,0,0.9,0.4,0.9,0.91c0,0.5-0.4,0.9-0.9,0.9h-1.45v1.7c0,0.5-0.41,0.91-0.91,0.91h-2.43
	V126.76z M190.81,51.71h1.08v18.44h-23.63V51.71H190.81z M177.88,66.34c0-0.5-0.4-0.91-0.9-0.91h-3.89c-0.5,0-0.9,0.41-0.9,0.91
	s0.4,0.91,0.9,0.91h3.89C177.48,67.25,177.88,66.84,177.88,66.34z M177.88,60.93c0-0.5-0.4-0.91-0.9-0.91h-3.89
	c-0.5,0-0.9,0.41-0.9,0.91c0,0.5,0.4,0.91,0.9,0.91h3.89C177.48,61.84,177.88,61.43,177.88,60.93z M177.88,55.52
	c0-0.51-0.4-0.91-0.9-0.91h-3.89c-0.5,0-0.9,0.4-0.9,0.91c0,0.5,0.4,0.9,0.9,0.9h3.89C177.48,56.42,177.88,56.02,177.88,55.52z
	 M187.95,66.34c0-0.5-0.4-0.91-0.9-0.91h-3.89c-0.5,0-0.9,0.41-0.9,0.91s0.4,0.91,0.9,0.91h3.89
	C187.55,67.25,187.95,66.84,187.95,66.34z M187.95,60.93c0-0.5-0.4-0.91-0.9-0.91h-3.89c-0.5,0-0.9,0.41-0.9,0.91
	c0,0.5,0.4,0.91,0.9,0.91h3.89C187.55,61.84,187.95,61.43,187.95,60.93z M187.95,55.52c0-0.51-0.4-0.91-0.9-0.91h-3.89
	c-0.5,0-0.9,0.4-0.9,0.91c0,0.5,0.4,0.9,0.9,0.9h3.89C187.55,56.42,187.95,56.02,187.95,55.52z"/>
<path class="st3" d="M118.94,74.94h17.46V51h-34.92v23.94H118.94z M131.38,52.73h2.52c0.5,0,0.9,0.41,0.9,0.91
	c0,0.5-0.4,0.91-0.9,0.91h-2.52c-0.5,0-0.91-0.41-0.91-0.91C130.47,53.14,130.88,52.73,131.38,52.73z M131.38,56.45h2.52
	c0.5,0,0.9,0.41,0.9,0.91c0,0.5-0.4,0.91-0.9,0.91h-2.52c-0.5,0-0.91-0.41-0.91-0.91C130.47,56.86,130.88,56.45,131.38,56.45z
	 M131.38,60.16h2.52c0.5,0,0.9,0.4,0.9,0.91c0,0.5-0.4,0.9-0.9,0.9h-2.52c-0.5,0-0.91-0.4-0.91-0.9
	C130.47,60.57,130.88,60.16,131.38,60.16z M131.38,63.88h2.52c0.5,0,0.9,0.4,0.9,0.9c0,0.5-0.4,0.91-0.9,0.91h-2.52
	c-0.5,0-0.91-0.41-0.91-0.91C130.47,64.29,130.88,63.88,131.38,63.88z M131.38,67.59h2.52c0.5,0,0.9,0.41,0.9,0.91
	s-0.4,0.91-0.9,0.91h-2.52c-0.5,0-0.91-0.41-0.91-0.91S130.88,67.59,131.38,67.59z M131.38,71.31h2.52c0.5,0,0.9,0.41,0.9,0.91
	c0,0.5-0.4,0.9-0.9,0.9h-2.52c-0.5,0-0.91-0.4-0.91-0.9C130.47,71.72,130.88,71.31,131.38,71.31z M126,52.73h2.52
	c0.5,0,0.9,0.41,0.9,0.91c0,0.5-0.4,0.91-0.9,0.91H126c-0.5,0-0.91-0.41-0.91-0.91C125.09,53.14,125.5,52.73,126,52.73z M126,56.45
	h2.52c0.5,0,0.9,0.41,0.9,0.91c0,0.5-0.4,0.91-0.9,0.91H126c-0.5,0-0.91-0.41-0.91-0.91C125.09,56.86,125.5,56.45,126,56.45z
	 M126,60.16h2.52c0.5,0,0.9,0.4,0.9,0.91c0,0.5-0.4,0.9-0.9,0.9H126c-0.5,0-0.91-0.4-0.91-0.9C125.09,60.57,125.5,60.16,126,60.16z
	 M126,63.88h2.52c0.5,0,0.9,0.4,0.9,0.9c0,0.5-0.4,0.91-0.9,0.91H126c-0.5,0-0.91-0.41-0.91-0.91
	C125.09,64.29,125.5,63.88,126,63.88z M126,67.59h2.52c0.5,0,0.9,0.41,0.9,0.91s-0.4,0.91-0.9,0.91H126c-0.5,0-0.91-0.41-0.91-0.91
	S125.5,67.59,126,67.59z M126,71.31h2.52c0.5,0,0.9,0.41,0.9,0.91c0,0.5-0.4,0.9-0.9,0.9H126c-0.5,0-0.91-0.4-0.91-0.9
	C125.09,71.72,125.5,71.31,126,71.31z M120.62,52.73h2.53c0.5,0,0.9,0.41,0.9,0.91c0,0.5-0.4,0.91-0.9,0.91h-2.53
	c-0.5,0-0.9-0.41-0.9-0.91C119.71,53.14,120.11,52.73,120.62,52.73z M120.62,56.45h2.53c0.5,0,0.9,0.41,0.9,0.91
	c0,0.5-0.4,0.91-0.9,0.91h-2.53c-0.5,0-0.9-0.41-0.9-0.91C119.71,56.86,120.11,56.45,120.62,56.45z M120.62,60.16h2.53
	c0.5,0,0.9,0.4,0.9,0.91c0,0.5-0.4,0.9-0.9,0.9h-2.53c-0.5,0-0.9-0.4-0.9-0.9C119.71,60.57,120.11,60.16,120.62,60.16z
	 M120.62,63.88h2.53c0.5,0,0.9,0.4,0.9,0.9c0,0.5-0.4,0.91-0.9,0.91h-2.53c-0.5,0-0.9-0.41-0.9-0.91
	C119.71,64.29,120.11,63.88,120.62,63.88z M120.62,67.59h2.53c0.5,0,0.9,0.41,0.9,0.91s-0.4,0.91-0.9,0.91h-2.53
	c-0.5,0-0.9-0.41-0.9-0.91S120.11,67.59,120.62,67.59z M120.62,71.31h2.53c0.5,0,0.9,0.41,0.9,0.91c0,0.5-0.4,0.9-0.9,0.9h-2.53
	c-0.5,0-0.9-0.4-0.9-0.9C119.71,71.72,120.11,71.31,120.62,71.31z M115.24,52.73h2.52c0.5,0,0.91,0.41,0.91,0.91
	c0,0.5-0.41,0.91-0.91,0.91h-2.52c-0.5,0-0.9-0.41-0.9-0.91C114.33,53.14,114.74,52.73,115.24,52.73z M115.24,56.45h2.52
	c0.5,0,0.91,0.41,0.91,0.91c0,0.5-0.41,0.91-0.91,0.91h-2.52c-0.5,0-0.9-0.41-0.9-0.91C114.33,56.86,114.74,56.45,115.24,56.45z
	 M115.24,60.16h2.52c0.5,0,0.91,0.4,0.91,0.91c0,0.5-0.41,0.9-0.91,0.9h-2.52c-0.5,0-0.9-0.4-0.9-0.9
	C114.33,60.57,114.74,60.16,115.24,60.16z M115.24,63.88h2.52c0.5,0,0.91,0.4,0.91,0.9c0,0.5-0.41,0.91-0.91,0.91h-2.52
	c-0.5,0-0.9-0.41-0.9-0.91C114.33,64.29,114.74,63.88,115.24,63.88z M115.24,67.59h2.52c0.5,0,0.91,0.41,0.91,0.91
	s-0.41,0.91-0.91,0.91h-2.52c-0.5,0-0.9-0.41-0.9-0.91S114.74,67.59,115.24,67.59z M115.24,71.31h2.52c0.5,0,0.91,0.41,0.91,0.91
	c0,0.5-0.41,0.9-0.91,0.9h-2.52c-0.5,0-0.9-0.4-0.9-0.9C114.33,71.72,114.74,71.31,115.24,71.31z M109.86,52.73h2.52
	c0.5,0,0.91,0.41,0.91,0.91c0,0.5-0.41,0.91-0.91,0.91h-2.52c-0.5,0-0.9-0.41-0.9-0.91C108.96,53.14,109.36,52.73,109.86,52.73z
	 M109.86,56.45h2.52c0.5,0,0.91,0.41,0.91,0.91c0,0.5-0.41,0.91-0.91,0.91h-2.52c-0.5,0-0.9-0.41-0.9-0.91
	C108.96,56.86,109.36,56.45,109.86,56.45z M109.86,60.16h2.52c0.5,0,0.91,0.4,0.91,0.91c0,0.5-0.41,0.9-0.91,0.9h-2.52
	c-0.5,0-0.9-0.4-0.9-0.9C108.96,60.57,109.36,60.16,109.86,60.16z M109.86,63.88h2.52c0.5,0,0.91,0.4,0.91,0.9
	c0,0.5-0.41,0.91-0.91,0.91h-2.52c-0.5,0-0.9-0.41-0.9-0.91C108.96,64.29,109.36,63.88,109.86,63.88z M109.86,67.59h2.52
	c0.5,0,0.91,0.41,0.91,0.91s-0.41,0.91-0.91,0.91h-2.52c-0.5,0-0.9-0.41-0.9-0.91S109.36,67.59,109.86,67.59z M107,73.13h-2.52
	c-0.5,0-0.91-0.4-0.91-0.9c0-0.5,0.41-0.91,0.91-0.91H107c0.5,0,0.9,0.41,0.9,0.91C107.91,72.72,107.5,73.13,107,73.13z M107,69.42
	h-2.52c-0.5,0-0.91-0.41-0.91-0.91s0.41-0.91,0.91-0.91H107c0.5,0,0.9,0.41,0.9,0.91S107.5,69.42,107,69.42z M107,65.7h-2.52
	c-0.5,0-0.91-0.41-0.91-0.91c0-0.5,0.41-0.9,0.91-0.9H107c0.5,0,0.9,0.4,0.9,0.9C107.91,65.29,107.5,65.7,107,65.7z M107,61.98
	h-2.52c-0.5,0-0.91-0.4-0.91-0.9c0-0.51,0.41-0.91,0.91-0.91H107c0.5,0,0.9,0.4,0.9,0.91C107.91,61.58,107.5,61.98,107,61.98z
	 M107,58.27h-2.52c-0.5,0-0.91-0.41-0.91-0.91c0-0.5,0.41-0.91,0.91-0.91H107c0.5,0,0.9,0.41,0.9,0.91
	C107.91,57.86,107.5,58.27,107,58.27z M107,54.55h-2.52c-0.5,0-0.91-0.41-0.91-0.91c0-0.5,0.41-0.91,0.91-0.91H107
	c0.5,0,0.9,0.41,0.9,0.91C107.91,54.14,107.5,54.55,107,54.55z M108.96,72.22c0-0.5,0.4-0.91,0.9-0.91h2.52
	c0.5,0,0.91,0.41,0.91,0.91c0,0.5-0.41,0.9-0.91,0.9h-2.52C109.36,73.13,108.96,72.72,108.96,72.22z M225.19,8.3v2h-3.11
	c-0.49,0-0.9,0.4-0.9,0.9c0,0,0,0,0,0.01v2.9H210.1v-2.9c0-0.01,0-0.01,0-0.01c-0.01-0.5-0.41-0.9-0.9-0.9h-3.11v-2H225.19z
	 M50.79,135.76v9.95h30.13v-30.89H50.79V135.76z M52.65,131.18c-0.5,0-0.91-0.4-0.91-0.9c0-0.5,0.41-0.91,0.91-0.91h2.4v-3.67h-2.4
	c-0.5,0-0.91-0.41-0.91-0.91c0-0.5,0.41-0.9,0.91-0.9h2.4v-3.85c0-0.5,0.41-0.91,0.9-0.91h3.5v-2.07c0-0.5,0.4-0.9,0.9-0.9
	s0.91,0.4,0.91,0.9v2.07h3.67v-2.07c0-0.5,0.4-0.9,0.9-0.9c0.5,0,0.9,0.4,0.9,0.9v2.07h3.67v-2.07c0-0.5,0.4-0.9,0.9-0.9
	s0.91,0.4,0.91,0.9v2.07h3.5c0.5,0,0.91,0.41,0.91,0.91v3.85h2.4c0.5,0,0.91,0.4,0.91,0.9c0,0.5-0.41,0.91-0.91,0.91h-2.4v3.67h2.4
	c0.5,0,0.91,0.41,0.91,0.91c0,0.5-0.41,0.9-0.91,0.9h-2.4v3.68h2.4c0.5,0,0.91,0.4,0.91,0.9c0,0.51-0.41,0.91-0.91,0.91h-2.4v3.85
	c0,0.5-0.41,0.9-0.91,0.9h-3.5v2.07c0,0.5-0.41,0.91-0.91,0.91s-0.9-0.41-0.9-0.91v-2.07h-3.67v2.07c0,0.5-0.4,0.91-0.9,0.91
	c-0.5,0-0.9-0.41-0.9-0.91v-2.07h-3.67v2.07c0,0.5-0.41,0.91-0.91,0.91s-0.9-0.41-0.9-0.91v-2.07h-3.5c-0.49,0-0.9-0.4-0.9-0.9
	v-3.85h-2.4c-0.5,0-0.91-0.4-0.91-0.91c0-0.5,0.41-0.9,0.91-0.9h2.4v-3.68H52.65z M103.22,130.84v5.06h43.15v-5.06H103.22z
	 M105.97,133.72c-0.05,0.11-0.11,0.21-0.2,0.3c-0.18,0.16-0.4,0.26-0.64,0.26c-0.25,0-0.48-0.1-0.65-0.26
	c-0.16-0.18-0.26-0.4-0.26-0.65c0-0.06,0-0.12,0.02-0.18c0.01-0.06,0.03-0.11,0.05-0.16c0.03-0.06,0.05-0.11,0.09-0.16
	c0.03-0.05,0.07-0.09,0.1-0.14c0.05-0.05,0.09-0.08,0.14-0.12c0.05-0.03,0.1-0.06,0.16-0.08c0.05-0.03,0.11-0.05,0.17-0.05
	c0.3-0.06,0.61,0.04,0.82,0.25c0.04,0.05,0.08,0.08,0.11,0.14c0.03,0.05,0.07,0.1,0.08,0.16c0.02,0.05,0.05,0.1,0.05,0.16
	c0.01,0.06,0.02,0.12,0.02,0.18C106.04,133.49,106.01,133.61,105.97,133.72z M110.04,134.28c-0.49,0-0.9-0.41-0.9-0.91
	c0-0.5,0.41-0.9,0.9-0.9c0.5,0,0.91,0.4,0.91,0.9C110.95,133.87,110.54,134.28,110.04,134.28z M114.96,134.28
	c-0.5,0-0.9-0.41-0.9-0.91c0-0.5,0.4-0.9,0.9-0.9s0.91,0.4,0.91,0.9C115.87,133.87,115.46,134.28,114.96,134.28z M119.88,134.28
	c-0.5,0-0.9-0.41-0.9-0.91c0-0.5,0.4-0.9,0.9-0.9s0.9,0.4,0.9,0.9C120.79,133.87,120.38,134.28,119.88,134.28z M143.57,133.19
	c0.01-0.06,0.03-0.11,0.05-0.16c0.03-0.06,0.06-0.11,0.08-0.16c0.04-0.05,0.07-0.09,0.12-0.14c0.2-0.21,0.52-0.31,0.82-0.25
	c0.06,0.01,0.11,0.03,0.17,0.05c0.05,0.02,0.1,0.05,0.15,0.08c0.05,0.04,0.1,0.07,0.14,0.12c0.05,0.05,0.08,0.08,0.12,0.14
	c0.03,0.05,0.06,0.1,0.08,0.16c0.03,0.05,0.05,0.1,0.06,0.16c0.01,0.06,0.01,0.12,0.01,0.18c0,0.25-0.09,0.48-0.27,0.65
	c-0.17,0.16-0.4,0.26-0.64,0.26c-0.24,0-0.47-0.1-0.64-0.26c-0.18-0.18-0.27-0.4-0.27-0.65
	C143.56,133.31,143.57,133.25,143.57,133.19z M139.55,132.46c0.5,0,0.91,0.4,0.91,0.9c0,0.5-0.41,0.91-0.91,0.91
	c-0.5,0-0.9-0.41-0.9-0.91C138.64,132.87,139.05,132.46,139.55,132.46z M134.63,132.46c0.5,0,0.91,0.4,0.91,0.9
	c0,0.5-0.41,0.91-0.91,0.91c-0.5,0-0.9-0.41-0.9-0.91C133.72,132.87,134.13,132.46,134.63,132.46z M129.72,132.46
	c0.5,0,0.9,0.4,0.9,0.9c0,0.5-0.4,0.91-0.9,0.91c-0.5,0-0.91-0.41-0.91-0.91C128.81,132.87,129.22,132.46,129.72,132.46z
	 M125.7,133.37c0,0.5-0.4,0.91-0.9,0.91c-0.5,0-0.91-0.41-0.91-0.91c0-0.5,0.41-0.9,0.91-0.9
	C125.3,132.46,125.7,132.87,125.7,133.37z M208.65,77.48V39.3h-57.16v43.25h57.16V77.48z M204.16,46.24
	c0.01-0.01,0.01-0.01,0.02-0.01c0.05-0.03,0.1-0.06,0.16-0.08c0.05-0.03,0.11-0.05,0.17-0.05c0.12-0.03,0.24-0.03,0.35,0
	c0.06,0.01,0.12,0.03,0.17,0.05c0.06,0.02,0.11,0.05,0.16,0.08c0.05,0.03,0.09,0.07,0.14,0.12c0.16,0.16,0.26,0.4,0.26,0.64
	c0,0.12-0.02,0.24-0.07,0.35c-0.05,0.1-0.11,0.21-0.2,0.29c-0.02,0.02-0.04,0.03-0.06,0.05c-0.07,0.06-0.16,0.11-0.24,0.15
	c-0.11,0.04-0.22,0.07-0.34,0.07c-0.25,0-0.48-0.1-0.65-0.27c-0.08-0.08-0.15-0.19-0.2-0.29c-0.04-0.11-0.07-0.23-0.07-0.35
	c0-0.06,0.01-0.12,0.03-0.18c0.01-0.06,0.03-0.12,0.05-0.18c0.03-0.05,0.05-0.1,0.09-0.15c0.03-0.05,0.07-0.1,0.1-0.14
	C204.07,46.3,204.11,46.27,204.16,46.24z M189.91,41.42c0.5,0,0.9,0.41,0.9,0.91c0,0.5-0.4,0.91-0.9,0.91c-0.5,0-0.9-0.41-0.9-0.91
	C189.01,41.83,189.41,41.42,189.91,41.42z M189.91,46.07c0.5,0,0.9,0.41,0.9,0.91c0,0.5-0.4,0.91-0.9,0.91c-0.5,0-0.9-0.41-0.9-0.91
	C189.01,46.48,189.41,46.07,189.91,46.07z M184.99,41.42c0.5,0,0.9,0.41,0.9,0.91c0,0.5-0.4,0.91-0.9,0.91c-0.5,0-0.9-0.41-0.9-0.91
	C184.09,41.83,184.49,41.42,184.99,41.42z M184.99,46.07c0.5,0,0.9,0.41,0.9,0.91c0,0.5-0.4,0.91-0.9,0.91c-0.5,0-0.9-0.41-0.9-0.91
	C184.09,46.48,184.49,46.07,184.99,46.07z M180.07,41.42c0.5,0,0.91,0.41,0.91,0.91c0,0.5-0.41,0.91-0.91,0.91
	c-0.5,0-0.9-0.41-0.9-0.91C179.16,41.83,179.57,41.42,180.07,41.42z M180.07,46.07c0.5,0,0.91,0.41,0.91,0.91
	c0,0.5-0.41,0.91-0.91,0.91c-0.5,0-0.9-0.41-0.9-0.91C179.16,46.48,179.57,46.07,180.07,46.07z M175.14,41.42
	c0.51,0,0.92,0.41,0.92,0.91c0,0.5-0.41,0.91-0.92,0.91c-0.49,0-0.9-0.41-0.9-0.91C174.24,41.83,174.65,41.42,175.14,41.42z
	 M175.15,46.07c0.5,0,0.91,0.41,0.91,0.91c0,0.5-0.41,0.91-0.91,0.91c-0.49,0-0.91-0.41-0.91-0.91
	C174.24,46.48,174.65,46.07,175.15,46.07z M170.23,41.42c0.49,0,0.9,0.41,0.9,0.91c0,0.5-0.42,0.91-0.9,0.91
	c-0.51,0-0.92-0.41-0.92-0.91C169.31,41.83,169.72,41.42,170.23,41.42z M170.23,46.07c0.49,0,0.91,0.41,0.91,0.91
	c0,0.5-0.42,0.91-0.91,0.91c-0.5,0-0.91-0.41-0.91-0.91C169.31,46.48,169.72,46.07,170.23,46.07z M156.3,79.86
	c-0.05,0.11-0.12,0.21-0.2,0.3c-0.08,0.08-0.18,0.16-0.29,0.2c-0.1,0.05-0.22,0.07-0.35,0.07c-0.12,0-0.24-0.03-0.35-0.07
	c-0.1-0.04-0.21-0.11-0.29-0.2c-0.09-0.08-0.16-0.19-0.2-0.3c-0.05-0.1-0.07-0.22-0.07-0.35c0-0.06,0.01-0.12,0.01-0.18
	c0.01-0.06,0.03-0.12,0.06-0.17c0.02-0.06,0.05-0.1,0.08-0.16c0.04-0.05,0.07-0.1,0.12-0.14c0.33-0.34,0.94-0.35,1.28,0
	c0.05,0.04,0.08,0.08,0.12,0.14c0.03,0.05,0.06,0.1,0.08,0.16c0.03,0.05,0.04,0.11,0.05,0.17c0.01,0.06,0.01,0.12,0.01,0.18
	C156.36,79.64,156.35,79.75,156.3,79.86z M156.1,75.51c-0.08,0.09-0.18,0.16-0.29,0.2c-0.1,0.05-0.22,0.07-0.35,0.07
	c-0.12,0-0.24-0.02-0.35-0.07c-0.1-0.04-0.21-0.1-0.29-0.2c-0.18-0.18-0.27-0.4-0.27-0.64c0-0.25,0.09-0.48,0.27-0.65
	c0.33-0.33,0.94-0.33,1.28,0c0.18,0.17,0.27,0.4,0.27,0.65C156.36,75.11,156.27,75.33,156.1,75.51z M156.1,70.86
	c-0.08,0.08-0.18,0.15-0.29,0.2c-0.1,0.05-0.22,0.07-0.35,0.07c-0.12,0-0.24-0.02-0.35-0.07c-0.1-0.05-0.21-0.11-0.29-0.2
	c-0.18-0.18-0.27-0.4-0.27-0.64c0-0.06,0.01-0.12,0.01-0.18c0.01-0.06,0.03-0.11,0.06-0.17c0.02-0.06,0.05-0.11,0.08-0.16
	c0.04-0.04,0.07-0.09,0.12-0.14c0.03-0.03,0.08-0.08,0.14-0.11c0.05-0.03,0.1-0.06,0.15-0.08c0.06-0.02,0.12-0.04,0.18-0.05
	c0.12-0.02,0.23-0.02,0.36,0c0.05,0.01,0.1,0.03,0.16,0.05c0.05,0.03,0.11,0.05,0.16,0.08c0.05,0.03,0.1,0.08,0.14,0.11
	c0.05,0.05,0.08,0.1,0.12,0.14c0.03,0.05,0.06,0.1,0.08,0.16c0.03,0.06,0.04,0.11,0.05,0.17c0.01,0.07,0.01,0.12,0.01,0.18
	C156.36,70.46,156.27,70.69,156.1,70.86z M156.1,66.21c-0.08,0.08-0.18,0.15-0.29,0.2c-0.1,0.05-0.22,0.07-0.35,0.07
	c-0.12,0-0.24-0.02-0.35-0.07c-0.1-0.05-0.21-0.12-0.29-0.2c-0.09-0.08-0.16-0.18-0.2-0.29c-0.05-0.11-0.07-0.22-0.07-0.35
	c0-0.06,0.01-0.12,0.01-0.18c0.01-0.06,0.03-0.12,0.06-0.18c0.02-0.05,0.05-0.11,0.08-0.16c0.04-0.05,0.07-0.1,0.12-0.14
	c0.03-0.05,0.08-0.08,0.14-0.12c0.05-0.03,0.1-0.06,0.15-0.08c0.06-0.03,0.12-0.05,0.18-0.06c0.29-0.05,0.61,0.05,0.81,0.25
	c0.18,0.17,0.27,0.4,0.27,0.64C156.36,65.82,156.27,66.04,156.1,66.21z M156.3,61.27c-0.05,0.11-0.12,0.21-0.2,0.3
	c-0.17,0.16-0.4,0.26-0.64,0.26c-0.12,0-0.24-0.02-0.35-0.07c-0.1-0.05-0.21-0.12-0.29-0.2c-0.18-0.18-0.27-0.4-0.27-0.65
	c0-0.23,0.09-0.47,0.27-0.64c0.03-0.05,0.08-0.08,0.14-0.12c0.05-0.03,0.1-0.06,0.15-0.08c0.06-0.03,0.12-0.05,0.18-0.05
	c0.29-0.07,0.61,0.04,0.81,0.25c0.18,0.17,0.27,0.4,0.27,0.64C156.36,61.04,156.35,61.16,156.3,61.27z M156.1,56.92
	c-0.17,0.17-0.39,0.27-0.64,0.27c-0.12,0-0.24-0.03-0.35-0.07c-0.1-0.05-0.21-0.11-0.29-0.2c-0.18-0.17-0.27-0.4-0.27-0.64
	c0-0.24,0.09-0.48,0.27-0.64c0.03-0.05,0.08-0.08,0.14-0.11c0.05-0.04,0.1-0.07,0.15-0.08c0.06-0.03,0.12-0.04,0.18-0.05
	c0.12-0.03,0.23-0.03,0.36,0c0.05,0.01,0.1,0.03,0.16,0.05c0.05,0.02,0.11,0.05,0.16,0.08c0.05,0.03,0.1,0.07,0.14,0.11
	c0.18,0.17,0.27,0.4,0.27,0.64C156.36,56.52,156.27,56.75,156.1,56.92z M156.3,51.98c-0.05,0.11-0.12,0.21-0.2,0.29
	c-0.17,0.17-0.4,0.27-0.64,0.27c-0.24,0-0.48-0.1-0.64-0.27c-0.09-0.08-0.16-0.18-0.2-0.29c-0.05-0.11-0.07-0.23-0.07-0.35
	c0-0.24,0.09-0.48,0.27-0.64c0.03-0.05,0.08-0.08,0.14-0.12c0.05-0.03,0.1-0.06,0.15-0.08c0.06-0.03,0.12-0.05,0.18-0.06
	c0.29-0.05,0.61,0.04,0.81,0.25c0.18,0.16,0.27,0.4,0.27,0.64C156.36,51.75,156.35,51.87,156.3,51.98z M156.3,47.33
	c-0.05,0.1-0.12,0.21-0.2,0.29c-0.08,0.08-0.18,0.16-0.29,0.2c-0.1,0.04-0.22,0.07-0.35,0.07c-0.24,0-0.48-0.1-0.64-0.27
	c-0.09-0.08-0.16-0.19-0.2-0.29c-0.05-0.11-0.07-0.23-0.07-0.35c0-0.06,0.01-0.12,0.01-0.18c0.01-0.06,0.03-0.12,0.06-0.18
	c0.02-0.05,0.05-0.1,0.08-0.15c0.04-0.05,0.07-0.1,0.12-0.14c0.05-0.05,0.08-0.08,0.14-0.12c0.05-0.03,0.1-0.06,0.15-0.08
	c0.06-0.03,0.12-0.05,0.18-0.05c0.12-0.03,0.24-0.03,0.35,0c0.06,0.01,0.11,0.03,0.17,0.05c0.05,0.02,0.11,0.05,0.16,0.08
	c0.05,0.03,0.1,0.07,0.14,0.12c0.18,0.16,0.27,0.4,0.27,0.64C156.36,47.1,156.35,47.22,156.3,47.33z M156.1,42.98
	c-0.08,0.09-0.18,0.16-0.29,0.2c-0.1,0.04-0.22,0.07-0.35,0.07c-0.12,0-0.24-0.03-0.35-0.07c-0.1-0.05-0.21-0.11-0.29-0.2
	c-0.18-0.17-0.27-0.4-0.27-0.64c0-0.24,0.09-0.48,0.27-0.64c0.05-0.05,0.08-0.08,0.14-0.11c0.05-0.04,0.1-0.07,0.15-0.09
	c0.06-0.02,0.12-0.04,0.18-0.05c0.3-0.06,0.61,0.03,0.81,0.25c0.05,0.04,0.08,0.08,0.12,0.14c0.03,0.05,0.06,0.1,0.08,0.16
	c0.03,0.05,0.05,0.11,0.06,0.17c0.01,0.06,0.01,0.12,0.01,0.18C156.36,42.58,156.27,42.81,156.1,42.98z M160.38,80.43
	c-0.5,0-0.91-0.41-0.91-0.91c0-0.5,0.41-0.91,0.91-0.91c0.5,0,0.9,0.41,0.9,0.91C161.29,80.01,160.88,80.43,160.38,80.43z
	 M160.38,75.78c-0.5,0-0.91-0.41-0.91-0.91s0.41-0.92,0.91-0.92c0.5,0,0.9,0.42,0.9,0.92S160.88,75.78,160.38,75.78z M160.38,71.13
	c-0.5,0-0.91-0.4-0.91-0.9s0.41-0.91,0.91-0.91c0.5,0,0.9,0.41,0.9,0.91S160.88,71.13,160.38,71.13z M160.38,66.48
	c-0.5,0-0.91-0.4-0.91-0.9c0-0.51,0.41-0.91,0.91-0.91c0.5,0,0.9,0.4,0.9,0.91C161.29,66.08,160.88,66.48,160.38,66.48z
	 M160.38,61.83c-0.5,0-0.91-0.41-0.91-0.91s0.41-0.9,0.91-0.9c0.5,0,0.9,0.4,0.9,0.9S160.88,61.83,160.38,61.83z M160.38,57.19
	c-0.5,0-0.91-0.41-0.91-0.91c0-0.5,0.41-0.9,0.91-0.9c0.5,0,0.9,0.4,0.9,0.9C161.29,56.78,160.88,57.19,160.38,57.19z M160.38,52.54
	c-0.5,0-0.91-0.41-0.91-0.91c0-0.5,0.41-0.91,0.91-0.91c0.5,0,0.9,0.41,0.9,0.91C161.29,52.13,160.88,52.54,160.38,52.54z
	 M160.38,47.89c-0.5,0-0.91-0.41-0.91-0.91c0-0.5,0.41-0.91,0.91-0.91c0.5,0,0.9,0.41,0.9,0.91
	C161.29,47.48,160.88,47.89,160.38,47.89z M160.38,43.24c-0.5,0-0.91-0.41-0.91-0.91c0-0.5,0.41-0.91,0.91-0.91
	c0.5,0,0.9,0.41,0.9,0.91C161.29,42.83,160.88,43.24,160.38,43.24z M165.3,80.43c-0.5,0-0.91-0.41-0.91-0.91
	c0-0.5,0.41-0.91,0.91-0.91c0.5,0,0.9,0.41,0.9,0.91C166.21,80.01,165.81,80.43,165.3,80.43z M165.3,75.78
	c-0.5,0-0.91-0.41-0.91-0.91s0.41-0.92,0.91-0.92c0.5,0,0.9,0.42,0.9,0.92S165.81,75.78,165.3,75.78z M165.3,71.13
	c-0.5,0-0.91-0.4-0.91-0.9s0.41-0.91,0.91-0.91c0.5,0,0.9,0.41,0.9,0.91S165.81,71.13,165.3,71.13z M165.3,66.48
	c-0.5,0-0.91-0.4-0.91-0.9c0-0.51,0.41-0.91,0.91-0.91c0.5,0,0.9,0.4,0.9,0.91C166.21,66.08,165.81,66.48,165.3,66.48z M165.3,61.83
	c-0.5,0-0.91-0.41-0.91-0.91s0.41-0.9,0.91-0.9c0.5,0,0.9,0.4,0.9,0.9S165.81,61.83,165.3,61.83z M165.3,57.19
	c-0.5,0-0.91-0.41-0.91-0.91c0-0.5,0.41-0.9,0.91-0.9c0.5,0,0.9,0.4,0.9,0.9C166.21,56.78,165.81,57.19,165.3,57.19z M165.3,52.54
	c-0.5,0-0.9-0.41-0.9-0.91c0-0.5,0.4-0.91,0.9-0.91c0.5,0,0.9,0.41,0.9,0.91C166.21,52.13,165.81,52.54,165.3,52.54z M165.3,47.89
	c-0.5,0-0.91-0.41-0.91-0.91c0-0.5,0.41-0.91,0.91-0.91c0.5,0,0.9,0.41,0.9,0.91C166.21,47.48,165.81,47.89,165.3,47.89z
	 M165.3,43.24c-0.5,0-0.91-0.41-0.91-0.91c0-0.5,0.41-0.91,0.91-0.91c0.5,0,0.9,0.41,0.9,0.91
	C166.21,42.83,165.81,43.24,165.3,43.24z M170.23,80.43c-0.5,0-0.91-0.41-0.91-0.91c0-0.5,0.41-0.91,0.91-0.91
	c0.49,0,0.91,0.41,0.91,0.91C171.14,80.01,170.72,80.43,170.23,80.43z M169.32,74.87c0-0.5,0.4-0.92,0.91-0.92
	c0.49,0,0.9,0.42,0.9,0.92s-0.41,0.91-0.9,0.91C169.72,75.78,169.32,75.37,169.32,74.87z M175.15,80.43c-0.49,0-0.9-0.41-0.9-0.91
	c0-0.5,0.41-0.91,0.9-0.91c0.5,0,0.91,0.41,0.91,0.91C176.06,80.01,175.65,80.43,175.15,80.43z M175.14,75.78
	c-0.49,0-0.9-0.41-0.9-0.91s0.41-0.92,0.9-0.92c0.51,0,0.92,0.42,0.92,0.92S175.65,75.78,175.14,75.78z M180.07,80.43
	c-0.5,0-0.9-0.41-0.9-0.91c0-0.5,0.4-0.91,0.9-0.91c0.5,0,0.91,0.41,0.91,0.91C180.98,80.01,180.57,80.43,180.07,80.43z
	 M180.07,75.78c-0.5,0-0.9-0.41-0.9-0.91s0.4-0.92,0.9-0.92c0.5,0,0.91,0.42,0.91,0.92S180.57,75.78,180.07,75.78z M184.99,80.43
	c-0.5,0-0.9-0.41-0.9-0.91c0-0.5,0.4-0.91,0.9-0.91c0.5,0,0.9,0.41,0.9,0.91C185.9,80.01,185.49,80.43,184.99,80.43z M184.99,75.78
	c-0.5,0-0.9-0.41-0.9-0.91s0.4-0.92,0.9-0.92c0.5,0,0.9,0.42,0.9,0.92S185.49,75.78,184.99,75.78z M189.91,80.43
	c-0.5,0-0.9-0.41-0.9-0.91c0-0.5,0.4-0.91,0.9-0.91c0.5,0,0.9,0.41,0.9,0.91C190.82,80.01,190.41,80.43,189.91,80.43z M189.91,75.78
	c-0.5,0-0.9-0.41-0.9-0.91s0.4-0.92,0.9-0.92c0.5,0,0.9,0.42,0.9,0.92S190.41,75.78,189.91,75.78z M193.7,71.06
	c0,0.5-0.4,0.9-0.9,0.9h-25.45c-0.5,0-0.91-0.4-0.91-0.9V50.8c0-0.5,0.41-0.91,0.91-0.91h25.45c0.5,0,0.9,0.41,0.9,0.91V71.06z
	 M194.84,80.43c-0.5,0-0.9-0.41-0.9-0.91c0-0.5,0.4-0.91,0.9-0.91c0.5,0,0.9,0.41,0.9,0.91C195.74,80.01,195.34,80.43,194.84,80.43z
	 M194.84,75.78c-0.5,0-0.9-0.41-0.9-0.91s0.4-0.92,0.9-0.92c0.5,0,0.9,0.42,0.9,0.92S195.34,75.78,194.84,75.78z M194.84,71.13
	c-0.5,0-0.9-0.4-0.9-0.9s0.4-0.91,0.9-0.91c0.5,0,0.9,0.41,0.9,0.91S195.34,71.13,194.84,71.13z M194.84,66.48
	c-0.5,0-0.9-0.4-0.9-0.9c0-0.51,0.4-0.91,0.9-0.91c0.5,0,0.9,0.4,0.9,0.91C195.74,66.08,195.34,66.48,194.84,66.48z M194.84,61.83
	c-0.5,0-0.9-0.41-0.9-0.91s0.4-0.9,0.9-0.9c0.5,0,0.9,0.4,0.9,0.9S195.34,61.83,194.84,61.83z M194.84,57.19
	c-0.5,0-0.9-0.41-0.9-0.91c0-0.5,0.4-0.9,0.9-0.9c0.5,0,0.9,0.4,0.9,0.9C195.74,56.78,195.34,57.19,194.84,57.19z M194.84,52.54
	c-0.5,0-0.9-0.41-0.9-0.91c0-0.5,0.4-0.91,0.9-0.91c0.5,0,0.9,0.41,0.9,0.91C195.74,52.13,195.34,52.54,194.84,52.54z M194.84,47.89
	c-0.5,0-0.9-0.41-0.9-0.91c0-0.5,0.4-0.91,0.9-0.91c0.5,0,0.9,0.41,0.9,0.91C195.74,47.48,195.34,47.89,194.84,47.89z M194.84,43.24
	c-0.5,0-0.9-0.41-0.9-0.91c0-0.5,0.4-0.91,0.9-0.91c0.5,0,0.9,0.41,0.9,0.91C195.74,42.83,195.34,43.24,194.84,43.24z M199.76,80.43
	c-0.5,0-0.91-0.41-0.91-0.91c0-0.5,0.41-0.91,0.91-0.91c0.5,0,0.9,0.41,0.9,0.91C200.66,80.01,200.26,80.43,199.76,80.43z
	 M199.76,75.78c-0.5,0-0.91-0.41-0.91-0.91s0.41-0.92,0.91-0.92c0.5,0,0.9,0.42,0.9,0.92S200.26,75.78,199.76,75.78z M199.76,71.13
	c-0.5,0-0.91-0.4-0.91-0.9s0.41-0.91,0.91-0.91c0.5,0,0.9,0.41,0.9,0.91S200.26,71.13,199.76,71.13z M199.76,66.48
	c-0.5,0-0.91-0.4-0.91-0.9c0-0.51,0.41-0.91,0.91-0.91c0.5,0,0.9,0.4,0.9,0.91C200.66,66.08,200.26,66.48,199.76,66.48z
	 M199.76,61.83c-0.5,0-0.91-0.41-0.91-0.91s0.41-0.9,0.91-0.9c0.5,0,0.9,0.4,0.9,0.9S200.26,61.83,199.76,61.83z M199.76,57.19
	c-0.5,0-0.91-0.41-0.91-0.91c0-0.5,0.41-0.9,0.91-0.9c0.5,0,0.9,0.4,0.9,0.9C200.66,56.78,200.26,57.19,199.76,57.19z M199.76,52.54
	c-0.5,0-0.91-0.41-0.91-0.91c0-0.5,0.41-0.91,0.91-0.91c0.5,0,0.9,0.41,0.9,0.91C200.66,52.13,200.26,52.54,199.76,52.54z
	 M199.76,47.89c-0.5,0-0.91-0.41-0.91-0.91c0-0.5,0.41-0.91,0.91-0.91c0.5,0,0.9,0.41,0.9,0.91
	C200.66,47.48,200.26,47.89,199.76,47.89z M199.76,43.24c-0.5,0-0.91-0.41-0.91-0.91c0-0.5,0.41-0.91,0.91-0.91
	c0.5,0,0.9,0.41,0.9,0.91C200.66,42.83,200.26,43.24,199.76,43.24z M205.32,61.57c-0.18,0.16-0.4,0.26-0.64,0.26
	c-0.25,0-0.48-0.1-0.65-0.26c-0.08-0.09-0.15-0.19-0.2-0.3c-0.04-0.11-0.07-0.23-0.07-0.35c0-0.23,0.1-0.47,0.26-0.64
	c0.35-0.35,0.94-0.35,1.29,0c0.16,0.17,0.26,0.4,0.26,0.64C205.58,61.17,205.49,61.4,205.32,61.57z M205.58,65.57
	c0,0.25-0.1,0.47-0.26,0.64c-0.18,0.18-0.4,0.27-0.64,0.27c-0.12,0-0.24-0.02-0.35-0.07c-0.11-0.05-0.21-0.12-0.3-0.2
	c-0.08-0.08-0.15-0.18-0.2-0.29c-0.04-0.11-0.07-0.22-0.07-0.35c0-0.24,0.1-0.48,0.26-0.64c0.05-0.05,0.09-0.08,0.14-0.12
	c0.05-0.03,0.1-0.06,0.16-0.08c0.05-0.03,0.11-0.05,0.17-0.06c0.12-0.02,0.24-0.02,0.35,0c0.06,0.01,0.12,0.03,0.17,0.06
	c0.06,0.02,0.11,0.05,0.16,0.08c0.05,0.04,0.09,0.07,0.14,0.12C205.49,65.1,205.58,65.33,205.58,65.57z M205.32,56.92
	c-0.18,0.17-0.4,0.27-0.64,0.27c-0.25,0-0.48-0.1-0.65-0.27c-0.17-0.18-0.26-0.4-0.26-0.64c0-0.24,0.1-0.48,0.26-0.64
	c0.35-0.35,0.94-0.35,1.29,0c0.16,0.17,0.26,0.4,0.26,0.64C205.58,56.52,205.5,56.75,205.32,56.92z M205.52,79.86
	c-0.05,0.11-0.11,0.21-0.2,0.3c-0.09,0.08-0.19,0.16-0.3,0.2c-0.11,0.05-0.22,0.07-0.34,0.07c-0.25,0-0.48-0.1-0.65-0.27
	c-0.08-0.08-0.15-0.19-0.2-0.3c-0.04-0.1-0.07-0.22-0.07-0.35c0-0.06,0.01-0.12,0.03-0.18c0.01-0.06,0.03-0.12,0.05-0.17
	c0.03-0.06,0.05-0.1,0.08-0.16c0.03-0.05,0.07-0.1,0.11-0.14c0.05-0.05,0.09-0.08,0.14-0.12c0.05-0.03,0.1-0.06,0.16-0.08
	c0.05-0.02,0.11-0.04,0.17-0.05c0.3-0.07,0.61,0.04,0.82,0.25c0.04,0.04,0.08,0.08,0.11,0.14s0.07,0.1,0.08,0.16
	c0.02,0.05,0.03,0.11,0.05,0.17c0.01,0.06,0.01,0.12,0.01,0.18C205.58,79.64,205.56,79.75,205.52,79.86z M205.52,75.21
	c-0.05,0.12-0.11,0.21-0.2,0.3c-0.09,0.09-0.19,0.16-0.3,0.2c-0.11,0.05-0.22,0.07-0.35,0.07c-0.12,0-0.23-0.02-0.35-0.07
	c-0.11-0.04-0.21-0.1-0.3-0.2c-0.08-0.08-0.15-0.18-0.2-0.3c-0.04-0.1-0.07-0.22-0.07-0.34c0-0.25,0.1-0.48,0.26-0.65
	c0.21-0.21,0.53-0.31,0.82-0.25c0.06,0.02,0.12,0.03,0.17,0.05c0.06,0.02,0.11,0.05,0.16,0.09c0.05,0.03,0.09,0.07,0.14,0.1
	c0.16,0.17,0.27,0.4,0.27,0.65C205.59,74.99,205.56,75.11,205.52,75.21z M205.52,70.57c-0.05,0.11-0.11,0.21-0.2,0.29
	c-0.18,0.18-0.4,0.27-0.64,0.27c-0.12,0-0.24-0.02-0.35-0.07c-0.12-0.05-0.21-0.11-0.3-0.2c-0.17-0.17-0.26-0.4-0.26-0.64
	c0-0.06,0-0.12,0.02-0.18c0.01-0.06,0.03-0.11,0.05-0.17c0.03-0.06,0.05-0.11,0.08-0.16c0.03-0.04,0.07-0.09,0.11-0.14
	c0.05-0.03,0.09-0.08,0.14-0.11c0.05-0.03,0.1-0.06,0.16-0.08c0.05-0.02,0.11-0.04,0.17-0.05c0.3-0.06,0.61,0.05,0.82,0.25
	c0.04,0.05,0.08,0.1,0.11,0.14c0.03,0.05,0.07,0.1,0.08,0.16s0.03,0.11,0.05,0.17c0.01,0.07,0.02,0.12,0.02,0.18
	C205.59,70.35,205.56,70.46,205.52,70.57z M205.52,51.98c-0.05,0.11-0.11,0.21-0.2,0.29c-0.02,0.01-0.04,0.02-0.06,0.04
	c-0.17,0.14-0.36,0.23-0.58,0.23c-0.25,0-0.48-0.1-0.65-0.27c-0.08-0.08-0.15-0.18-0.2-0.29c-0.04-0.11-0.07-0.23-0.07-0.35
	c0-0.24,0.1-0.48,0.27-0.64c0.32-0.33,0.88-0.33,1.23-0.04c0.02,0.01,0.04,0.02,0.06,0.04c0.16,0.16,0.27,0.4,0.27,0.64
	C205.59,51.75,205.56,51.87,205.52,51.98z M205.32,42.98c-0.17,0.17-0.4,0.27-0.64,0.27c-0.12,0-0.24-0.03-0.35-0.07
	c-0.11-0.05-0.21-0.11-0.3-0.2c-0.16-0.17-0.26-0.4-0.26-0.64c0-0.24,0.1-0.48,0.26-0.64c0.05-0.05,0.09-0.08,0.14-0.11
	c0.05-0.04,0.1-0.07,0.16-0.09c0.05-0.02,0.11-0.04,0.17-0.05c0.29-0.06,0.61,0.03,0.82,0.25c0.04,0.04,0.08,0.08,0.11,0.14
	c0.03,0.05,0.07,0.1,0.08,0.16c0.02,0.05,0.03,0.11,0.05,0.17c0.01,0.06,0.02,0.12,0.02,0.18C205.59,42.58,205.5,42.81,205.32,42.98
	z M149.68,49.88h-1.5v-4.61h1.5V49.88z M149.68,63.23h-1.5v-4.61h1.5V63.23z M149.68,76.58h-1.5v-4.62h1.5V76.58z M210.47,45.28h1.5
	v4.61h-1.5V45.28z M210.47,58.62h1.5v4.61h-1.5V58.62z M210.47,71.96h1.5v4.62h-1.5V71.96z M103.45,99.14v0.36h1.89
	c0.5,0,0.9,0.41,0.9,0.91v4.82c0,0.5-0.4,0.91-0.9,0.91h-1.89v0.36h108.46v-0.36h-1.89c-0.5,0-0.91-0.41-0.91-0.91v-4.82
	c0-0.5,0.41-0.91,0.91-0.91h1.89v-0.36H103.45z M207.02,102.68c0,0.5-0.41,0.91-0.91,0.91h-96.86c-0.5,0-0.9-0.41-0.9-0.91
	s0.4-0.9,0.9-0.9h96.86C206.61,101.78,207.02,102.18,207.02,102.68z M103.45,112.89h1.89c0.5,0,0.9,0.41,0.9,0.91v4.82
	c0,0.5-0.4,0.9-0.9,0.9h-1.89v0.36h108.46v-0.36h-1.89c-0.5,0-0.91-0.4-0.91-0.9v-4.82c0-0.5,0.41-0.91,0.91-0.91h1.89v-0.36H103.45
	V112.89z M109.25,115.16h96.86c0.5,0,0.91,0.41,0.91,0.91c0,0.5-0.41,0.91-0.91,0.91h-96.86c-0.5,0-0.9-0.41-0.9-0.91
	C108.34,115.57,108.75,115.16,109.25,115.16z"/>
<path class="st4" d="M175.5,14.11h-6.54V8.3h13.67v5.81H175.5z M195.16,14.11h4.81V8.3h-10.2v5.81H195.16z M157.16,14.11h4.65V8.3
	h-10.2v5.81H157.16z M223.06,3.99h-14.99v2.49h14.99V3.99z M138.38,8.3h-1.35v10.13h7.43V8.3H138.38z M71.9,20.24h2.43v68.09h-4.86
	V20.24H71.9z M72.81,61.68c0-0.5-0.41-0.91-0.91-0.91c-0.49,0-0.9,0.41-0.9,0.91v23.13c0,0.5,0.41,0.91,0.9,0.91
	c0.5,0,0.91-0.41,0.91-0.91V61.68z M72.81,55.01c0-0.5-0.41-0.9-0.91-0.9c-0.49,0-0.9,0.4-0.9,0.9v2.34c0,0.51,0.41,0.91,0.9,0.91
	c0.5,0,0.91-0.4,0.91-0.91V55.01z M72.81,27.72c0-0.5-0.41-0.91-0.91-0.91c-0.49,0-0.9,0.41-0.9,0.91v23.14c0,0.5,0.41,0.9,0.9,0.9
	c0.5,0,0.91-0.4,0.91-0.9V27.72z M71.9,22.87c-0.49,0-0.9,0.4-0.9,0.9v1.17c0,0.5,0.41,0.91,0.9,0.91c0.5,0,0.91-0.41,0.91-0.91
	v-1.17C72.81,23.27,72.4,22.87,71.9,22.87z M60.58,20.24h2.4v68.09h-4.86V20.24H60.58z M61.46,61.68c0-0.5-0.41-0.91-0.91-0.91
	s-0.9,0.41-0.9,0.91v23.13c0,0.5,0.4,0.91,0.9,0.91s0.91-0.41,0.91-0.91V61.68z M61.46,55.01c0-0.5-0.41-0.9-0.91-0.9
	s-0.9,0.4-0.9,0.9v2.34c0,0.51,0.4,0.91,0.9,0.91s0.91-0.4,0.91-0.91V55.01z M61.46,27.72c0-0.5-0.41-0.91-0.91-0.91
	s-0.9,0.41-0.9,0.91v23.14c0,0.5,0.4,0.9,0.9,0.9s0.91-0.4,0.91-0.9V27.72z M60.54,22.87c-0.5,0-0.9,0.4-0.9,0.9v1.17
	c0,0.5,0.4,0.91,0.9,0.91s0.91-0.41,0.91-0.91v-1.17C61.46,23.27,61.05,22.87,60.54,22.87z M49.88,20.24h2.43v68.09h-4.87V20.24
	H49.88z M50.79,61.68c0-0.5-0.4-0.91-0.9-0.91s-0.9,0.41-0.9,0.91v23.13c0,0.5,0.4,0.91,0.9,0.91s0.9-0.41,0.9-0.91V61.68z
	 M50.79,55.01c0-0.5-0.4-0.9-0.9-0.9s-0.9,0.4-0.9,0.9v2.34c0,0.51,0.4,0.91,0.9,0.91s0.9-0.4,0.9-0.91V55.01z M50.79,27.72
	c0-0.5-0.4-0.91-0.9-0.91s-0.9,0.41-0.9,0.91v23.14c0,0.5,0.4,0.9,0.9,0.9s0.9-0.4,0.9-0.9V27.72z M49.88,22.87
	c-0.5,0-0.9,0.4-0.9,0.9v1.17c0,0.5,0.4,0.91,0.9,0.91s0.9-0.41,0.9-0.91v-1.17C50.79,23.27,50.38,22.87,49.88,22.87z M39.18,20.24
	h2.43v68.09h-4.87V20.24H39.18z M40.1,61.68c0-0.5-0.41-0.91-0.91-0.91c-0.5,0-0.9,0.41-0.9,0.91v23.13c0,0.5,0.4,0.91,0.9,0.91
	c0.5,0,0.91-0.41,0.91-0.91V61.68z M40.1,55.01c0-0.5-0.41-0.9-0.91-0.9c-0.5,0-0.9,0.4-0.9,0.9v2.34c0,0.51,0.4,0.91,0.9,0.91
	c0.5,0,0.91-0.4,0.91-0.91V55.01z M40.1,27.72c0-0.5-0.41-0.91-0.91-0.91c-0.5,0-0.9,0.41-0.9,0.91v23.14c0,0.5,0.4,0.9,0.9,0.9
	c0.5,0,0.91-0.4,0.91-0.9V27.72z M39.18,22.87c-0.5,0-0.9,0.4-0.9,0.9v1.17c0,0.5,0.4,0.91,0.9,0.91c0.5,0,0.91-0.41,0.91-0.91
	v-1.17C40.1,23.27,39.69,22.87,39.18,22.87z M220.03,41.25c0,1.48,1.2,2.7,2.69,2.7c1.48,0,2.68-1.21,2.68-2.7s-1.2-2.69-2.68-2.69
	C221.23,38.56,220.03,39.76,220.03,41.25z M135.36,36.25c-1.48,0-2.69,1.2-2.69,2.69s1.2,2.7,2.69,2.7c1.48,0,2.68-1.21,2.68-2.7
	S136.83,36.25,135.36,36.25z M118.22,24.47c-1.48,0-2.68,1.21-2.68,2.7s1.2,2.69,2.68,2.69c1.48,0,2.69-1.2,2.69-2.69
	S119.7,24.47,118.22,24.47z M119.13,38.73c-0.28-0.1-0.59-0.17-0.9-0.17s-0.62,0.07-0.9,0.17c-1.04,0.37-1.78,1.36-1.78,2.52
	c0,1.48,1.2,2.7,2.68,2.7c1.48,0,2.69-1.21,2.69-2.7C120.91,40.09,120.16,39.1,119.13,38.73z M82.68,73.32
	c-0.27-0.1-0.55-0.16-0.86-0.16c-0.34,0-0.66,0.07-0.95,0.18c-1.01,0.39-1.73,1.36-1.73,2.51c0,1.15,0.72,2.12,1.73,2.51
	c0.01,0.01,0.03,0.01,0.05,0.01c0.28,0.1,0.59,0.17,0.9,0.17c0.31,0,0.59-0.07,0.86-0.16c0.02-0.01,0.03-0.01,0.05-0.01
	c0.75-0.27,1.34-0.87,1.61-1.61c0.1-0.29,0.16-0.59,0.16-0.91c0-0.32-0.07-0.62-0.16-0.9C84.06,74.18,83.45,73.58,82.68,73.32z
	 M82.73,88.03c-0.28-0.1-0.59-0.17-0.9-0.17c-0.32,0-0.62,0.07-0.9,0.17c-1.04,0.38-1.78,1.36-1.78,2.53s0.74,2.15,1.78,2.52
	c0.28,0.1,0.59,0.17,0.9,0.17c0.32,0,0.62-0.07,0.9-0.17c1.04-0.37,1.78-1.35,1.78-2.52S83.76,88.41,82.73,88.03z M222.72,51.64
	c-1.48,0-2.69,1.21-2.69,2.7s1.2,2.69,2.69,2.69c1.48,0,2.68-1.2,2.68-2.69S224.2,51.64,222.72,51.64z M222.72,65.11
	c-1.48,0-2.69,1.21-2.69,2.7s1.2,2.69,2.69,2.69c1.48,0,2.68-1.2,2.68-2.69S224.2,65.11,222.72,65.11z M27.5,94.42
	c-0.29-0.1-0.59-0.17-0.9-0.17c-0.32,0-0.62,0.07-0.91,0.17c-1.03,0.37-1.78,1.35-1.78,2.52c0,1.48,1.2,2.7,2.69,2.7
	c1.16,0,2.14-0.75,2.51-1.78c0.1-0.29,0.17-0.59,0.17-0.91c0-0.32-0.07-0.62-0.17-0.9C28.84,95.28,28.25,94.68,27.5,94.42z
	 M196.63,131.23h18.07v8.61h-36.14v-8.61H196.63z M182.41,137.16c0-0.24-0.09-0.48-0.27-0.64c-0.03-0.04-0.08-0.08-0.14-0.12
	c-0.05-0.03-0.1-0.06-0.15-0.08c-0.06-0.02-0.12-0.05-0.18-0.05c-0.12-0.03-0.23-0.03-0.35,0c-0.06,0.01-0.12,0.03-0.17,0.05
	c-0.05,0.02-0.11,0.05-0.16,0.08c-0.05,0.04-0.1,0.08-0.13,0.12c-0.18,0.17-0.27,0.4-0.27,0.64c0,0.12,0.02,0.23,0.07,0.35
	c0.05,0.11,0.12,0.21,0.2,0.3c0.17,0.17,0.39,0.26,0.64,0.26s0.48-0.09,0.64-0.26c0.09-0.08,0.16-0.19,0.2-0.3
	C182.39,137.4,182.41,137.29,182.41,137.16z M182.41,133.9c0-0.24-0.09-0.48-0.27-0.65c-0.03-0.03-0.08-0.08-0.14-0.11
	c-0.05-0.03-0.1-0.05-0.15-0.08c-0.06-0.02-0.12-0.03-0.18-0.05c-0.29-0.06-0.61,0.04-0.81,0.25c-0.18,0.18-0.27,0.41-0.27,0.65
	c0,0.24,0.09,0.47,0.27,0.64c0.17,0.18,0.4,0.27,0.64,0.27s0.46-0.09,0.64-0.27C182.32,134.36,182.41,134.14,182.41,133.9z
	 M187.45,137.16c0-0.5-0.4-0.91-0.9-0.91s-0.91,0.41-0.91,0.91s0.41,0.91,0.91,0.91S187.45,137.66,187.45,137.16z M187.45,133.9
	c0-0.5-0.4-0.91-0.9-0.91s-0.91,0.41-0.91,0.91c0,0.5,0.41,0.9,0.91,0.9S187.45,134.4,187.45,133.9z M192.5,137.16
	c0-0.5-0.41-0.91-0.91-0.91c-0.49,0-0.9,0.41-0.9,0.91s0.41,0.91,0.9,0.91C192.09,138.07,192.5,137.66,192.5,137.16z M192.5,133.9
	c0-0.5-0.41-0.91-0.91-0.91c-0.49,0-0.9,0.41-0.9,0.91c0,0.5,0.41,0.9,0.9,0.9C192.09,134.8,192.5,134.4,192.5,133.9z
	 M197.54,137.16c0-0.5-0.41-0.91-0.91-0.91s-0.9,0.41-0.9,0.91s0.4,0.91,0.9,0.91S197.54,137.66,197.54,137.16z M210.84,133.9
	c0,0.24,0.1,0.47,0.26,0.64c0.18,0.18,0.41,0.27,0.65,0.27c0.23,0,0.46-0.09,0.64-0.27c0.17-0.17,0.27-0.4,0.27-0.64
	c0-0.24-0.1-0.48-0.27-0.65c-0.21-0.21-0.53-0.31-0.82-0.25c-0.06,0.02-0.12,0.03-0.17,0.05c-0.06,0.03-0.11,0.05-0.16,0.08
	c-0.05,0.03-0.09,0.08-0.14,0.11c-0.04,0.05-0.08,0.1-0.1,0.14c-0.04,0.05-0.07,0.1-0.09,0.16c-0.02,0.06-0.03,0.11-0.05,0.17
	C210.84,133.77,210.84,133.84,210.84,133.9z M210.84,137.16c0,0.12,0.03,0.23,0.07,0.35c0.05,0.11,0.12,0.21,0.2,0.3
	c0.18,0.17,0.4,0.26,0.65,0.26c0.23,0,0.46-0.09,0.64-0.26c0.08-0.08,0.15-0.19,0.2-0.3c0.04-0.11,0.07-0.22,0.07-0.35
	c0-0.24-0.1-0.48-0.27-0.64c-0.05-0.04-0.09-0.08-0.14-0.12c-0.05-0.03-0.1-0.06-0.16-0.08c-0.05-0.02-0.11-0.05-0.17-0.05
	c-0.29-0.07-0.61,0.04-0.82,0.25C210.94,136.69,210.84,136.92,210.84,137.16z M205.8,133.9c0,0.5,0.41,0.9,0.91,0.9
	c0.5,0,0.9-0.4,0.9-0.9c0-0.5-0.4-0.91-0.9-0.91C206.21,132.98,205.8,133.39,205.8,133.9z M205.8,137.16c0,0.5,0.41,0.91,0.91,0.91
	c0.5,0,0.9-0.41,0.9-0.91s-0.4-0.91-0.9-0.91C206.21,136.25,205.8,136.66,205.8,137.16z M200.77,133.9c0,0.5,0.4,0.9,0.9,0.9
	c0.5,0,0.9-0.4,0.9-0.9c0-0.5-0.4-0.91-0.9-0.91C201.17,132.98,200.77,133.39,200.77,133.9z M200.77,137.16c0,0.5,0.4,0.91,0.9,0.91
	c0.5,0,0.9-0.41,0.9-0.91s-0.4-0.91-0.9-0.91C201.17,136.25,200.77,136.66,200.77,137.16z M196.63,132.98c-0.5,0-0.9,0.41-0.9,0.91
	c0,0.5,0.4,0.9,0.9,0.9s0.91-0.4,0.91-0.9C197.54,133.39,197.13,132.98,196.63,132.98z M193.25,35.03h21.48v51.78h-69.33V35.03
	H193.25z M193.25,37.48h-42.67c-0.5,0-0.9,0.41-0.9,0.91v5.07h-2.42c-0.5,0-0.9,0.4-0.9,0.9v6.43c0,0.5,0.4,0.91,0.9,0.91h2.42v5.09
	h-2.42c-0.5,0-0.9,0.41-0.9,0.91v6.43c0,0.5,0.4,0.9,0.9,0.9h2.42v5.1h-2.42c-0.5,0-0.9,0.4-0.9,0.91v6.43c0,0.5,0.4,0.91,0.9,0.91
	h2.42v5.07c0,0.5,0.4,0.91,0.9,0.91h58.97c0.5,0,0.91-0.41,0.91-0.91v-5.07h2.41c0.5,0,0.9-0.41,0.9-0.91v-6.43
	c0-0.51-0.4-0.91-0.9-0.91h-2.41v-5.1h2.41c0.5,0,0.9-0.4,0.9-0.9v-6.43c0-0.5-0.4-0.91-0.9-0.91h-2.41v-5.09h2.41
	c0.5,0,0.9-0.41,0.9-0.91v-6.43c0-0.5-0.4-0.9-0.9-0.9h-2.41v-5.07c0-0.5-0.41-0.91-0.91-0.91H193.25z M212.81,101.32h-1.89v3.01
	h3.78v-3.01H212.81z M102.54,101.32h-1.89v3.01h3.78v-3.01H102.54z M212.81,114.71h-1.89v3.01h3.78v-3.01H212.81z M102.54,114.71
	h-1.89v3.01h3.78v-3.01H102.54z M27.73,111.88c-0.5,0-0.9,0.41-0.9,0.91c0,0.5,0.4,0.9,0.9,0.9s0.9-0.4,0.9-0.9
	C28.64,112.29,28.23,111.88,27.73,111.88z M27.73,116.97c-0.5,0-0.9,0.41-0.9,0.91c0,0.5,0.4,0.91,0.9,0.91s0.9-0.41,0.9-0.91
	C28.64,117.38,28.23,116.97,27.73,116.97z M27.73,106.79c-0.5,0-0.9,0.4-0.9,0.9c0,0.51,0.4,0.91,0.9,0.91s0.9-0.4,0.9-0.91
	C28.64,107.2,28.23,106.79,27.73,106.79z M23.23,116.97c-0.51,0-0.92,0.41-0.92,0.91c0,0.5,0.41,0.91,0.92,0.91
	c0.49,0,0.9-0.41,0.9-0.91C24.13,117.38,23.73,116.97,23.23,116.97z M23.23,106.79c-0.51,0-0.92,0.4-0.92,0.9
	c0,0.51,0.41,0.91,0.92,0.91c0.49,0,0.9-0.4,0.9-0.91C24.13,107.2,23.73,106.79,23.23,106.79z M23.23,111.88
	c-0.51,0-0.92,0.41-0.92,0.91c0,0.5,0.41,0.9,0.92,0.9c0.49,0,0.9-0.4,0.9-0.9C24.13,112.29,23.73,111.88,23.23,111.88z
	 M27.73,138.5c-0.5,0-0.9,0.41-0.9,0.91c0,0.5,0.4,0.91,0.9,0.91s0.9-0.41,0.9-0.91C28.64,138.91,28.23,138.5,27.73,138.5z
	 M27.73,128.32c-0.5,0-0.9,0.4-0.9,0.9c0,0.5,0.4,0.91,0.9,0.91s0.9-0.41,0.9-0.91C28.64,128.73,28.23,128.32,27.73,128.32z
	 M27.73,133.41c-0.5,0-0.9,0.41-0.9,0.91c0,0.5,0.4,0.9,0.9,0.9s0.9-0.4,0.9-0.9C28.64,133.82,28.23,133.41,27.73,133.41z
	 M23.23,133.41c-0.51,0-0.92,0.41-0.92,0.91c0,0.5,0.41,0.9,0.92,0.9c0.5,0,0.9-0.4,0.9-0.9C24.13,133.82,23.73,133.41,23.23,133.41
	z M23.23,128.32c-0.51,0-0.92,0.4-0.92,0.9c0,0.5,0.41,0.91,0.92,0.91c0.5,0,0.9-0.41,0.9-0.91
	C24.13,128.73,23.73,128.32,23.23,128.32z M23.23,138.5c-0.51,0-0.92,0.41-0.92,0.91c0,0.5,0.41,0.91,0.92,0.91
	c0.5,0,0.9-0.41,0.9-0.91C24.13,138.91,23.73,138.5,23.23,138.5z"/>
<path class="st5" d="M233.47,159.26v1.08H17.39v-1.08H233.47z M74.33,105.5V94.29h-4.86v14.38h4.86V105.5z M26.59,48.98h-3.07V32.71
	h6.13v16.27H26.59z M26.59,46.92c0.5,0,0.9-0.41,0.9-0.91V35.68c0-0.5-0.4-0.9-0.9-0.9c-0.5,0-0.91,0.4-0.91,0.9v10.33
	C25.68,46.51,26.09,46.92,26.59,46.92z M26.59,75.87h-3.07V59.6h6.13v16.27H26.59z M26.59,73.81c0.5,0,0.9-0.41,0.9-0.91V62.57
	c0-0.5-0.4-0.91-0.9-0.91c-0.5,0-0.91,0.41-0.91,0.91V72.9C25.68,73.4,26.09,73.81,26.59,73.81z M168.31,135.63
	c1.48,0,2.68-1.21,2.68-2.69c0-1.48-1.2-2.7-2.68-2.7c-1.48,0-2.69,1.21-2.69,2.7C165.62,134.42,166.83,135.63,168.31,135.63z
	 M156.27,135.63c1.48,0,2.69-1.21,2.69-2.69c0-1.48-1.2-2.7-2.69-2.7c-1.48,0-2.68,1.21-2.68,2.7
	C153.59,134.42,154.79,135.63,156.27,135.63z M60.37,139.62h-3.5v-18.68h17.96v18.68H60.37z M65.85,138.21
	c4.37,0,7.92-3.56,7.92-7.94s-3.55-7.94-7.92-7.94c-4.37,0-7.92,3.56-7.92,7.94S61.48,138.21,65.85,138.21z M90.83,33.2
	c0.3,0.05,0.6,0.07,0.9,0.07c0.31,0,0.61-0.03,0.91-0.07c2.64-0.4,4.72-2.49,5.12-5.14c0.05-0.29,0.08-0.6,0.08-0.9
	c0-0.31-0.03-0.61-0.08-0.91c-0.4-2.64-2.48-4.74-5.12-5.14c-0.3-0.04-0.6-0.07-0.91-0.07c-0.31,0-0.61,0.03-0.9,0.07
	c-2.94,0.44-5.2,2.98-5.2,6.05C85.64,30.22,87.89,32.76,90.83,33.2z M41.42,121.43v-14.38h-4.87v14.38H41.42z M41.42,142.96v-14.38
	h-4.87v14.38H41.42z M89.22,40.57h5.05v68.09h-5.05V40.57z M92.65,105.2c0-0.24-0.1-0.48-0.27-0.64c-0.34-0.35-0.94-0.35-1.28,0
	c-0.05,0.03-0.08,0.08-0.11,0.14c-0.04,0.05-0.07,0.09-0.08,0.15c-0.03,0.06-0.04,0.11-0.05,0.17c-0.01,0.06-0.01,0.12-0.01,0.18
	c0,0.12,0.02,0.24,0.07,0.35c0.04,0.1,0.1,0.2,0.2,0.29c0.17,0.18,0.4,0.27,0.64,0.27c0.24,0,0.46-0.1,0.64-0.27
	c0.08-0.08,0.15-0.18,0.2-0.29C92.62,105.44,92.65,105.31,92.65,105.2z M92.65,100.1c0-0.51-0.4-0.91-0.9-0.91
	c-0.5,0-0.9,0.4-0.9,0.91c0,0.5,0.4,0.9,0.9,0.9C92.24,101,92.65,100.6,92.65,100.1z M92.65,95c0-0.5-0.4-0.9-0.9-0.9
	c-0.5,0-0.9,0.4-0.9,0.9c0,0.5,0.4,0.91,0.9,0.91C92.24,95.91,92.65,95.5,92.65,95z M90.84,44.03c0,0.25,0.09,0.48,0.26,0.65
	c0.17,0.17,0.4,0.26,0.64,0.26c0.24,0,0.46-0.09,0.64-0.26c0.18-0.18,0.27-0.4,0.27-0.65c0-0.06-0.01-0.11-0.02-0.17
	c-0.01-0.06-0.03-0.12-0.05-0.17c-0.02-0.06-0.05-0.11-0.08-0.16c-0.04-0.05-0.07-0.09-0.12-0.14c-0.05-0.05-0.08-0.08-0.14-0.12
	c-0.05-0.03-0.1-0.06-0.16-0.08c-0.05-0.02-0.1-0.05-0.16-0.05c-0.3-0.07-0.61,0.04-0.82,0.25c-0.05,0.05-0.08,0.08-0.11,0.14
	c-0.04,0.05-0.07,0.1-0.08,0.16c-0.03,0.05-0.04,0.11-0.05,0.17C90.84,43.92,90.84,43.97,90.84,44.03z M90.84,49.14
	c0,0.5,0.4,0.91,0.9,0.91c0.5,0,0.9-0.41,0.9-0.91c0-0.5-0.4-0.91-0.9-0.91C91.24,48.22,90.84,48.63,90.84,49.14z M90.84,54.23
	c0,0.5,0.4,0.91,0.9,0.91c0.5,0,0.9-0.41,0.9-0.91c0-0.5-0.4-0.91-0.9-0.91C91.24,53.32,90.84,53.73,90.84,54.23z M90.84,59.33
	c0,0.49,0.4,0.9,0.9,0.9c0.5,0,0.9-0.41,0.9-0.9c0-0.51-0.4-0.92-0.9-0.92C91.24,58.41,90.84,58.82,90.84,59.33z M90.84,64.42
	c0,0.5,0.4,0.91,0.9,0.91c0.5,0,0.9-0.41,0.9-0.91s-0.4-0.91-0.9-0.91C91.24,63.51,90.84,63.92,90.84,64.42z M90.84,69.52
	c0,0.49,0.4,0.91,0.9,0.91c0.5,0,0.9-0.42,0.9-0.91c0-0.5-0.4-0.9-0.9-0.9C91.24,68.62,90.84,69.02,90.84,69.52z M90.84,74.62
	c0,0.5,0.4,0.9,0.9,0.9c0.5,0,0.9-0.4,0.9-0.9s-0.4-0.91-0.9-0.91C91.24,73.71,90.84,74.12,90.84,74.62z M90.84,79.72
	c0,0.49,0.4,0.91,0.9,0.91c0.5,0,0.9-0.42,0.9-0.91c0-0.51-0.4-0.92-0.9-0.92C91.24,78.8,90.84,79.21,90.84,79.72z M90.84,84.81
	c0,0.51,0.4,0.91,0.9,0.91c0.5,0,0.9-0.4,0.9-0.91c0-0.5-0.4-0.9-0.9-0.9C91.24,83.9,90.84,84.31,90.84,84.81z M90.84,89.9
	c0,0.5,0.4,0.9,0.9,0.9c0.5,0,0.9-0.4,0.9-0.9c0-0.5-0.4-0.91-0.9-0.91C91.24,88.99,90.84,89.4,90.84,89.9z M124.8,146.75h-21.58
	v-5.06h43.15v5.06H124.8z M143.56,144.23c0,0.12,0.02,0.23,0.07,0.35c0.05,0.11,0.11,0.21,0.2,0.29c0.17,0.18,0.4,0.27,0.64,0.27
	c0.24,0,0.47-0.09,0.64-0.27c0.08-0.08,0.15-0.18,0.2-0.29c0.05-0.1,0.07-0.23,0.07-0.35c0-0.24-0.09-0.48-0.27-0.65
	c-0.34-0.33-0.94-0.33-1.28,0C143.65,143.75,143.56,143.99,143.56,144.23z M138.64,144.23c0,0.5,0.4,0.9,0.9,0.9
	c0.5,0,0.91-0.4,0.91-0.9c0-0.5-0.41-0.91-0.91-0.91C139.05,143.32,138.64,143.73,138.64,144.23z M133.72,144.23
	c0,0.5,0.4,0.9,0.9,0.9c0.5,0,0.91-0.4,0.91-0.9c0-0.5-0.41-0.91-0.91-0.91C134.13,143.32,133.72,143.73,133.72,144.23z
	 M128.81,144.23c0,0.5,0.41,0.9,0.91,0.9c0.5,0,0.9-0.4,0.9-0.9c0-0.5-0.4-0.91-0.9-0.91C129.22,143.32,128.81,143.73,128.81,144.23
	z M106.04,144.23c0-0.24-0.1-0.48-0.27-0.65c-0.35-0.33-0.94-0.33-1.29,0c-0.16,0.18-0.27,0.41-0.27,0.65
	c0,0.12,0.03,0.24,0.07,0.35c0.05,0.11,0.11,0.21,0.2,0.29c0.18,0.18,0.4,0.27,0.65,0.27c0.23,0,0.46-0.09,0.64-0.27
	c0.08-0.08,0.15-0.18,0.2-0.29C106.01,144.47,106.04,144.34,106.04,144.23z M110.95,144.23c0-0.5-0.41-0.91-0.91-0.91
	c-0.49,0-0.9,0.41-0.9,0.91c0,0.5,0.41,0.9,0.9,0.9C110.54,145.13,110.95,144.73,110.95,144.23z M115.87,144.23
	c0-0.5-0.41-0.91-0.91-0.91s-0.9,0.41-0.9,0.91c0,0.5,0.4,0.9,0.9,0.9S115.87,144.73,115.87,144.23z M120.79,144.23
	c0-0.5-0.4-0.91-0.9-0.91s-0.9,0.41-0.9,0.91c0,0.5,0.4,0.9,0.9,0.9S120.79,144.73,120.79,144.23z M124.8,145.13
	c0.5,0,0.9-0.4,0.9-0.9c0-0.5-0.4-0.91-0.9-0.91c-0.5,0-0.91,0.41-0.91,0.91C123.88,144.73,124.29,145.13,124.8,145.13z
	 M221.81,105.35c0.29,0.1,0.59,0.17,0.91,0.17c0.32,0,0.62-0.07,0.9-0.17c1.04-0.38,1.78-1.36,1.78-2.53c0-1.16-0.74-2.15-1.78-2.52
	c-0.29-0.1-0.59-0.17-0.9-0.17c-0.33,0-0.62,0.07-0.91,0.17c-1.04,0.37-1.78,1.36-1.78,2.52
	C220.03,103.99,220.77,104.98,221.81,105.35z M221.81,118.74c0.29,0.1,0.59,0.17,0.91,0.17c0.32,0,0.62-0.07,0.9-0.17
	c1.04-0.38,1.78-1.36,1.78-2.53c0-1.17-0.74-2.15-1.78-2.52c-0.29-0.1-0.59-0.17-0.9-0.17c-0.33,0-0.62,0.07-0.91,0.17
	c-1.04,0.37-1.78,1.35-1.78,2.52C220.03,117.38,220.77,118.36,221.81,118.74z"/>
</svg>
